<svg width="395" height="714" viewBox="0 0 395 714" fill="none" xmlns="http://www.w3.org/2000/svg">
<g clip-path="url(#clip0_72_562)">
<path d="M-1.98 151.342C452.178 213.099 313.097 45.9787 400.233 32.4935L379.313 332.787L-13.9709 295.11L-1.98 151.342Z" fill="url(#paint0_linear_72_562)"/>
<path d="M-1.82666 159.383C453.939 207.872 319.388 39.2716 406.094 23.2516L400.613 714.5L-1.79189 719.857L-1.82666 159.383Z" fill="url(#paint1_linear_72_562)"/>
<path d="M104.456 692.031C91.7708 672.507 54.5371 644.274 7.08836 687.528C20.2734 706.597 58.2062 734.193 104.456 692.031Z" fill="url(#paint2_linear_72_562)"/>
<path d="M11.5297 590.093C29.7993 604.526 54.4761 644.207 7.02735 687.461C-10.7428 672.573 -34.7206 632.255 11.5297 590.093Z" fill="url(#paint3_linear_72_562)"/>
<path d="M100.145 695.962C87.4593 676.438 50.2256 648.205 2.77684 691.459C15.9619 710.528 53.8947 738.124 100.145 695.962Z" fill="url(#paint4_linear_72_562)"/>
<path d="M7.21724 594.024C25.4868 608.457 50.1636 648.137 2.71485 691.392C-15.0553 676.503 -39.0331 636.186 7.21724 594.024Z" fill="url(#paint5_linear_72_562)"/>
<path d="M93.2032 701.297C80.6525 681.981 43.8152 654.048 -3.1285 696.842C9.91623 715.708 47.4452 743.01 93.2032 701.297Z" fill="url(#paint6_linear_72_562)"/>
<path d="M84.4564 617.466C71.2962 614.672 44.5475 618.35 42.8338 655.41C56.012 657.813 82.786 653.59 84.4564 617.466Z" fill="url(#paint7_linear_72_562)"/>
<path d="M1.26372 600.443C19.3388 614.723 43.7529 653.98 -3.19076 696.775C-20.7718 682.045 -44.4943 642.156 1.26372 600.443Z" fill="url(#paint8_linear_72_562)"/>
</g>
<defs>
<linearGradient id="paint0_linear_72_562" x1="99.9929" y1="150.497" x2="31.8409" y2="169.923" gradientUnits="userSpaceOnUse">
<stop stop-color="#FF9500"/>
<stop offset="1" stop-color="#FEC301"/>
</linearGradient>
<linearGradient id="paint1_linear_72_562" x1="318.217" y1="133.654" x2="471.5" y2="742" gradientUnits="userSpaceOnUse">
<stop stop-color="#230123"/>
<stop offset="1" stop-color="#890689"/>
</linearGradient>
<linearGradient id="paint2_linear_72_562" x1="114.356" y1="701.768" x2="8.65449" y2="678.883" gradientUnits="userSpaceOnUse">
<stop stop-color="#660066"/>
<stop offset="1" stop-color="#E1306C"/>
</linearGradient>
<linearGradient id="paint3_linear_72_562" x1="2.74814" y1="579.337" x2="15.7806" y2="686.7" gradientUnits="userSpaceOnUse">
<stop stop-color="#660066"/>
<stop offset="1" stop-color="#E1306C"/>
</linearGradient>
<linearGradient id="paint4_linear_72_562" x1="110.045" y1="705.698" x2="4.34297" y2="682.814" gradientUnits="userSpaceOnUse">
<stop stop-color="#E1306C"/>
<stop offset="1" stop-color="#660066"/>
</linearGradient>
<linearGradient id="paint5_linear_72_562" x1="-1.56436" y1="583.267" x2="11.4681" y2="690.63" gradientUnits="userSpaceOnUse">
<stop stop-color="#E1306C"/>
<stop offset="1" stop-color="#660066"/>
</linearGradient>
<linearGradient id="paint6_linear_72_562" x1="102.998" y1="710.93" x2="-1.57904" y2="688.289" gradientUnits="userSpaceOnUse">
<stop stop-color="#660066"/>
<stop offset="1" stop-color="#E1306C"/>
</linearGradient>
<linearGradient id="paint7_linear_72_562" x1="92.4795" y1="617.4" x2="39.9413" y2="651.237" gradientUnits="userSpaceOnUse">
<stop stop-color="#660066"/>
<stop offset="1" stop-color="#E1306C"/>
</linearGradient>
<linearGradient id="paint8_linear_72_562" x1="-7.4244" y1="589.801" x2="5.46931" y2="696.021" gradientUnits="userSpaceOnUse">
<stop stop-color="#660066"/>
<stop offset="1" stop-color="#E1306C"/>
</linearGradient>
<clipPath id="clip0_72_562">
<rect width="395" height="714" rx="40" fill="white"/>
</clipPath>
</defs>
</svg>
