<svg width="41" height="41" viewBox="0 0 41 41" fill="none" xmlns="http://www.w3.org/2000/svg">
<path d="M36.3163 17.4833L34.6496 16.5666L19.6496 8.2333H19.4663C19.3641 8.1901 19.2581 8.15662 19.1496 8.1333H18.833H18.533C18.4191 8.15663 18.3075 8.1901 18.1996 8.2333H18.0163L3.0163 16.5666C2.7598 16.712 2.54646 16.9228 2.39802 17.1775C2.24959 17.4323 2.17139 17.7218 2.17139 18.0166C2.17139 18.3115 2.24959 18.601 2.39802 18.8557C2.54646 19.1105 2.7598 19.3213 3.0163 19.4666L7.1663 21.7666V29.6666C7.1663 30.9927 7.69309 32.2645 8.63077 33.2022C9.56845 34.1399 10.8402 34.6666 12.1663 34.6666H25.4996C26.8257 34.6666 28.0975 34.1399 29.0352 33.2022C29.9729 32.2645 30.4996 30.9927 30.4996 29.6666V21.7666L33.833 19.9V24.6666C33.833 25.1087 34.0086 25.5326 34.3211 25.8451C34.6337 26.1577 35.0576 26.3333 35.4996 26.3333C35.9417 26.3333 36.3656 26.1577 36.6781 25.8451C36.9907 25.5326 37.1663 25.1087 37.1663 24.6666V18.9333C37.1658 18.638 37.0868 18.3481 36.9375 18.0933C36.7881 17.8385 36.5737 17.628 36.3163 17.4833ZM27.1663 29.6666C27.1663 30.1087 26.9907 30.5326 26.6781 30.8451C26.3656 31.1577 25.9417 31.3333 25.4996 31.3333H12.1663C11.7243 31.3333 11.3004 31.1577 10.9878 30.8451C10.6752 30.5326 10.4996 30.1087 10.4996 29.6666V23.6166L18.0163 27.7833L18.2663 27.8833H18.4163C18.5546 27.9007 18.6946 27.9007 18.833 27.8833C18.9713 27.9007 19.1113 27.9007 19.2496 27.8833H19.3996C19.4881 27.8646 19.5727 27.8308 19.6496 27.7833L27.1663 23.6166V29.6666ZM18.833 24.4333L7.2663 18L18.833 11.5666L30.3996 18L18.833 24.4333Z" fill="#1B1B1B"/>
</svg>
