<svg width="40" height="41" viewBox="0 0 40 41" fill="none" xmlns="http://www.w3.org/2000/svg">
<path d="M35.8163 17.4834L34.1496 16.5667L19.1496 8.23336H18.9663C18.8641 8.19016 18.7581 8.15668 18.6496 8.13336H18.333H18.033C17.9191 8.15669 17.8075 8.19016 17.6996 8.23336H17.5163L2.5163 16.5667C2.2598 16.7121 2.04646 16.9229 1.89802 17.1776C1.74959 17.4323 1.67139 17.7219 1.67139 18.0167C1.67139 18.3115 1.74959 18.6011 1.89802 18.8558C2.04646 19.1105 2.2598 19.3213 2.5163 19.4667L6.6663 21.7667V29.6667C6.6663 30.9928 7.19309 32.2645 8.13077 33.2022C9.06845 34.1399 10.3402 34.6667 11.6663 34.6667H24.9996C26.3257 34.6667 27.5975 34.1399 28.5352 33.2022C29.4729 32.2645 29.9996 30.9928 29.9996 29.6667V21.7667L33.333 19.9V24.6667C33.333 25.1087 33.5086 25.5326 33.8211 25.8452C34.1337 26.1578 34.5576 26.3334 34.9996 26.3334C35.4417 26.3334 35.8656 26.1578 36.1781 25.8452C36.4907 25.5326 36.6663 25.1087 36.6663 24.6667V18.9334C36.6658 18.638 36.5868 18.3481 36.4375 18.0934C36.2881 17.8386 36.0737 17.6281 35.8163 17.4834ZM26.6663 29.6667C26.6663 30.1087 26.4907 30.5326 26.1781 30.8452C25.8656 31.1578 25.4417 31.3334 24.9996 31.3334H11.6663C11.2243 31.3334 10.8004 31.1578 10.4878 30.8452C10.1752 30.5326 9.99963 30.1087 9.99963 29.6667V23.6167L17.5163 27.7834L17.7663 27.8834H17.9163C18.0546 27.9008 18.1946 27.9008 18.333 27.8834C18.4713 27.9008 18.6113 27.9008 18.7496 27.8834H18.8996C18.9881 27.8647 19.0727 27.8309 19.1496 27.7834L26.6663 23.6167V29.6667ZM18.333 24.4334L6.7663 18L18.333 11.5667L29.8996 18L18.333 24.4334Z" fill="#FEFEFE"/>
</svg>
