<svg width="46" height="45" viewBox="0 0 46 45" fill="none" xmlns="http://www.w3.org/2000/svg">
<path d="M33.311 36.5164C31.1963 36.5164 29.1553 36.2582 27.1881 35.7418C25.2454 35.2008 23.6594 34.5123 22.4299 33.6762L24.8274 28.291C25.9831 29.0287 27.311 29.6434 28.811 30.1352C30.3356 30.6025 31.8479 30.8361 33.3479 30.8361C34.3561 30.8361 35.1676 30.75 35.7823 30.5779C36.3971 30.3811 36.8397 30.1352 37.1102 29.8402C37.4053 29.5205 37.5528 29.1516 37.5528 28.7336C37.5528 28.1434 37.2823 27.6762 36.7413 27.332C36.2004 26.9877 35.4995 26.7049 34.6389 26.4836C33.7782 26.2623 32.8192 26.041 31.7618 25.8197C30.729 25.5984 29.684 25.3156 28.6266 24.9713C27.5938 24.627 26.6471 24.1844 25.7864 23.6434C24.9258 23.0779 24.2249 22.3525 23.684 21.4672C23.143 20.5574 22.8725 19.4139 22.8725 18.0369C22.8725 16.4877 23.2905 15.0861 24.1266 13.832C24.9872 12.5779 26.2659 11.5697 27.9627 10.8074C29.6594 10.0451 31.7741 9.66393 34.3069 9.66393C36.0036 9.66393 37.6635 9.86065 39.2864 10.2541C40.934 10.6229 42.3971 11.1762 43.6758 11.9139L41.4258 17.3361C40.1963 16.6721 38.979 16.1803 37.7741 15.8607C36.5692 15.5164 35.4012 15.3443 34.27 15.3443C33.2618 15.3443 32.4504 15.4549 31.8356 15.6762C31.2208 15.8729 30.7782 16.1434 30.5077 16.4877C30.2372 16.832 30.102 17.2254 30.102 17.668C30.102 18.2336 30.3602 18.6885 30.8766 19.0328C31.4176 19.3525 32.1184 19.6229 32.979 19.8443C33.8643 20.041 34.8233 20.25 35.8561 20.4713C36.9135 20.6926 37.9586 20.9754 38.9913 21.3197C40.0487 21.6393 41.0077 22.082 41.8684 22.6475C42.729 23.1885 43.4176 23.9139 43.934 24.8238C44.4749 25.709 44.7454 26.8279 44.7454 28.1803C44.7454 29.6803 44.3151 31.0697 43.4545 32.3484C42.6184 33.6025 41.352 34.6107 39.6553 35.373C37.9831 36.1352 35.8684 36.5164 33.311 36.5164Z" fill="#FEFEFE"/>
<path d="M0.483607 36L11.8811 10.1803H19.0738L30.5082 36H22.9098L13.9836 13.7582H16.8607L7.93443 36H0.483607ZM6.71721 30.9836L8.59836 25.5984H21.2131L23.0943 30.9836H6.71721Z" fill="#FEFEFE"/>
</svg>
