<svg width="62" height="61" viewBox="0 0 62 61" fill="none" xmlns="http://www.w3.org/2000/svg">
<path d="M44.8 48.7C41.9333 48.7 39.1667 48.35 36.5 47.65C33.8667 46.9167 31.7167 45.9833 30.05 44.85L33.3 37.55C34.8667 38.55 36.6667 39.3833 38.7 40.05C40.7667 40.6833 42.8167 41 44.85 41C46.2167 41 47.3167 40.8833 48.15 40.65C48.9833 40.3833 49.5833 40.05 49.95 39.65C50.35 39.2167 50.55 38.7167 50.55 38.15C50.55 37.35 50.1833 36.7167 49.45 36.25C48.7167 35.7833 47.7667 35.4 46.6 35.1C45.4333 34.8 44.1333 34.5 42.7 34.2C41.3 33.9 39.8833 33.5167 38.45 33.05C37.05 32.5833 35.7667 31.9833 34.6 31.25C33.4333 30.4833 32.4833 29.5 31.75 28.3C31.0167 27.0667 30.65 25.5167 30.65 23.65C30.65 21.55 31.2167 19.65 32.35 17.95C33.5167 16.25 35.25 14.8833 37.55 13.85C39.85 12.8167 42.7167 12.3 46.15 12.3C48.45 12.3 50.7 12.5667 52.9 13.1C55.1333 13.6 57.1167 14.35 58.85 15.35L55.8 22.7C54.1333 21.8 52.4833 21.1333 50.85 20.7C49.2167 20.2333 47.6333 20 46.1 20C44.7333 20 43.6333 20.15 42.8 20.45C41.9667 20.7167 41.3667 21.0833 41 21.55C40.6333 22.0167 40.45 22.55 40.45 23.15C40.45 23.9167 40.8 24.5333 41.5 25C42.2333 25.4333 43.1833 25.8 44.35 26.1C45.55 26.3667 46.85 26.65 48.25 26.95C49.6833 27.25 51.1 27.6333 52.5 28.1C53.9333 28.5333 55.2333 29.1333 56.4 29.9C57.5667 30.6333 58.5 31.6167 59.2 32.85C59.9333 34.05 60.3 35.5667 60.3 37.4C60.3 39.4333 59.7167 41.3167 58.55 43.05C57.4167 44.75 55.7 46.1167 53.4 47.15C51.1333 48.1833 48.2667 48.7 44.8 48.7Z" fill="#731370"/>
<path d="M0.3 48L15.75 13H25.5L41 48H30.7L18.6 17.85H22.5L10.4 48H0.3ZM8.75 41.2L11.3 33.9H28.4L30.95 41.2H8.75Z" fill="black"/>
</svg>
