<svg width="392" height="205" viewBox="0 0 392 205" fill="none" xmlns="http://www.w3.org/2000/svg">
<rect y="150" width="392" height="55" rx="27.5" fill="url(#paint0_linear_56_549)"/>
<rect x="336" y="85" width="56" height="56" rx="28" fill="url(#paint1_linear_56_549)"/>
<rect y="85" width="56" height="56" rx="28" fill="url(#paint2_linear_56_549)"/>
<path d="M316.114 61.4763C276.621 54.9822 197.636 69.5861 197.636 179.954C237.129 185.287 316.114 169.057 316.114 61.4763Z" fill="url(#paint3_linear_56_549)"/>
<path d="M79 61.4763C118.493 54.9822 197.478 69.5861 197.478 179.954C157.985 185.287 79 169.057 79 61.4763Z" fill="url(#paint4_linear_56_549)"/>
<path d="M316.114 71.5052C276.621 65.011 197.636 79.6149 197.636 189.983C237.129 195.316 316.114 179.086 316.114 71.5052Z" fill="url(#paint5_linear_56_549)"/>
<path d="M79 71.5052C118.493 65.011 197.478 79.6149 197.478 189.983C157.985 195.316 79 179.086 79 71.5052Z" fill="url(#paint6_linear_56_549)"/>
<path d="M314.853 86.5016C275.78 80.0766 197.636 94.525 197.636 203.718C236.708 208.994 314.853 192.937 314.853 86.5016Z" fill="url(#paint7_linear_56_549)"/>
<path d="M198.228 0.531386C179.439 14.014 153.134 52.2529 198.228 97.3474C216.543 83.3902 242.184 44.4869 198.228 0.531386Z" fill="url(#paint8_linear_56_549)"/>
<path d="M80.2617 86.5016C119.334 80.0766 197.478 94.525 197.478 203.718C158.406 208.994 80.2617 192.937 80.2617 86.5016Z" fill="url(#paint9_linear_56_549)"/>
<defs>
<linearGradient id="paint0_linear_56_549" x1="196" y1="150" x2="196" y2="205" gradientUnits="userSpaceOnUse">
<stop stop-color="#660066"/>
<stop offset="1" stop-color="#3E023E"/>
</linearGradient>
<linearGradient id="paint1_linear_56_549" x1="364" y1="85" x2="364" y2="141" gradientUnits="userSpaceOnUse">
<stop stop-color="#660066"/>
<stop offset="1" stop-color="#3E023E"/>
</linearGradient>
<linearGradient id="paint2_linear_56_549" x1="28" y1="85" x2="28" y2="141" gradientUnits="userSpaceOnUse">
<stop stop-color="#660066"/>
<stop offset="1" stop-color="#3E023E"/>
</linearGradient>
<linearGradient id="paint3_linear_56_549" x1="339.948" y1="60.1758" x2="188.467" y2="167.953" gradientUnits="userSpaceOnUse">
<stop stop-color="#660066"/>
<stop offset="1" stop-color="#E1306C"/>
</linearGradient>
<linearGradient id="paint4_linear_56_549" x1="55.1663" y1="60.1758" x2="206.647" y2="167.953" gradientUnits="userSpaceOnUse">
<stop stop-color="#660066"/>
<stop offset="1" stop-color="#E1306C"/>
</linearGradient>
<linearGradient id="paint5_linear_56_549" x1="339.948" y1="70.2046" x2="188.467" y2="177.981" gradientUnits="userSpaceOnUse">
<stop stop-color="#E1306C"/>
<stop offset="1" stop-color="#660066"/>
</linearGradient>
<linearGradient id="paint6_linear_56_549" x1="55.1663" y1="70.2046" x2="206.647" y2="177.981" gradientUnits="userSpaceOnUse">
<stop stop-color="#E1306C"/>
<stop offset="1" stop-color="#660066"/>
</linearGradient>
<linearGradient id="paint7_linear_56_549" x1="338.433" y1="85.2148" x2="188.564" y2="191.844" gradientUnits="userSpaceOnUse">
<stop stop-color="#660066"/>
<stop offset="1" stop-color="#E1306C"/>
</linearGradient>
<linearGradient id="paint8_linear_56_549" x1="207.435" y1="-9.73805" x2="189.578" y2="96.1901" gradientUnits="userSpaceOnUse">
<stop stop-color="#660066"/>
<stop offset="1" stop-color="#E1306C"/>
</linearGradient>
<linearGradient id="paint9_linear_56_549" x1="56.6817" y1="85.2148" x2="206.55" y2="191.844" gradientUnits="userSpaceOnUse">
<stop stop-color="#660066"/>
<stop offset="1" stop-color="#E1306C"/>
</linearGradient>
</defs>
</svg>
