<svg width="104" height="100" viewBox="0 0 104 100" fill="none" xmlns="http://www.w3.org/2000/svg">
<rect width="104" height="99.5" rx="7.5" fill="url(#paint0_linear_77_753)"/>
<g clip-path="url(#clip0_77_753)">
<path d="M18.1248 32.8616C18.3472 32.6692 18.5255 32.4311 18.6477 32.1637C18.7699 31.8963 18.8332 31.6057 18.8332 31.3116C18.8332 30.7591 18.6137 30.2292 18.223 29.8385C17.8323 29.4478 17.3024 29.2283 16.7498 29.2283C16.1973 29.2283 15.6674 29.4478 15.2767 29.8385C14.886 30.2292 14.6665 30.7591 14.6665 31.3116C14.6665 31.6057 14.7298 31.8963 14.852 32.1637C14.9742 32.4311 15.1525 32.6692 15.3748 32.8616C14.7916 33.1257 14.2967 33.5522 13.9494 34.0902C13.6021 34.6281 13.4171 35.2547 13.4165 35.8949C13.4165 36.0054 13.4604 36.1114 13.5385 36.1896C13.6167 36.2677 13.7227 36.3116 13.8332 36.3116C13.9437 36.3116 14.0497 36.2677 14.1278 36.1896C14.2059 36.1114 14.2498 36.0054 14.2498 35.8949C14.2498 35.2319 14.5132 34.596 14.9821 34.1272C15.4509 33.6583 16.0868 33.3949 16.7498 33.3949C17.4129 33.3949 18.0488 33.6583 18.5176 34.1272C18.9864 34.596 19.2498 35.2319 19.2498 35.8949C19.2498 36.0054 19.2937 36.1114 19.3719 36.1896C19.45 36.2677 19.556 36.3116 19.6665 36.3116C19.777 36.3116 19.883 36.2677 19.9611 36.1896C20.0393 36.1114 20.0832 36.0054 20.0832 35.8949C20.0826 35.2547 19.8975 34.6281 19.5503 34.0902C19.203 33.5522 18.7081 33.1257 18.1248 32.8616ZM16.7498 32.5616C16.5026 32.5616 16.2609 32.4883 16.0554 32.3509C15.8498 32.2136 15.6896 32.0184 15.595 31.79C15.5004 31.5616 15.4756 31.3102 15.5239 31.0677C15.5721 30.8253 15.6911 30.6025 15.866 30.4277C16.0408 30.2529 16.2635 30.1339 16.506 30.0856C16.7485 30.0374 16.9998 30.0621 17.2282 30.1568C17.4566 30.2514 17.6518 30.4116 17.7892 30.6171C17.9265 30.8227 17.9998 31.0644 17.9998 31.3116C17.9998 31.6431 17.8681 31.9611 17.6337 32.1955C17.3993 32.4299 17.0814 32.5616 16.7498 32.5616ZM20.8082 32.6949C21.0748 32.3947 21.249 32.0237 21.3098 31.6267C21.3705 31.2298 21.3152 30.8237 21.1506 30.4574C20.9859 30.0912 20.7189 29.7803 20.3817 29.5622C20.0445 29.3441 19.6514 29.2282 19.2498 29.2283C19.1393 29.2283 19.0333 29.2722 18.9552 29.3503C18.8771 29.4285 18.8332 29.5344 18.8332 29.6449C18.8332 29.7554 18.8771 29.8614 18.9552 29.9396C19.0333 30.0177 19.1393 30.0616 19.2498 30.0616C19.5814 30.0616 19.8993 30.1933 20.1337 30.4277C20.3681 30.6621 20.4998 30.9801 20.4998 31.3116C20.4992 31.5305 20.4412 31.7453 20.3315 31.9347C20.2218 32.1241 20.0644 32.2813 19.8748 32.3908C19.8131 32.4264 19.7615 32.4773 19.725 32.5386C19.6885 32.5999 19.6684 32.6695 19.6665 32.7408C19.6648 32.8115 19.6811 32.8815 19.7139 32.9442C19.7467 33.0069 19.7949 33.0602 19.854 33.0991L20.0165 33.2074L20.0707 33.2366C20.5729 33.4748 20.9966 33.8516 21.2919 34.3226C21.5872 34.7935 21.7417 35.3391 21.7373 35.8949C21.7373 36.0054 21.7812 36.1114 21.8594 36.1896C21.9375 36.2677 22.0435 36.3116 22.154 36.3116C22.2645 36.3116 22.3705 36.2677 22.4486 36.1896C22.5268 36.1114 22.5707 36.0054 22.5707 35.8949C22.5741 35.2555 22.4139 34.6259 22.1054 34.0658C21.797 33.5057 21.3504 33.0338 20.8082 32.6949Z" fill="#FEFEFE"/>
</g>
<path d="M17.8137 48.0738H15.2863L14.8811 49.27H13.1543L15.6046 42.498H17.5147L19.9649 49.27H18.2189L17.8137 48.0738ZM17.3893 46.8005L16.55 44.3213L15.7204 46.8005H17.3893ZM20.3827 46.5786C20.3827 46.0191 20.4952 45.5303 20.7203 45.1123C20.9518 44.6943 21.2702 44.3727 21.6753 44.1476C22.0869 43.9225 22.5564 43.81 23.0838 43.81C23.759 43.81 24.3217 43.9868 24.7719 44.3405C25.2285 44.6943 25.5276 45.1927 25.6691 45.8358H23.9134C23.7655 45.4242 23.4793 45.2184 23.0548 45.2184C22.7526 45.2184 22.5114 45.3374 22.3313 45.5753C22.1512 45.8068 22.0612 46.1413 22.0612 46.5786C22.0612 47.0159 22.1512 47.3535 22.3313 47.5915C22.5114 47.823 22.7526 47.9388 23.0548 47.9388C23.4793 47.9388 23.7655 47.733 23.9134 47.3214H25.6691C25.5276 47.9516 25.2285 48.4468 24.7719 48.807C24.3153 49.1671 23.7526 49.3472 23.0838 49.3472C22.5564 49.3472 22.0869 49.2346 21.6753 49.0096C21.2702 48.7845 20.9518 48.4629 20.7203 48.0449C20.4952 47.6269 20.3827 47.1381 20.3827 46.5786ZM29.5516 47.8712V49.27H28.7123C28.1142 49.27 27.648 49.1253 27.3135 48.8359C26.9791 48.5401 26.8119 48.061 26.8119 47.3986V45.257H26.1559V43.8872H26.8119V42.5752H28.4615V43.8872H29.5419V45.257H28.4615V47.4179C28.4615 47.5786 28.5001 47.6944 28.5773 47.7651C28.6544 47.8359 28.7831 47.8712 28.9631 47.8712H29.5516ZM31.3 43.3276C31.0106 43.3276 30.7727 43.244 30.5862 43.0768C30.4061 42.9032 30.3161 42.691 30.3161 42.4401C30.3161 42.1829 30.4061 41.9707 30.5862 41.8035C30.7727 41.6298 31.0106 41.543 31.3 41.543C31.583 41.543 31.8145 41.6298 31.9946 41.8035C32.1811 41.9707 32.2744 42.1829 32.2744 42.4401C32.2744 42.691 32.1811 42.9032 31.9946 43.0768C31.8145 43.244 31.583 43.3276 31.3 43.3276ZM32.12 43.8872V49.27H30.4704V43.8872H32.12ZM35.7368 47.7265L36.904 43.8872H38.6597L36.7497 49.27H34.7142L32.8042 43.8872H34.5695L35.7368 47.7265ZM44.4282 46.4918C44.4282 46.6461 44.4186 46.8069 44.3993 46.9741H40.666C40.6917 47.3085 40.7979 47.5658 40.9844 47.7458C41.1773 47.9195 41.412 48.0063 41.6886 48.0063C42.1002 48.0063 42.3863 47.8327 42.5471 47.4854H44.3028C44.2128 47.8391 44.0488 48.1574 43.8108 48.4404C43.5793 48.7234 43.2867 48.9452 42.933 49.106C42.5793 49.2668 42.1838 49.3472 41.7465 49.3472C41.2191 49.3472 40.7496 49.2346 40.338 49.0096C39.9264 48.7845 39.6049 48.4629 39.3734 48.0449C39.1418 47.6269 39.0261 47.1381 39.0261 46.5786C39.0261 46.0191 39.1386 45.5303 39.3637 45.1123C39.5952 44.6943 39.9168 44.3727 40.3284 44.1476C40.74 43.9225 41.2127 43.81 41.7465 43.81C42.2674 43.81 42.7304 43.9193 43.1356 44.138C43.5407 44.3566 43.8559 44.6685 44.081 45.0737C44.3125 45.4789 44.4282 45.9516 44.4282 46.4918ZM42.7401 46.0577C42.7401 45.7747 42.6436 45.5496 42.4507 45.3824C42.2577 45.2152 42.0166 45.1316 41.7272 45.1316C41.4506 45.1316 41.2159 45.212 41.0229 45.3727C40.8364 45.5335 40.7207 45.7618 40.6757 46.0577H42.7401ZM48.9923 42.498V49.27H47.3428V42.498H48.9923ZM53.4677 43.8293C54.0979 43.8293 54.5995 44.0351 54.9725 44.4467C55.352 44.8518 55.5417 45.4113 55.5417 46.1252V49.27H53.9018V46.3471C53.9018 45.9869 53.8085 45.7072 53.622 45.5078C53.4355 45.3084 53.1847 45.2088 52.8696 45.2088C52.5544 45.2088 52.3036 45.3084 52.1171 45.5078C51.9306 45.7072 51.8374 45.9869 51.8374 46.3471V49.27H50.1878V43.8872H51.8374V44.601C52.0046 44.3631 52.2297 44.1766 52.5126 44.0415C52.7956 43.9 53.1139 43.8293 53.4677 43.8293ZM16.8008 60.3375C16.1641 60.3375 15.5789 60.1896 15.0451 59.8938C14.5177 59.598 14.0965 59.1864 13.7814 58.659C13.4727 58.1252 13.3183 57.5271 13.3183 56.8647C13.3183 56.2023 13.4727 55.6074 13.7814 55.0801C14.0965 54.5527 14.5177 54.1411 15.0451 53.8453C15.5789 53.5495 16.1641 53.4016 16.8008 53.4016C17.4375 53.4016 18.0195 53.5495 18.5469 53.8453C19.0806 54.1411 19.4987 54.5527 19.8009 55.0801C20.1096 55.6074 20.264 56.2023 20.264 56.8647C20.264 57.5271 20.1096 58.1252 19.8009 58.659C19.4922 59.1864 19.0742 59.598 18.5469 59.8938C18.0195 60.1896 17.4375 60.3375 16.8008 60.3375ZM16.8008 58.8327C17.341 58.8327 17.7719 58.6526 18.0935 58.2924C18.4215 57.9323 18.5854 57.4564 18.5854 56.8647C18.5854 56.2666 18.4215 55.7907 18.0935 55.437C17.7719 55.0769 17.341 54.8968 16.8008 54.8968C16.2542 54.8968 15.8168 55.0737 15.4889 55.4274C15.1673 55.7811 15.0065 56.2602 15.0065 56.8647C15.0065 57.4628 15.1673 57.9419 15.4889 58.3021C15.8168 58.6558 16.2542 58.8327 16.8008 58.8327ZM22.8313 55.7843C23.0242 55.4885 23.2654 55.2569 23.5548 55.0897C23.8442 54.9161 24.1657 54.8293 24.5195 54.8293V56.5753H24.0661C23.6545 56.5753 23.3458 56.6654 23.14 56.8454C22.9342 57.0191 22.8313 57.3278 22.8313 57.7715V60.27H21.1817V54.8872H22.8313V55.7843ZM27.353 54.81C27.7325 54.81 28.0637 54.8872 28.3466 55.0415C28.636 55.1958 28.8579 55.3984 29.0123 55.6492V54.8872H30.6619V60.2604C30.6619 60.7556 30.5622 61.2025 30.3628 61.6013C30.1699 62.0064 29.8708 62.328 29.4657 62.5659C29.0669 62.8039 28.5685 62.9229 27.9704 62.9229C27.173 62.9229 26.5266 62.7331 26.0314 62.3537C25.5362 61.9807 25.2533 61.4726 25.1825 60.8295H26.8128C26.8643 61.0353 26.9865 61.1961 27.1794 61.3119C27.3723 61.4341 27.6103 61.4952 27.8932 61.4952C28.2341 61.4952 28.5042 61.3955 28.7036 61.1961C28.9094 61.0032 29.0123 60.6913 29.0123 60.2604V59.4983C28.8515 59.7491 28.6296 59.9549 28.3466 60.1157C28.0637 60.27 27.7325 60.3472 27.353 60.3472C26.9093 60.3472 26.5073 60.2346 26.1472 60.0096C25.787 59.778 25.5009 59.4533 25.2886 59.0352C25.0828 58.6108 24.9799 58.122 24.9799 57.5689C24.9799 57.0159 25.0828 56.5303 25.2886 56.1123C25.5009 55.6943 25.787 55.3727 26.1472 55.1476C26.5073 54.9225 26.9093 54.81 27.353 54.81ZM29.0123 57.5786C29.0123 57.167 28.8965 56.8422 28.665 56.6043C28.4399 56.3663 28.1634 56.2473 27.8354 56.2473C27.5074 56.2473 27.2276 56.3663 26.9961 56.6043C26.771 56.8358 26.6585 57.1573 26.6585 57.5689C26.6585 57.9805 26.771 58.3085 26.9961 58.5529C27.2276 58.7909 27.5074 58.9098 27.8354 58.9098C28.1634 58.9098 28.4399 58.7909 28.665 58.5529C28.8965 58.315 29.0123 57.9902 29.0123 57.5786ZM31.5273 57.5689C31.5273 57.0159 31.6302 56.5303 31.836 56.1123C32.0482 55.6943 32.3344 55.3727 32.6945 55.1476C33.0547 54.9225 33.4566 54.81 33.9004 54.81C34.2798 54.81 34.611 54.8872 34.894 55.0415C35.1834 55.1958 35.4052 55.3984 35.5596 55.6492V54.8872H37.2092V60.27H35.5596V59.5079C35.3988 59.7587 35.1737 59.9613 34.8843 60.1157C34.6014 60.27 34.2701 60.3472 33.8907 60.3472C33.4534 60.3472 33.0547 60.2346 32.6945 60.0096C32.3344 59.778 32.0482 59.4533 31.836 59.0352C31.6302 58.6108 31.5273 58.122 31.5273 57.5689ZM35.5596 57.5786C35.5596 57.167 35.4438 56.8422 35.2123 56.6043C34.9872 56.3663 34.7107 56.2473 34.3827 56.2473C34.0547 56.2473 33.775 56.3663 33.5434 56.6043C33.3183 56.8358 33.2058 57.1573 33.2058 57.5689C33.2058 57.9805 33.3183 58.3085 33.5434 58.5529C33.775 58.7909 34.0547 58.9098 34.3827 58.9098C34.7107 58.9098 34.9872 58.7909 35.2123 58.5529C35.4438 58.315 35.5596 57.9902 35.5596 57.5786ZM41.6825 54.8293C42.3127 54.8293 42.8143 55.0351 43.1874 55.4467C43.5668 55.8518 43.7565 56.4113 43.7565 57.1252V60.27H42.1166V57.3471C42.1166 56.9869 42.0233 56.7072 41.8368 56.5078C41.6503 56.3084 41.3995 56.2088 41.0844 56.2088C40.7692 56.2088 40.5184 56.3084 40.3319 56.5078C40.1454 56.7072 40.0522 56.9869 40.0522 57.3471V60.27H38.4026V54.8872H40.0522V55.601C40.2194 55.3631 40.4445 55.1766 40.7274 55.0415C41.0104 54.9 41.3288 54.8293 41.6825 54.8293ZM45.7324 54.3276C45.443 54.3276 45.2051 54.244 45.0186 54.0768C44.8385 53.9032 44.7485 53.691 44.7485 53.4401C44.7485 53.1829 44.8385 52.9707 45.0186 52.8035C45.2051 52.6298 45.443 52.543 45.7324 52.543C46.0154 52.543 46.2469 52.6298 46.427 52.8035C46.6135 52.9707 46.7067 53.1829 46.7067 53.4401C46.7067 53.691 46.6135 53.9032 46.427 54.0768C46.2469 54.244 46.0154 54.3276 45.7324 54.3276ZM46.5524 54.8872V60.27H44.9028V54.8872H46.5524ZM49.2913 58.9098H51.6258V60.27H47.4488V58.9581L49.6868 56.2473H47.4681V54.8872H51.5776V56.1991L49.2913 58.9098ZM52.2055 57.5689C52.2055 57.0159 52.3084 56.5303 52.5142 56.1123C52.7264 55.6943 53.0126 55.3727 53.3728 55.1476C53.7329 54.9225 54.1349 54.81 54.5786 54.81C54.9581 54.81 55.2893 54.8872 55.5722 55.0415C55.8616 55.1958 56.0835 55.3984 56.2379 55.6492V54.8872H57.8874V60.27H56.2379V59.5079C56.0771 59.7587 55.852 59.9613 55.5626 60.1157C55.2796 60.27 54.9484 60.3472 54.569 60.3472C54.1317 60.3472 53.7329 60.2346 53.3728 60.0096C53.0126 59.778 52.7264 59.4533 52.5142 59.0352C52.3084 58.6108 52.2055 58.122 52.2055 57.5689ZM56.2379 57.5786C56.2379 57.167 56.1221 56.8422 55.8906 56.6043C55.6655 56.3663 55.3889 56.2473 55.061 56.2473C54.733 56.2473 54.4532 56.3663 54.2217 56.6043C53.9966 56.8358 53.8841 57.1573 53.8841 57.5689C53.8841 57.9805 53.9966 58.3085 54.2217 58.5529C54.4532 58.7909 54.733 58.9098 55.061 58.9098C55.3889 58.9098 55.6655 58.7909 55.8906 58.5529C56.1221 58.315 56.2379 57.9902 56.2379 57.5786ZM62.081 58.8712V60.27H61.2417C60.6436 60.27 60.1774 60.1253 59.8429 59.8359C59.5085 59.5401 59.3413 59.061 59.3413 58.3986V56.257H58.6853V54.8872H59.3413V53.5752H60.9909V54.8872H62.0713V56.257H60.9909V58.4179C60.9909 58.5786 61.0295 58.6944 61.1067 58.7651C61.1838 58.8359 61.3124 58.8712 61.4925 58.8712H62.081ZM63.8294 54.3276C63.54 54.3276 63.3021 54.244 63.1156 54.0768C62.9355 53.9032 62.8455 53.691 62.8455 53.4401C62.8455 53.1829 62.9355 52.9707 63.1156 52.8035C63.3021 52.6298 63.54 52.543 63.8294 52.543C64.1124 52.543 64.3439 52.6298 64.524 52.8035C64.7105 52.9707 64.8038 53.1829 64.8038 53.4401C64.8038 53.691 64.7105 53.9032 64.524 54.0768C64.3439 54.244 64.1124 54.3276 63.8294 54.3276ZM64.6494 54.8872V60.27H62.9998V54.8872H64.6494ZM68.2951 60.3472C67.7678 60.3472 67.2919 60.2346 66.8674 60.0096C66.4494 59.7845 66.1182 59.4629 65.8738 59.0449C65.6358 58.6269 65.5169 58.1381 65.5169 57.5786C65.5169 57.0255 65.639 56.54 65.8834 56.1219C66.1278 55.6975 66.4622 55.3727 66.8867 55.1476C67.3111 54.9225 67.7871 54.81 68.3144 54.81C68.8418 54.81 69.3177 54.9225 69.7421 55.1476C70.1666 55.3727 70.501 55.6975 70.7454 56.1219C70.9898 56.54 71.112 57.0255 71.112 57.5786C71.112 58.1317 70.9865 58.6204 70.7357 59.0449C70.4913 59.4629 70.1537 59.7845 69.7228 60.0096C69.2984 60.2346 68.8225 60.3472 68.2951 60.3472ZM68.2951 58.9195C68.6102 58.9195 68.8771 58.8037 69.0958 58.5722C69.3209 58.3407 69.4334 58.0095 69.4334 57.5786C69.4334 57.1477 69.3241 56.8165 69.1054 56.585C68.8932 56.3535 68.6295 56.2377 68.3144 56.2377C67.9928 56.2377 67.726 56.3535 67.5137 56.585C67.3015 56.8101 67.1954 57.1413 67.1954 57.5786C67.1954 58.0095 67.2983 58.3407 67.5041 58.5722C67.7163 58.8037 67.98 58.9195 68.2951 58.9195ZM75.267 54.8293C75.8972 54.8293 76.3989 55.0351 76.7719 55.4467C77.1513 55.8518 77.341 56.4113 77.341 57.1252V60.27H75.7011V57.3471C75.7011 56.9869 75.6078 56.7072 75.4213 56.5078C75.2348 56.3084 74.984 56.2088 74.6689 56.2088C74.3537 56.2088 74.1029 56.3084 73.9164 56.5078C73.7299 56.7072 73.6367 56.9869 73.6367 57.3471V60.27H71.9871V54.8872H73.6367V55.601C73.8039 55.3631 74.029 55.1766 74.3119 55.0415C74.5949 54.9 74.9133 54.8293 75.267 54.8293Z" fill="white"/>
<path d="M17.765 68.265L16.755 71.75H16.245L15.435 68.945L14.595 71.75L14.09 71.755L13.115 68.265H13.6L14.36 71.22L15.2 68.265H15.71L16.51 71.21L17.275 68.265H17.765ZM18.4979 68.565C18.4113 68.565 18.3379 68.535 18.2779 68.475C18.2179 68.415 18.1879 68.3417 18.1879 68.255C18.1879 68.1683 18.2179 68.095 18.2779 68.035C18.3379 67.975 18.4113 67.945 18.4979 67.945C18.5813 67.945 18.6513 67.975 18.7079 68.035C18.7679 68.095 18.7979 68.1683 18.7979 68.255C18.7979 68.3417 18.7679 68.415 18.7079 68.475C18.6513 68.535 18.5813 68.565 18.4979 68.565ZM18.7179 69.01V71.75H18.2629V69.01H18.7179ZM20.0484 69.385V71C20.0484 71.1333 20.0767 71.2283 20.1334 71.285C20.1901 71.3383 20.2884 71.365 20.4284 71.365H20.7634V71.75H20.3534C20.1001 71.75 19.9101 71.6917 19.7834 71.575C19.6567 71.4583 19.5934 71.2667 19.5934 71V69.385H19.2384V69.01H19.5934V68.32H20.0484V69.01H20.7634V69.385H20.0484ZM22.6747 68.96C22.8814 68.96 23.068 69.005 23.2347 69.095C23.4014 69.1817 23.5314 69.3133 23.6247 69.49C23.7214 69.6667 23.7697 69.8817 23.7697 70.135V71.75H23.3197V70.2C23.3197 69.9267 23.2514 69.7183 23.1147 69.575C22.978 69.4283 22.7914 69.355 22.5547 69.355C22.3147 69.355 22.123 69.43 21.9797 69.58C21.8397 69.73 21.7697 69.9483 21.7697 70.235V71.75H21.3147V68.05H21.7697V69.4C21.8597 69.26 21.983 69.1517 22.1397 69.075C22.2997 68.9983 22.478 68.96 22.6747 68.96ZM29.1409 68.96C29.3543 68.96 29.5443 69.005 29.7109 69.095C29.8776 69.1817 30.0093 69.3133 30.1059 69.49C30.2026 69.6667 30.2509 69.8817 30.2509 70.135V71.75H29.8009V70.2C29.8009 69.9267 29.7326 69.7183 29.5959 69.575C29.4626 69.4283 29.2809 69.355 29.0509 69.355C28.8143 69.355 28.6259 69.4317 28.4859 69.585C28.3459 69.735 28.2759 69.9533 28.2759 70.24V71.75H27.8259V70.2C27.8259 69.9267 27.7576 69.7183 27.6209 69.575C27.4876 69.4283 27.3059 69.355 27.0759 69.355C26.8393 69.355 26.6509 69.4317 26.5109 69.585C26.3709 69.735 26.3009 69.9533 26.3009 70.24V71.75H25.8459V69.01H26.3009V69.405C26.3909 69.2617 26.5109 69.1517 26.6609 69.075C26.8143 68.9983 26.9826 68.96 27.1659 68.96C27.3959 68.96 27.5993 69.0117 27.7759 69.115C27.9526 69.2183 28.0843 69.37 28.1709 69.57C28.2476 69.3767 28.3743 69.2267 28.5509 69.12C28.7276 69.0133 28.9243 68.96 29.1409 68.96ZM33.3573 69.01L31.7073 73.04H31.2373L31.7773 71.72L30.6723 69.01H31.1773L32.0373 71.23L32.8873 69.01H33.3573ZM35.2327 68.775H35.8077L37.0177 69.92L35.8077 71.07H35.2327L36.4427 69.92L35.2327 68.775ZM37.713 71.385C38.1363 71.045 38.468 70.7667 38.708 70.55C38.948 70.33 39.1497 70.1017 39.313 69.865C39.4797 69.625 39.563 69.39 39.563 69.16C39.563 68.9433 39.5097 68.7733 39.403 68.65C39.2997 68.5233 39.1313 68.46 38.898 68.46C38.6713 68.46 38.4947 68.5317 38.368 68.675C38.2447 68.815 38.178 69.0033 38.168 69.24H37.728C37.7413 68.8667 37.8547 68.5783 38.068 68.375C38.2813 68.1717 38.5563 68.07 38.893 68.07C39.2363 68.07 39.508 68.165 39.708 68.355C39.9113 68.545 40.013 68.8067 40.013 69.14C40.013 69.4167 39.9297 69.6867 39.763 69.95C39.5997 70.21 39.413 70.44 39.203 70.64C38.993 70.8367 38.7247 71.0667 38.398 71.33H40.118V71.71H37.713V71.385ZM40.634 69.045C40.6573 68.7383 40.7757 68.4983 40.989 68.325C41.2023 68.1517 41.479 68.065 41.819 68.065C42.0457 68.065 42.2407 68.1067 42.404 68.19C42.5707 68.27 42.6957 68.38 42.779 68.52C42.8657 68.66 42.909 68.8183 42.909 68.995C42.909 69.2017 42.849 69.38 42.729 69.53C42.6123 69.68 42.459 69.7767 42.269 69.82V69.845C42.4857 69.8983 42.6573 70.0033 42.784 70.16C42.9107 70.3167 42.974 70.5217 42.974 70.775C42.974 70.965 42.9307 71.1367 42.844 71.29C42.7573 71.44 42.6273 71.5583 42.454 71.645C42.2807 71.7317 42.0723 71.775 41.829 71.775C41.4757 71.775 41.1857 71.6833 40.959 71.5C40.7323 71.3133 40.6057 71.05 40.579 70.71H41.019C41.0423 70.91 41.124 71.0733 41.264 71.2C41.404 71.3267 41.5907 71.39 41.824 71.39C42.0573 71.39 42.234 71.33 42.354 71.21C42.4773 71.0867 42.539 70.9283 42.539 70.735C42.539 70.485 42.4557 70.305 42.289 70.195C42.1223 70.085 41.8707 70.03 41.534 70.03H41.419V69.65H41.539C41.8457 69.6467 42.0773 69.5967 42.234 69.5C42.3907 69.4 42.469 69.2467 42.469 69.04C42.469 68.8633 42.4107 68.7217 42.294 68.615C42.1807 68.5083 42.0173 68.455 41.804 68.455C41.5973 68.455 41.4307 68.5083 41.304 68.615C41.1773 68.7217 41.1023 68.865 41.079 69.045H40.634ZM47.4363 68.265L46.3013 70.435V71.75H45.8463V70.435L44.7063 68.265H45.2113L46.0713 70.03L46.9313 68.265H47.4363ZM50.4163 70.275C50.4163 70.3617 50.4113 70.4533 50.4013 70.55H48.2113C48.2279 70.82 48.3196 71.0317 48.4863 71.185C48.6563 71.335 48.8613 71.41 49.1013 71.41C49.2979 71.41 49.4613 71.365 49.5913 71.275C49.7246 71.1817 49.8179 71.0583 49.8713 70.905H50.3613C50.2879 71.1683 50.1413 71.3833 49.9213 71.55C49.7013 71.7133 49.4279 71.795 49.1013 71.795C48.8413 71.795 48.6079 71.7367 48.4013 71.62C48.1979 71.5033 48.0379 71.3383 47.9213 71.125C47.8046 70.9083 47.7463 70.6583 47.7463 70.375C47.7463 70.0917 47.8029 69.8433 47.9163 69.63C48.0296 69.4167 48.1879 69.2533 48.3913 69.14C48.5979 69.0233 48.8346 68.965 49.1013 68.965C49.3613 68.965 49.5913 69.0217 49.7913 69.135C49.9913 69.2483 50.1446 69.405 50.2513 69.605C50.3613 69.8017 50.4163 70.025 50.4163 70.275ZM49.9463 70.18C49.9463 70.0067 49.9079 69.8583 49.8313 69.735C49.7546 69.6083 49.6496 69.5133 49.5163 69.45C49.3863 69.3833 49.2413 69.35 49.0813 69.35C48.8513 69.35 48.6546 69.4233 48.4913 69.57C48.3313 69.7167 48.2396 69.92 48.2163 70.18H49.9463ZM50.8468 70.37C50.8468 70.09 50.9035 69.845 51.0168 69.635C51.1302 69.4217 51.2852 69.2567 51.4818 69.14C51.6818 69.0233 51.9035 68.965 52.1468 68.965C52.3868 68.965 52.5952 69.0167 52.7718 69.12C52.9485 69.2233 53.0802 69.3533 53.1668 69.51V69.01H53.6268V71.75H53.1668V71.24C53.0768 71.4 52.9418 71.5333 52.7618 71.64C52.5852 71.7433 52.3785 71.795 52.1418 71.795C51.8985 71.795 51.6785 71.735 51.4818 71.615C51.2852 71.495 51.1302 71.3267 51.0168 71.11C50.9035 70.8933 50.8468 70.6467 50.8468 70.37ZM53.1668 70.375C53.1668 70.1683 53.1252 69.9883 53.0418 69.835C52.9585 69.6817 52.8452 69.565 52.7018 69.485C52.5618 69.4017 52.4068 69.36 52.2368 69.36C52.0668 69.36 51.9118 69.4 51.7718 69.48C51.6318 69.56 51.5202 69.6767 51.4368 69.83C51.3535 69.9833 51.3118 70.1633 51.3118 70.37C51.3118 70.58 51.3535 70.7633 51.4368 70.92C51.5202 71.0733 51.6318 71.1917 51.7718 71.275C51.9118 71.355 52.0668 71.395 52.2368 71.395C52.4068 71.395 52.5618 71.355 52.7018 71.275C52.8452 71.1917 52.9585 71.0733 53.0418 70.92C53.1252 70.7633 53.1668 70.5817 53.1668 70.375ZM54.8507 69.455C54.9307 69.2983 55.0441 69.1767 55.1907 69.09C55.3407 69.0033 55.5224 68.96 55.7357 68.96V69.43H55.6157C55.1057 69.43 54.8507 69.7067 54.8507 70.26V71.75H54.3957V69.01H54.8507V69.455ZM57.231 71.795C57.021 71.795 56.8326 71.76 56.666 71.69C56.4993 71.6167 56.3676 71.5167 56.271 71.39C56.1743 71.26 56.121 71.1117 56.111 70.945H56.581C56.5943 71.0817 56.6576 71.1933 56.771 71.28C56.8876 71.3667 57.0393 71.41 57.226 71.41C57.3993 71.41 57.536 71.3717 57.636 71.295C57.736 71.2183 57.786 71.1217 57.786 71.005C57.786 70.885 57.7326 70.7967 57.626 70.74C57.5193 70.68 57.3543 70.6217 57.131 70.565C56.9276 70.5117 56.761 70.4583 56.631 70.405C56.5043 70.3483 56.3943 70.2667 56.301 70.16C56.211 70.05 56.166 69.9067 56.166 69.73C56.166 69.59 56.2076 69.4617 56.291 69.345C56.3743 69.2283 56.4926 69.1367 56.646 69.07C56.7993 69 56.9743 68.965 57.171 68.965C57.4743 68.965 57.7193 69.0417 57.906 69.195C58.0926 69.3483 58.1926 69.5583 58.206 69.825H57.751C57.741 69.6817 57.6826 69.5667 57.576 69.48C57.4726 69.3933 57.3326 69.35 57.156 69.35C56.9926 69.35 56.8626 69.385 56.766 69.455C56.6693 69.525 56.621 69.6167 56.621 69.73C56.621 69.82 56.6493 69.895 56.706 69.955C56.766 70.0117 56.8393 70.0583 56.926 70.095C57.016 70.1283 57.1393 70.1667 57.296 70.21C57.4926 70.2633 57.6526 70.3167 57.776 70.37C57.8993 70.42 58.0043 70.4967 58.091 70.6C58.181 70.7033 58.2276 70.8383 58.231 71.005C58.231 71.155 58.1893 71.29 58.106 71.41C58.0226 71.53 57.9043 71.625 57.751 71.695C57.601 71.7617 57.4276 71.795 57.231 71.795ZM62.7063 70.275C62.7063 70.3617 62.7013 70.4533 62.6913 70.55H60.5013C60.518 70.82 60.6096 71.0317 60.7763 71.185C60.9463 71.335 61.1513 71.41 61.3913 71.41C61.588 71.41 61.7513 71.365 61.8813 71.275C62.0146 71.1817 62.108 71.0583 62.1613 70.905H62.6513C62.578 71.1683 62.4313 71.3833 62.2113 71.55C61.9913 71.7133 61.718 71.795 61.3913 71.795C61.1313 71.795 60.898 71.7367 60.6913 71.62C60.488 71.5033 60.328 71.3383 60.2113 71.125C60.0946 70.9083 60.0363 70.6583 60.0363 70.375C60.0363 70.0917 60.093 69.8433 60.2063 69.63C60.3196 69.4167 60.478 69.2533 60.6813 69.14C60.888 69.0233 61.1246 68.965 61.3913 68.965C61.6513 68.965 61.8813 69.0217 62.0813 69.135C62.2813 69.2483 62.4346 69.405 62.5413 69.605C62.6513 69.8017 62.7063 70.025 62.7063 70.275ZM62.2363 70.18C62.2363 70.0067 62.198 69.8583 62.1213 69.735C62.0446 69.6083 61.9396 69.5133 61.8063 69.45C61.6763 69.3833 61.5313 69.35 61.3713 69.35C61.1413 69.35 60.9446 69.4233 60.7813 69.57C60.6213 69.7167 60.5296 69.92 60.5063 70.18H62.2363ZM64.7369 71.75L64.0869 70.73L63.4619 71.75H62.9869L63.8719 70.39L62.9869 69.01H63.5019L64.1519 70.025L64.7719 69.01H65.2469L64.3669 70.365L65.2519 71.75H64.7369ZM66.1545 69.515C66.2445 69.3583 66.3778 69.2283 66.5545 69.125C66.7345 69.0183 66.9428 68.965 67.1795 68.965C67.4228 68.965 67.6428 69.0233 67.8395 69.14C68.0395 69.2567 68.1961 69.4217 68.3095 69.635C68.4228 69.845 68.4795 70.09 68.4795 70.37C68.4795 70.6467 68.4228 70.8933 68.3095 71.11C68.1961 71.3267 68.0395 71.495 67.8395 71.615C67.6428 71.735 67.4228 71.795 67.1795 71.795C66.9461 71.795 66.7395 71.7433 66.5595 71.64C66.3828 71.5333 66.2478 71.4017 66.1545 71.245V73.05H65.6995V69.01H66.1545V69.515ZM68.0145 70.37C68.0145 70.1633 67.9728 69.9833 67.8895 69.83C67.8061 69.6767 67.6928 69.56 67.5495 69.48C67.4095 69.4 67.2545 69.36 67.0845 69.36C66.9178 69.36 66.7628 69.4017 66.6195 69.485C66.4795 69.565 66.3661 69.6833 66.2795 69.84C66.1961 69.9933 66.1545 70.1717 66.1545 70.375C66.1545 70.5817 66.1961 70.7633 66.2795 70.92C66.3661 71.0733 66.4795 71.1917 66.6195 71.275C66.7628 71.355 66.9178 71.395 67.0845 71.395C67.2545 71.395 67.4095 71.355 67.5495 71.275C67.6928 71.1917 67.8061 71.0733 67.8895 70.92C67.9728 70.7633 68.0145 70.58 68.0145 70.37ZM71.5784 70.275C71.5784 70.3617 71.5734 70.4533 71.5634 70.55H69.3734C69.39 70.82 69.4817 71.0317 69.6484 71.185C69.8184 71.335 70.0234 71.41 70.2634 71.41C70.46 71.41 70.6234 71.365 70.7534 71.275C70.8867 71.1817 70.98 71.0583 71.0334 70.905H71.5234C71.45 71.1683 71.3034 71.3833 71.0834 71.55C70.8634 71.7133 70.59 71.795 70.2634 71.795C70.0034 71.795 69.77 71.7367 69.5634 71.62C69.36 71.5033 69.2 71.3383 69.0834 71.125C68.9667 70.9083 68.9084 70.6583 68.9084 70.375C68.9084 70.0917 68.965 69.8433 69.0784 69.63C69.1917 69.4167 69.35 69.2533 69.5534 69.14C69.76 69.0233 69.9967 68.965 70.2634 68.965C70.5234 68.965 70.7534 69.0217 70.9534 69.135C71.1534 69.2483 71.3067 69.405 71.4134 69.605C71.5234 69.8017 71.5784 70.025 71.5784 70.275ZM71.1084 70.18C71.1084 70.0067 71.07 69.8583 70.9934 69.735C70.9167 69.6083 70.8117 69.5133 70.6784 69.45C70.5484 69.3833 70.4034 69.35 70.2434 69.35C70.0134 69.35 69.8167 69.4233 69.6534 69.57C69.4934 69.7167 69.4017 69.92 69.3784 70.18H71.1084ZM72.6339 69.455C72.7139 69.2983 72.8273 69.1767 72.9739 69.09C73.1239 69.0033 73.3056 68.96 73.5189 68.96V69.43H73.3989C72.8889 69.43 72.6339 69.7067 72.6339 70.26V71.75H72.1789V69.01H72.6339V69.455ZM74.2792 68.565C74.1925 68.565 74.1192 68.535 74.0592 68.475C73.9992 68.415 73.9692 68.3417 73.9692 68.255C73.9692 68.1683 73.9992 68.095 74.0592 68.035C74.1192 67.975 74.1925 67.945 74.2792 67.945C74.3625 67.945 74.4325 67.975 74.4892 68.035C74.5492 68.095 74.5792 68.1683 74.5792 68.255C74.5792 68.3417 74.5492 68.415 74.4892 68.475C74.4325 68.535 74.3625 68.565 74.2792 68.565ZM74.4992 69.01V71.75H74.0442V69.01H74.4992ZM77.7746 70.275C77.7746 70.3617 77.7696 70.4533 77.7596 70.55H75.5696C75.5863 70.82 75.678 71.0317 75.8446 71.185C76.0146 71.335 76.2196 71.41 76.4596 71.41C76.6563 71.41 76.8196 71.365 76.9496 71.275C77.083 71.1817 77.1763 71.0583 77.2296 70.905H77.7196C77.6463 71.1683 77.4996 71.3833 77.2796 71.55C77.0596 71.7133 76.7863 71.795 76.4596 71.795C76.1996 71.795 75.9663 71.7367 75.7596 71.62C75.5563 71.5033 75.3963 71.3383 75.2796 71.125C75.163 70.9083 75.1046 70.6583 75.1046 70.375C75.1046 70.0917 75.1613 69.8433 75.2746 69.63C75.388 69.4167 75.5463 69.2533 75.7496 69.14C75.9563 69.0233 76.193 68.965 76.4596 68.965C76.7196 68.965 76.9496 69.0217 77.1496 69.135C77.3496 69.2483 77.503 69.405 77.6096 69.605C77.7196 69.8017 77.7746 70.025 77.7746 70.275ZM77.3046 70.18C77.3046 70.0067 77.2663 69.8583 77.1896 69.735C77.113 69.6083 77.008 69.5133 76.8746 69.45C76.7446 69.3833 76.5996 69.35 76.4396 69.35C76.2096 69.35 76.013 69.4233 75.8496 69.57C75.6896 69.7167 75.598 69.92 75.5746 70.18H77.3046ZM79.7102 68.96C80.0436 68.96 80.3136 69.0617 80.5202 69.265C80.7269 69.465 80.8302 69.755 80.8302 70.135V71.75H80.3802V70.2C80.3802 69.9267 80.3119 69.7183 80.1752 69.575C80.0386 69.4283 79.8519 69.355 79.6152 69.355C79.3752 69.355 79.1836 69.43 79.0402 69.58C78.9002 69.73 78.8302 69.9483 78.8302 70.235V71.75H78.3752V69.01H78.8302V69.4C78.9202 69.26 79.0419 69.1517 79.1952 69.075C79.3519 68.9983 79.5236 68.96 79.7102 68.96ZM81.4035 70.375C81.4035 70.0917 81.4601 69.845 81.5735 69.635C81.6868 69.4217 81.8435 69.2567 82.0435 69.14C82.2468 69.0233 82.4785 68.965 82.7385 68.965C83.0751 68.965 83.3518 69.0467 83.5685 69.21C83.7885 69.3733 83.9335 69.6 84.0035 69.89H83.5135C83.4668 69.7233 83.3751 69.5917 83.2385 69.495C83.1051 69.3983 82.9385 69.35 82.7385 69.35C82.4785 69.35 82.2685 69.44 82.1085 69.62C81.9485 69.7967 81.8685 70.0483 81.8685 70.375C81.8685 70.705 81.9485 70.96 82.1085 71.14C82.2685 71.32 82.4785 71.41 82.7385 71.41C82.9385 71.41 83.1051 71.3633 83.2385 71.27C83.3718 71.1767 83.4635 71.0433 83.5135 70.87H84.0035C83.9301 71.15 83.7835 71.375 83.5635 71.545C83.3435 71.7117 83.0685 71.795 82.7385 71.795C82.4785 71.795 82.2468 71.7367 82.0435 71.62C81.8435 71.5033 81.6868 71.3383 81.5735 71.125C81.4601 70.9117 81.4035 70.6617 81.4035 70.375ZM87.1106 70.275C87.1106 70.3617 87.1056 70.4533 87.0956 70.55H84.9056C84.9223 70.82 85.0139 71.0317 85.1806 71.185C85.3506 71.335 85.5556 71.41 85.7956 71.41C85.9923 71.41 86.1556 71.365 86.2856 71.275C86.4189 71.1817 86.5123 71.0583 86.5656 70.905H87.0556C86.9823 71.1683 86.8356 71.3833 86.6156 71.55C86.3956 71.7133 86.1223 71.795 85.7956 71.795C85.5356 71.795 85.3023 71.7367 85.0956 71.62C84.8923 71.5033 84.7323 71.3383 84.6156 71.125C84.4989 70.9083 84.4406 70.6583 84.4406 70.375C84.4406 70.0917 84.4973 69.8433 84.6106 69.63C84.7239 69.4167 84.8823 69.2533 85.0856 69.14C85.2923 69.0233 85.5289 68.965 85.7956 68.965C86.0556 68.965 86.2856 69.0217 86.4856 69.135C86.6856 69.2483 86.8389 69.405 86.9456 69.605C87.0556 69.8017 87.1106 70.025 87.1106 70.275ZM86.6406 70.18C86.6406 70.0067 86.6023 69.8583 86.5256 69.735C86.4489 69.6083 86.3439 69.5133 86.2106 69.45C86.0806 69.3833 85.9356 69.35 85.7756 69.35C85.5456 69.35 85.3489 69.4233 85.1856 69.57C85.0256 69.7167 84.9339 69.92 84.9106 70.18H86.6406ZM88.1812 71.12L87.6212 72.465H87.3162L87.6812 71.12H88.1812ZM90.4904 68.265V71.75H90.0354V68.265H90.4904ZM17.035 75.01L16.18 77.75H15.71L15.05 75.575L14.39 77.75H13.92L13.06 75.01H13.525L14.155 77.31L14.835 75.01H15.3L15.965 77.315L16.585 75.01H17.035ZM17.3166 76.37C17.3166 76.09 17.3732 75.845 17.4866 75.635C17.5999 75.4217 17.7549 75.2567 17.9516 75.14C18.1516 75.0233 18.3732 74.965 18.6166 74.965C18.8566 74.965 19.0649 75.0167 19.2416 75.12C19.4182 75.2233 19.5499 75.3533 19.6366 75.51V75.01H20.0966V77.75H19.6366V77.24C19.5466 77.4 19.4116 77.5333 19.2316 77.64C19.0549 77.7433 18.8482 77.795 18.6116 77.795C18.3682 77.795 18.1482 77.735 17.9516 77.615C17.7549 77.495 17.5999 77.3267 17.4866 77.11C17.3732 76.8933 17.3166 76.6467 17.3166 76.37ZM19.6366 76.375C19.6366 76.1683 19.5949 75.9883 19.5116 75.835C19.4282 75.6817 19.3149 75.565 19.1716 75.485C19.0316 75.4017 18.8766 75.36 18.7066 75.36C18.5366 75.36 18.3816 75.4 18.2416 75.48C18.1016 75.56 17.9899 75.6767 17.9066 75.83C17.8232 75.9833 17.7816 76.1633 17.7816 76.37C17.7816 76.58 17.8232 76.7633 17.9066 76.92C17.9899 77.0733 18.1016 77.1917 18.2416 77.275C18.3816 77.355 18.5366 77.395 18.7066 77.395C18.8766 77.395 19.0316 77.355 19.1716 77.275C19.3149 77.1917 19.4282 77.0733 19.5116 76.92C19.5949 76.7633 19.6366 76.5817 19.6366 76.375ZM21.8355 77.795C21.6255 77.795 21.4371 77.76 21.2705 77.69C21.1038 77.6167 20.9721 77.5167 20.8755 77.39C20.7788 77.26 20.7255 77.1117 20.7155 76.945H21.1855C21.1988 77.0817 21.2621 77.1933 21.3755 77.28C21.4921 77.3667 21.6438 77.41 21.8305 77.41C22.0038 77.41 22.1405 77.3717 22.2405 77.295C22.3405 77.2183 22.3905 77.1217 22.3905 77.005C22.3905 76.885 22.3371 76.7967 22.2305 76.74C22.1238 76.68 21.9588 76.6217 21.7355 76.565C21.5321 76.5117 21.3655 76.4583 21.2355 76.405C21.1088 76.3483 20.9988 76.2667 20.9055 76.16C20.8155 76.05 20.7705 75.9067 20.7705 75.73C20.7705 75.59 20.8121 75.4617 20.8955 75.345C20.9788 75.2283 21.0971 75.1367 21.2505 75.07C21.4038 75 21.5788 74.965 21.7755 74.965C22.0788 74.965 22.3238 75.0417 22.5105 75.195C22.6971 75.3483 22.7971 75.5583 22.8105 75.825H22.3555C22.3455 75.6817 22.2871 75.5667 22.1805 75.48C22.0771 75.3933 21.9371 75.35 21.7605 75.35C21.5971 75.35 21.4671 75.385 21.3705 75.455C21.2738 75.525 21.2255 75.6167 21.2255 75.73C21.2255 75.82 21.2538 75.895 21.3105 75.955C21.3705 76.0117 21.4438 76.0583 21.5305 76.095C21.6205 76.1283 21.7438 76.1667 21.9005 76.21C22.0971 76.2633 22.2571 76.3167 22.3805 76.37C22.5038 76.42 22.6088 76.4967 22.6955 76.6C22.7855 76.7033 22.8321 76.8383 22.8355 77.005C22.8355 77.155 22.7938 77.29 22.7105 77.41C22.6271 77.53 22.5088 77.625 22.3555 77.695C22.2055 77.7617 22.0321 77.795 21.8355 77.795ZM25.3658 75.385V77C25.3658 77.1333 25.3941 77.2283 25.4508 77.285C25.5074 77.3383 25.6058 77.365 25.7458 77.365H26.0808V77.75H25.6708C25.4174 77.75 25.2274 77.6917 25.1008 77.575C24.9741 77.4583 24.9108 77.2667 24.9108 77V75.385H24.5558V75.01H24.9108V74.32H25.3658V75.01H26.0808V75.385H25.3658ZM27.0871 75.455C27.1671 75.2983 27.2804 75.1767 27.4271 75.09C27.5771 75.0033 27.7587 74.96 27.9721 74.96V75.43H27.8521C27.3421 75.43 27.0871 75.7067 27.0871 76.26V77.75H26.6321V75.01H27.0871V75.455ZM30.9273 75.01V77.75H30.4723V77.345C30.3856 77.485 30.264 77.595 30.1073 77.675C29.954 77.7517 29.784 77.79 29.5973 77.79C29.384 77.79 29.1923 77.7467 29.0223 77.66C28.8523 77.57 28.7173 77.4367 28.6173 77.26C28.5206 77.0833 28.4723 76.8683 28.4723 76.615V75.01H28.9223V76.555C28.9223 76.825 28.9906 77.0333 29.1273 77.18C29.264 77.3233 29.4506 77.395 29.6873 77.395C29.9306 77.395 30.1223 77.32 30.2623 77.17C30.4023 77.02 30.4723 76.8017 30.4723 76.515V75.01H30.9273ZM32.6655 77.795C32.4555 77.795 32.2672 77.76 32.1005 77.69C31.9339 77.6167 31.8022 77.5167 31.7055 77.39C31.6089 77.26 31.5555 77.1117 31.5455 76.945H32.0155C32.0289 77.0817 32.0922 77.1933 32.2055 77.28C32.3222 77.3667 32.4739 77.41 32.6605 77.41C32.8339 77.41 32.9705 77.3717 33.0705 77.295C33.1705 77.2183 33.2205 77.1217 33.2205 77.005C33.2205 76.885 33.1672 76.7967 33.0605 76.74C32.9539 76.68 32.7889 76.6217 32.5655 76.565C32.3622 76.5117 32.1955 76.4583 32.0655 76.405C31.9389 76.3483 31.8289 76.2667 31.7355 76.16C31.6455 76.05 31.6005 75.9067 31.6005 75.73C31.6005 75.59 31.6422 75.4617 31.7255 75.345C31.8089 75.2283 31.9272 75.1367 32.0805 75.07C32.2339 75 32.4089 74.965 32.6055 74.965C32.9089 74.965 33.1539 75.0417 33.3405 75.195C33.5272 75.3483 33.6272 75.5583 33.6405 75.825H33.1855C33.1755 75.6817 33.1172 75.5667 33.0105 75.48C32.9072 75.3933 32.7672 75.35 32.5905 75.35C32.4272 75.35 32.2972 75.385 32.2005 75.455C32.1039 75.525 32.0555 75.6167 32.0555 75.73C32.0555 75.82 32.0839 75.895 32.1405 75.955C32.2005 76.0117 32.2739 76.0583 32.3605 76.095C32.4505 76.1283 32.5739 76.1667 32.7305 76.21C32.9272 76.2633 33.0872 76.3167 33.2105 76.37C33.3339 76.42 33.4389 76.4967 33.5255 76.6C33.6155 76.7033 33.6622 76.8383 33.6655 77.005C33.6655 77.155 33.6239 77.29 33.5405 77.41C33.4572 77.53 33.3389 77.625 33.1855 77.695C33.0355 77.7617 32.8622 77.795 32.6655 77.795ZM34.8629 75.385V77C34.8629 77.1333 34.8912 77.2283 34.9479 77.285C35.0045 77.3383 35.1029 77.365 35.2429 77.365H35.5779V77.75H35.1679C34.9145 77.75 34.7245 77.6917 34.5979 77.575C34.4712 77.4583 34.4079 77.2667 34.4079 77V75.385H34.0529V75.01H34.4079V74.32H34.8629V75.01H35.5779V75.385H34.8629ZM38.6291 76.275C38.6291 76.3617 38.6241 76.4533 38.6141 76.55H36.4241C36.4408 76.82 36.5325 77.0317 36.6991 77.185C36.8691 77.335 37.0741 77.41 37.3141 77.41C37.5108 77.41 37.6741 77.365 37.8041 77.275C37.9375 77.1817 38.0308 77.0583 38.0841 76.905H38.5741C38.5008 77.1683 38.3541 77.3833 38.1341 77.55C37.9141 77.7133 37.6408 77.795 37.3141 77.795C37.0541 77.795 36.8208 77.7367 36.6141 77.62C36.4108 77.5033 36.2508 77.3383 36.1341 77.125C36.0175 76.9083 35.9591 76.6583 35.9591 76.375C35.9591 76.0917 36.0158 75.8433 36.1291 75.63C36.2425 75.4167 36.4008 75.2533 36.6041 75.14C36.8108 75.0233 37.0475 74.965 37.3141 74.965C37.5741 74.965 37.8041 75.0217 38.0041 75.135C38.2041 75.2483 38.3575 75.405 38.4641 75.605C38.5741 75.8017 38.6291 76.025 38.6291 76.275ZM38.1591 76.18C38.1591 76.0067 38.1208 75.8583 38.0441 75.735C37.9675 75.6083 37.8625 75.5133 37.7291 75.45C37.5991 75.3833 37.4541 75.35 37.2941 75.35C37.0641 75.35 36.8675 75.4233 36.7041 75.57C36.5441 75.7167 36.4525 75.92 36.4291 76.18H38.1591ZM39.0597 76.37C39.0597 76.09 39.1164 75.845 39.2297 75.635C39.3431 75.4217 39.4981 75.2567 39.6947 75.14C39.8947 75.0233 40.1181 74.965 40.3647 74.965C40.5781 74.965 40.7764 75.015 40.9597 75.115C41.1431 75.2117 41.2831 75.34 41.3797 75.5V74.05H41.8397V77.75H41.3797V77.235C41.2897 77.3983 41.1564 77.5333 40.9797 77.64C40.8031 77.7433 40.5964 77.795 40.3597 77.795C40.1164 77.795 39.8947 77.735 39.6947 77.615C39.4981 77.495 39.3431 77.3267 39.2297 77.11C39.1164 76.8933 39.0597 76.6467 39.0597 76.37ZM41.3797 76.375C41.3797 76.1683 41.3381 75.9883 41.2547 75.835C41.1714 75.6817 41.0581 75.565 40.9147 75.485C40.7747 75.4017 40.6197 75.36 40.4497 75.36C40.2797 75.36 40.1247 75.4 39.9847 75.48C39.8447 75.56 39.7331 75.6767 39.6497 75.83C39.5664 75.9833 39.5247 76.1633 39.5247 76.37C39.5247 76.58 39.5664 76.7633 39.6497 76.92C39.7331 77.0733 39.8447 77.1917 39.9847 77.275C40.1247 77.355 40.2797 77.395 40.4497 77.395C40.6197 77.395 40.7747 77.355 40.9147 77.275C41.0581 77.1917 41.1714 77.0733 41.2547 76.92C41.3381 76.7633 41.3797 76.5817 41.3797 76.375ZM44.4966 75.385V77C44.4966 77.1333 44.525 77.2283 44.5816 77.285C44.6383 77.3383 44.7366 77.365 44.8766 77.365H45.2116V77.75H44.8016C44.5483 77.75 44.3583 77.6917 44.2316 77.575C44.105 77.4583 44.0416 77.2667 44.0416 77V75.385H43.6866V75.01H44.0416V74.32H44.4966V75.01H45.2116V75.385H44.4966ZM46.9579 77.795C46.7013 77.795 46.4679 77.7367 46.2579 77.62C46.0513 77.5033 45.8879 77.3383 45.7679 77.125C45.6513 76.9083 45.5929 76.6583 45.5929 76.375C45.5929 76.095 45.6529 75.8483 45.7729 75.635C45.8963 75.4183 46.0629 75.2533 46.2729 75.14C46.4829 75.0233 46.7179 74.965 46.9779 74.965C47.2379 74.965 47.4729 75.0233 47.6829 75.14C47.8929 75.2533 48.0579 75.4167 48.1779 75.63C48.3013 75.8433 48.3629 76.0917 48.3629 76.375C48.3629 76.6583 48.2996 76.9083 48.1729 77.125C48.0496 77.3383 47.8813 77.5033 47.6679 77.62C47.4546 77.7367 47.2179 77.795 46.9579 77.795ZM46.9579 77.395C47.1213 77.395 47.2746 77.3567 47.4179 77.28C47.5613 77.2033 47.6763 77.0883 47.7629 76.935C47.8529 76.7817 47.8979 76.595 47.8979 76.375C47.8979 76.155 47.8546 75.9683 47.7679 75.815C47.6813 75.6617 47.5679 75.5483 47.4279 75.475C47.2879 75.3983 47.1363 75.36 46.9729 75.36C46.8063 75.36 46.6529 75.3983 46.5129 75.475C46.3763 75.5483 46.2663 75.6617 46.1829 75.815C46.0996 75.9683 46.0579 76.155 46.0579 76.375C46.0579 76.5983 46.0979 76.7867 46.1779 76.94C46.2613 77.0933 46.3713 77.2083 46.5079 77.285C46.6446 77.3583 46.7946 77.395 46.9579 77.395ZM51.6542 74.96C51.8608 74.96 52.0475 75.005 52.2142 75.095C52.3808 75.1817 52.5108 75.3133 52.6042 75.49C52.7008 75.6667 52.7492 75.8817 52.7492 76.135V77.75H52.2992V76.2C52.2992 75.9267 52.2308 75.7183 52.0942 75.575C51.9575 75.4283 51.7708 75.355 51.5342 75.355C51.2942 75.355 51.1025 75.43 50.9592 75.58C50.8192 75.73 50.7492 75.9483 50.7492 76.235V77.75H50.2942V74.05H50.7492V75.4C50.8392 75.26 50.9625 75.1517 51.1192 75.075C51.2792 74.9983 51.4575 74.96 51.6542 74.96ZM55.9924 76.275C55.9924 76.3617 55.9874 76.4533 55.9774 76.55H53.7874C53.8041 76.82 53.8958 77.0317 54.0624 77.185C54.2324 77.335 54.4374 77.41 54.6774 77.41C54.8741 77.41 55.0374 77.365 55.1674 77.275C55.3008 77.1817 55.3941 77.0583 55.4474 76.905H55.9374C55.8641 77.1683 55.7174 77.3833 55.4974 77.55C55.2774 77.7133 55.0041 77.795 54.6774 77.795C54.4174 77.795 54.1841 77.7367 53.9774 77.62C53.7741 77.5033 53.6141 77.3383 53.4974 77.125C53.3808 76.9083 53.3224 76.6583 53.3224 76.375C53.3224 76.0917 53.3791 75.8433 53.4924 75.63C53.6058 75.4167 53.7641 75.2533 53.9674 75.14C54.1741 75.0233 54.4108 74.965 54.6774 74.965C54.9374 74.965 55.1674 75.0217 55.3674 75.135C55.5674 75.2483 55.7208 75.405 55.8274 75.605C55.9374 75.8017 55.9924 76.025 55.9924 76.275ZM55.5224 76.18C55.5224 76.0067 55.4841 75.8583 55.4074 75.735C55.3308 75.6083 55.2258 75.5133 55.0924 75.45C54.9624 75.3833 54.8174 75.35 54.6574 75.35C54.4274 75.35 54.2308 75.4233 54.0674 75.57C53.9074 75.7167 53.8158 75.92 53.7924 76.18H55.5224ZM57.048 74.05V77.75H56.593V74.05H57.048ZM58.2785 75.515C58.3685 75.3583 58.5018 75.2283 58.6785 75.125C58.8585 75.0183 59.0668 74.965 59.3035 74.965C59.5468 74.965 59.7668 75.0233 59.9635 75.14C60.1635 75.2567 60.3201 75.4217 60.4335 75.635C60.5468 75.845 60.6035 76.09 60.6035 76.37C60.6035 76.6467 60.5468 76.8933 60.4335 77.11C60.3201 77.3267 60.1635 77.495 59.9635 77.615C59.7668 77.735 59.5468 77.795 59.3035 77.795C59.0701 77.795 58.8635 77.7433 58.6835 77.64C58.5068 77.5333 58.3718 77.4017 58.2785 77.245V79.05H57.8235V75.01H58.2785V75.515ZM60.1385 76.37C60.1385 76.1633 60.0968 75.9833 60.0135 75.83C59.9301 75.6767 59.8168 75.56 59.6735 75.48C59.5335 75.4 59.3785 75.36 59.2085 75.36C59.0418 75.36 58.8868 75.4017 58.7435 75.485C58.6035 75.565 58.4901 75.6833 58.4035 75.84C58.3201 75.9933 58.2785 76.1717 58.2785 76.375C58.2785 76.5817 58.3201 76.7633 58.4035 76.92C58.4901 77.0733 58.6035 77.1917 58.7435 77.275C58.8868 77.355 59.0418 77.395 59.2085 77.395C59.3785 77.395 59.5335 77.355 59.6735 77.275C59.8168 77.1917 59.9301 77.0733 60.0135 76.92C60.0968 76.7633 60.1385 76.58 60.1385 76.37ZM63.0904 75.385V77C63.0904 77.1333 63.1187 77.2283 63.1754 77.285C63.2321 77.3383 63.3304 77.365 63.4704 77.365H63.8054V77.75H63.3954C63.1421 77.75 62.9521 77.6917 62.8254 77.575C62.6987 77.4583 62.6354 77.2667 62.6354 77V75.385H62.2804V75.01H62.6354V74.32H63.0904V75.01H63.8054V75.385H63.0904ZM65.7167 74.96C65.9233 74.96 66.11 75.005 66.2767 75.095C66.4433 75.1817 66.5733 75.3133 66.6667 75.49C66.7633 75.6667 66.8117 75.8817 66.8117 76.135V77.75H66.3617V76.2C66.3617 75.9267 66.2933 75.7183 66.1567 75.575C66.02 75.4283 65.8333 75.355 65.5967 75.355C65.3567 75.355 65.165 75.43 65.0217 75.58C64.8817 75.73 64.8117 75.9483 64.8117 76.235V77.75H64.3567V74.05H64.8117V75.4C64.9017 75.26 65.025 75.1517 65.1817 75.075C65.3417 74.9983 65.52 74.96 65.7167 74.96ZM70.0549 76.275C70.0549 76.3617 70.0499 76.4533 70.0399 76.55H67.8499C67.8666 76.82 67.9583 77.0317 68.1249 77.185C68.2949 77.335 68.4999 77.41 68.7399 77.41C68.9366 77.41 69.0999 77.365 69.2299 77.275C69.3633 77.1817 69.4566 77.0583 69.5099 76.905H69.9999C69.9266 77.1683 69.7799 77.3833 69.5599 77.55C69.3399 77.7133 69.0666 77.795 68.7399 77.795C68.4799 77.795 68.2466 77.7367 68.0399 77.62C67.8366 77.5033 67.6766 77.3383 67.5599 77.125C67.4433 76.9083 67.3849 76.6583 67.3849 76.375C67.3849 76.0917 67.4416 75.8433 67.5549 75.63C67.6683 75.4167 67.8266 75.2533 68.0299 75.14C68.2366 75.0233 68.4733 74.965 68.7399 74.965C68.9999 74.965 69.2299 75.0217 69.4299 75.135C69.6299 75.2483 69.7833 75.405 69.8899 75.605C69.9999 75.8017 70.0549 76.025 70.0549 76.275ZM69.5849 76.18C69.5849 76.0067 69.5466 75.8583 69.4699 75.735C69.3933 75.6083 69.2883 75.5133 69.1549 75.45C69.0249 75.3833 68.8799 75.35 68.7199 75.35C68.4899 75.35 68.2933 75.4233 68.1299 75.57C67.9699 75.7167 67.8783 75.92 67.8549 76.18H69.5849ZM73.9505 74.96C74.1638 74.96 74.3538 75.005 74.5205 75.095C74.6872 75.1817 74.8188 75.3133 74.9155 75.49C75.0122 75.6667 75.0605 75.8817 75.0605 76.135V77.75H74.6105V76.2C74.6105 75.9267 74.5422 75.7183 74.4055 75.575C74.2722 75.4283 74.0905 75.355 73.8605 75.355C73.6238 75.355 73.4355 75.4317 73.2955 75.585C73.1555 75.735 73.0855 75.9533 73.0855 76.24V77.75H72.6355V76.2C72.6355 75.9267 72.5672 75.7183 72.4305 75.575C72.2972 75.4283 72.1155 75.355 71.8855 75.355C71.6488 75.355 71.4605 75.4317 71.3205 75.585C71.1805 75.735 71.1105 75.9533 71.1105 76.24V77.75H70.6555V75.01H71.1105V75.405C71.2005 75.2617 71.3205 75.1517 71.4705 75.075C71.6238 74.9983 71.7922 74.96 71.9755 74.96C72.2055 74.96 72.4088 75.0117 72.5855 75.115C72.7622 75.2183 72.8938 75.37 72.9805 75.57C73.0572 75.3767 73.1838 75.2267 73.3605 75.12C73.5372 75.0133 73.7338 74.96 73.9505 74.96ZM14.58 82.795C14.3233 82.795 14.09 82.7367 13.88 82.62C13.6733 82.5033 13.51 82.3383 13.39 82.125C13.2733 81.9083 13.215 81.6583 13.215 81.375C13.215 81.095 13.275 80.8483 13.395 80.635C13.5183 80.4183 13.685 80.2533 13.895 80.14C14.105 80.0233 14.34 79.965 14.6 79.965C14.86 79.965 15.095 80.0233 15.305 80.14C15.515 80.2533 15.68 80.4167 15.8 80.63C15.9233 80.8433 15.985 81.0917 15.985 81.375C15.985 81.6583 15.9217 81.9083 15.795 82.125C15.6717 82.3383 15.5033 82.5033 15.29 82.62C15.0767 82.7367 14.84 82.795 14.58 82.795ZM14.58 82.395C14.7433 82.395 14.8967 82.3567 15.04 82.28C15.1833 82.2033 15.2983 82.0883 15.385 81.935C15.475 81.7817 15.52 81.595 15.52 81.375C15.52 81.155 15.4767 80.9683 15.39 80.815C15.3033 80.6617 15.19 80.5483 15.05 80.475C14.91 80.3983 14.7583 80.36 14.595 80.36C14.4283 80.36 14.275 80.3983 14.135 80.475C13.9983 80.5483 13.8883 80.6617 13.805 80.815C13.7217 80.9683 13.68 81.155 13.68 81.375C13.68 81.5983 13.72 81.7867 13.8 81.94C13.8833 82.0933 13.9933 82.2083 14.13 82.285C14.2667 82.3583 14.4167 82.395 14.58 82.395ZM17.0382 80.455C17.1182 80.2983 17.2316 80.1767 17.3782 80.09C17.5282 80.0033 17.7099 79.96 17.9232 79.96V80.43H17.8032C17.2932 80.43 17.0382 80.7067 17.0382 81.26V82.75H16.5832V80.01H17.0382V80.455ZM19.5785 79.965C19.8151 79.965 20.0218 80.0167 20.1985 80.12C20.3785 80.2233 20.5118 80.3533 20.5985 80.51V80.01H21.0585V82.81C21.0585 83.06 21.0051 83.2817 20.8985 83.475C20.7918 83.6717 20.6385 83.825 20.4385 83.935C20.2418 84.045 20.0118 84.1 19.7485 84.1C19.3885 84.1 19.0885 84.015 18.8485 83.845C18.6085 83.675 18.4668 83.4433 18.4235 83.15H18.8735C18.9235 83.3167 19.0268 83.45 19.1835 83.55C19.3401 83.6533 19.5285 83.705 19.7485 83.705C19.9985 83.705 20.2018 83.6267 20.3585 83.47C20.5185 83.3133 20.5985 83.0933 20.5985 82.81V82.235C20.5085 82.395 20.3751 82.5283 20.1985 82.635C20.0218 82.7417 19.8151 82.795 19.5785 82.795C19.3351 82.795 19.1135 82.735 18.9135 82.615C18.7168 82.495 18.5618 82.3267 18.4485 82.11C18.3351 81.8933 18.2785 81.6467 18.2785 81.37C18.2785 81.09 18.3351 80.845 18.4485 80.635C18.5618 80.4217 18.7168 80.2567 18.9135 80.14C19.1135 80.0233 19.3351 79.965 19.5785 79.965ZM20.5985 81.375C20.5985 81.1683 20.5568 80.9883 20.4735 80.835C20.3901 80.6817 20.2768 80.565 20.1335 80.485C19.9935 80.4017 19.8385 80.36 19.6685 80.36C19.4985 80.36 19.3435 80.4 19.2035 80.48C19.0635 80.56 18.9518 80.6767 18.8685 80.83C18.7851 80.9833 18.7435 81.1633 18.7435 81.37C18.7435 81.58 18.7851 81.7633 18.8685 81.92C18.9518 82.0733 19.0635 82.1917 19.2035 82.275C19.3435 82.355 19.4985 82.395 19.6685 82.395C19.8385 82.395 19.9935 82.355 20.1335 82.275C20.2768 82.1917 20.3901 82.0733 20.4735 81.92C20.5568 81.7633 20.5985 81.5817 20.5985 81.375ZM21.6574 81.37C21.6574 81.09 21.714 80.845 21.8274 80.635C21.9407 80.4217 22.0957 80.2567 22.2924 80.14C22.4924 80.0233 22.714 79.965 22.9574 79.965C23.1974 79.965 23.4057 80.0167 23.5824 80.12C23.759 80.2233 23.8907 80.3533 23.9774 80.51V80.01H24.4374V82.75H23.9774V82.24C23.8874 82.4 23.7524 82.5333 23.5724 82.64C23.3957 82.7433 23.189 82.795 22.9524 82.795C22.709 82.795 22.489 82.735 22.2924 82.615C22.0957 82.495 21.9407 82.3267 21.8274 82.11C21.714 81.8933 21.6574 81.6467 21.6574 81.37ZM23.9774 81.375C23.9774 81.1683 23.9357 80.9883 23.8524 80.835C23.769 80.6817 23.6557 80.565 23.5124 80.485C23.3724 80.4017 23.2174 80.36 23.0474 80.36C22.8774 80.36 22.7224 80.4 22.5824 80.48C22.4424 80.56 22.3307 80.6767 22.2474 80.83C22.164 80.9833 22.1224 81.1633 22.1224 81.37C22.1224 81.58 22.164 81.7633 22.2474 81.92C22.3307 82.0733 22.4424 82.1917 22.5824 82.275C22.7224 82.355 22.8774 82.395 23.0474 82.395C23.2174 82.395 23.3724 82.355 23.5124 82.275C23.6557 82.1917 23.769 82.0733 23.8524 81.92C23.9357 81.7633 23.9774 81.5817 23.9774 81.375ZM26.5413 79.96C26.8746 79.96 27.1446 80.0617 27.3513 80.265C27.558 80.465 27.6613 80.755 27.6613 81.135V82.75H27.2113V81.2C27.2113 80.9267 27.143 80.7183 27.0063 80.575C26.8696 80.4283 26.683 80.355 26.4463 80.355C26.2063 80.355 26.0146 80.43 25.8713 80.58C25.7313 80.73 25.6613 80.9483 25.6613 81.235V82.75H25.2063V80.01H25.6613V80.4C25.7513 80.26 25.873 80.1517 26.0263 80.075C26.183 79.9983 26.3546 79.96 26.5413 79.96ZM28.6395 79.565C28.5529 79.565 28.4795 79.535 28.4195 79.475C28.3595 79.415 28.3295 79.3417 28.3295 79.255C28.3295 79.1683 28.3595 79.095 28.4195 79.035C28.4795 78.975 28.5529 78.945 28.6395 78.945C28.7229 78.945 28.7929 78.975 28.8495 79.035C28.9095 79.095 28.9395 79.1683 28.9395 79.255C28.9395 79.3417 28.9095 79.415 28.8495 79.475C28.7929 79.535 28.7229 79.565 28.6395 79.565ZM28.8595 80.01V82.75H28.4045V80.01H28.8595ZM29.975 82.375H31.32V82.75H29.455V82.375L30.785 80.38H29.465V80.01H31.31V80.38L29.975 82.375ZM32.1454 79.565C32.0587 79.565 31.9854 79.535 31.9254 79.475C31.8654 79.415 31.8354 79.3417 31.8354 79.255C31.8354 79.1683 31.8654 79.095 31.9254 79.035C31.9854 78.975 32.0587 78.945 32.1454 78.945C32.2287 78.945 32.2987 78.975 32.3554 79.035C32.4154 79.095 32.4454 79.1683 32.4454 79.255C32.4454 79.3417 32.4154 79.415 32.3554 79.475C32.2987 79.535 32.2287 79.565 32.1454 79.565ZM32.3654 80.01V82.75H31.9104V80.01H32.3654ZM34.4759 79.96C34.8092 79.96 35.0792 80.0617 35.2859 80.265C35.4925 80.465 35.5959 80.755 35.5959 81.135V82.75H35.1459V81.2C35.1459 80.9267 35.0775 80.7183 34.9409 80.575C34.8042 80.4283 34.6175 80.355 34.3809 80.355C34.1409 80.355 33.9492 80.43 33.8059 80.58C33.6659 80.73 33.5959 80.9483 33.5959 81.235V82.75H33.1409V80.01H33.5959V80.4C33.6859 80.26 33.8075 80.1517 33.9609 80.075C34.1175 79.9983 34.2892 79.96 34.4759 79.96ZM37.4691 79.965C37.7058 79.965 37.9124 80.0167 38.0891 80.12C38.2691 80.2233 38.4024 80.3533 38.4891 80.51V80.01H38.9491V82.81C38.9491 83.06 38.8958 83.2817 38.7891 83.475C38.6824 83.6717 38.5291 83.825 38.3291 83.935C38.1324 84.045 37.9024 84.1 37.6391 84.1C37.2791 84.1 36.9791 84.015 36.7391 83.845C36.4991 83.675 36.3574 83.4433 36.3141 83.15H36.7641C36.8141 83.3167 36.9174 83.45 37.0741 83.55C37.2308 83.6533 37.4191 83.705 37.6391 83.705C37.8891 83.705 38.0924 83.6267 38.2491 83.47C38.4091 83.3133 38.4891 83.0933 38.4891 82.81V82.235C38.3991 82.395 38.2658 82.5283 38.0891 82.635C37.9124 82.7417 37.7058 82.795 37.4691 82.795C37.2258 82.795 37.0041 82.735 36.8041 82.615C36.6074 82.495 36.4524 82.3267 36.3391 82.11C36.2258 81.8933 36.1691 81.6467 36.1691 81.37C36.1691 81.09 36.2258 80.845 36.3391 80.635C36.4524 80.4217 36.6074 80.2567 36.8041 80.14C37.0041 80.0233 37.2258 79.965 37.4691 79.965ZM38.4891 81.375C38.4891 81.1683 38.4474 80.9883 38.3641 80.835C38.2808 80.6817 38.1674 80.565 38.0241 80.485C37.8841 80.4017 37.7291 80.36 37.5591 80.36C37.3891 80.36 37.2341 80.4 37.0941 80.48C36.9541 80.56 36.8424 80.6767 36.7591 80.83C36.6758 80.9833 36.6341 81.1633 36.6341 81.37C36.6341 81.58 36.6758 81.7633 36.7591 81.92C36.8424 82.0733 36.9541 82.1917 37.0941 82.275C37.2341 82.355 37.3891 82.395 37.5591 82.395C37.7291 82.395 37.8841 82.355 38.0241 82.275C38.1674 82.1917 38.2808 82.0733 38.3641 81.92C38.4474 81.7633 38.4891 81.5817 38.4891 81.375ZM40.881 81.37C40.881 81.09 40.9377 80.845 41.051 80.635C41.1643 80.4217 41.3193 80.2567 41.516 80.14C41.716 80.0233 41.9377 79.965 42.181 79.965C42.421 79.965 42.6293 80.0167 42.806 80.12C42.9827 80.2233 43.1143 80.3533 43.201 80.51V80.01H43.661V82.75H43.201V82.24C43.111 82.4 42.976 82.5333 42.796 82.64C42.6193 82.7433 42.4127 82.795 42.176 82.795C41.9327 82.795 41.7127 82.735 41.516 82.615C41.3193 82.495 41.1643 82.3267 41.051 82.11C40.9377 81.8933 40.881 81.6467 40.881 81.37ZM43.201 81.375C43.201 81.1683 43.1593 80.9883 43.076 80.835C42.9927 80.6817 42.8793 80.565 42.736 80.485C42.596 80.4017 42.441 80.36 42.271 80.36C42.101 80.36 41.946 80.4 41.806 80.48C41.666 80.56 41.5543 80.6767 41.471 80.83C41.3877 80.9833 41.346 81.1633 41.346 81.37C41.346 81.58 41.3877 81.7633 41.471 81.92C41.5543 82.0733 41.666 82.1917 41.806 82.275C41.946 82.355 42.101 82.395 42.271 82.395C42.441 82.395 42.596 82.355 42.736 82.275C42.8793 82.1917 42.9927 82.0733 43.076 81.92C43.1593 81.7633 43.201 81.5817 43.201 81.375ZM45.7649 79.96C46.0983 79.96 46.3683 80.0617 46.5749 80.265C46.7816 80.465 46.8849 80.755 46.8849 81.135V82.75H46.4349V81.2C46.4349 80.9267 46.3666 80.7183 46.2299 80.575C46.0933 80.4283 45.9066 80.355 45.6699 80.355C45.4299 80.355 45.2383 80.43 45.0949 80.58C44.9549 80.73 44.8849 80.9483 44.8849 81.235V82.75H44.4299V80.01H44.8849V80.4C44.9749 80.26 45.0966 80.1517 45.2499 80.075C45.4066 79.9983 45.5783 79.96 45.7649 79.96ZM47.4582 81.37C47.4582 81.09 47.5148 80.845 47.6282 80.635C47.7415 80.4217 47.8965 80.2567 48.0932 80.14C48.2932 80.0233 48.5165 79.965 48.7632 79.965C48.9765 79.965 49.1748 80.015 49.3582 80.115C49.5415 80.2117 49.6815 80.34 49.7782 80.5V79.05H50.2382V82.75H49.7782V82.235C49.6882 82.3983 49.5548 82.5333 49.3782 82.64C49.2015 82.7433 48.9948 82.795 48.7582 82.795C48.5148 82.795 48.2932 82.735 48.0932 82.615C47.8965 82.495 47.7415 82.3267 47.6282 82.11C47.5148 81.8933 47.4582 81.6467 47.4582 81.37ZM49.7782 81.375C49.7782 81.1683 49.7365 80.9883 49.6532 80.835C49.5698 80.6817 49.4565 80.565 49.3132 80.485C49.1732 80.4017 49.0182 80.36 48.8482 80.36C48.6782 80.36 48.5232 80.4 48.3832 80.48C48.2432 80.56 48.1315 80.6767 48.0482 80.83C47.9648 80.9833 47.9232 81.1633 47.9232 81.37C47.9232 81.58 47.9648 81.7633 48.0482 81.92C48.1315 82.0733 48.2432 82.1917 48.3832 82.275C48.5232 82.355 48.6782 82.395 48.8482 82.395C49.0182 82.395 49.1732 82.355 49.3132 82.275C49.4565 82.1917 49.5698 82.0733 49.6532 81.92C49.7365 81.7633 49.7782 81.5817 49.7782 81.375ZM55.6351 79.96C55.8484 79.96 56.0384 80.005 56.2051 80.095C56.3717 80.1817 56.5034 80.3133 56.6001 80.49C56.6967 80.6667 56.7451 80.8817 56.7451 81.135V82.75H56.2951V81.2C56.2951 80.9267 56.2267 80.7183 56.0901 80.575C55.9567 80.4283 55.7751 80.355 55.5451 80.355C55.3084 80.355 55.1201 80.4317 54.9801 80.585C54.8401 80.735 54.7701 80.9533 54.7701 81.24V82.75H54.3201V81.2C54.3201 80.9267 54.2517 80.7183 54.1151 80.575C53.9817 80.4283 53.8001 80.355 53.5701 80.355C53.3334 80.355 53.1451 80.4317 53.0051 80.585C52.8651 80.735 52.7951 80.9533 52.7951 81.24V82.75H52.3401V80.01H52.7951V80.405C52.8851 80.2617 53.0051 80.1517 53.1551 80.075C53.3084 79.9983 53.4767 79.96 53.6601 79.96C53.8901 79.96 54.0934 80.0117 54.2701 80.115C54.4467 80.2183 54.5784 80.37 54.6651 80.57C54.7417 80.3767 54.8684 80.2267 55.0451 80.12C55.2217 80.0133 55.4184 79.96 55.6351 79.96ZM57.3214 81.37C57.3214 81.09 57.3781 80.845 57.4914 80.635C57.6048 80.4217 57.7598 80.2567 57.9564 80.14C58.1564 80.0233 58.3781 79.965 58.6214 79.965C58.8614 79.965 59.0698 80.0167 59.2464 80.12C59.4231 80.2233 59.5548 80.3533 59.6414 80.51V80.01H60.1014V82.75H59.6414V82.24C59.5514 82.4 59.4164 82.5333 59.2364 82.64C59.0598 82.7433 58.8531 82.795 58.6164 82.795C58.3731 82.795 58.1531 82.735 57.9564 82.615C57.7598 82.495 57.6048 82.3267 57.4914 82.11C57.3781 81.8933 57.3214 81.6467 57.3214 81.37ZM59.6414 81.375C59.6414 81.1683 59.5998 80.9883 59.5164 80.835C59.4331 80.6817 59.3198 80.565 59.1764 80.485C59.0364 80.4017 58.8814 80.36 58.7114 80.36C58.5414 80.36 58.3864 80.4 58.2464 80.48C58.1064 80.56 57.9948 80.6767 57.9114 80.83C57.8281 80.9833 57.7864 81.1633 57.7864 81.37C57.7864 81.58 57.8281 81.7633 57.9114 81.92C57.9948 82.0733 58.1064 82.1917 58.2464 82.275C58.3864 82.355 58.5414 82.395 58.7114 82.395C58.8814 82.395 59.0364 82.355 59.1764 82.275C59.3198 82.1917 59.4331 82.0733 59.5164 81.92C59.5998 81.7633 59.6414 81.5817 59.6414 81.375ZM62.2054 79.96C62.5387 79.96 62.8087 80.0617 63.0154 80.265C63.222 80.465 63.3254 80.755 63.3254 81.135V82.75H62.8754V81.2C62.8754 80.9267 62.807 80.7183 62.6704 80.575C62.5337 80.4283 62.347 80.355 62.1104 80.355C61.8704 80.355 61.6787 80.43 61.5354 80.58C61.3954 80.73 61.3254 80.9483 61.3254 81.235V82.75H60.8704V80.01H61.3254V80.4C61.4154 80.26 61.537 80.1517 61.6904 80.075C61.847 79.9983 62.0187 79.96 62.2054 79.96ZM63.8986 81.37C63.8986 81.09 63.9553 80.845 64.0686 80.635C64.1819 80.4217 64.3369 80.2567 64.5336 80.14C64.7336 80.0233 64.9553 79.965 65.1986 79.965C65.4386 79.965 65.6469 80.0167 65.8236 80.12C66.0003 80.2233 66.1319 80.3533 66.2186 80.51V80.01H66.6786V82.75H66.2186V82.24C66.1286 82.4 65.9936 82.5333 65.8136 82.64C65.6369 82.7433 65.4303 82.795 65.1936 82.795C64.9503 82.795 64.7303 82.735 64.5336 82.615C64.3369 82.495 64.1819 82.3267 64.0686 82.11C63.9553 81.8933 63.8986 81.6467 63.8986 81.37ZM66.2186 81.375C66.2186 81.1683 66.1769 80.9883 66.0936 80.835C66.0103 80.6817 65.8969 80.565 65.7536 80.485C65.6136 80.4017 65.4586 80.36 65.2886 80.36C65.1186 80.36 64.9636 80.4 64.8236 80.48C64.6836 80.56 64.5719 80.6767 64.4886 80.83C64.4053 80.9833 64.3636 81.1633 64.3636 81.37C64.3636 81.58 64.4053 81.7633 64.4886 81.92C64.5719 82.0733 64.6836 82.1917 64.8236 82.275C64.9636 82.355 65.1186 82.395 65.2886 82.395C65.4586 82.395 65.6136 82.355 65.7536 82.275C65.8969 82.1917 66.0103 82.0733 66.0936 81.92C66.1769 81.7633 66.2186 81.5817 66.2186 81.375ZM68.5775 79.965C68.8142 79.965 69.0208 80.0167 69.1975 80.12C69.3775 80.2233 69.5108 80.3533 69.5975 80.51V80.01H70.0575V82.81C70.0575 83.06 70.0042 83.2817 69.8975 83.475C69.7908 83.6717 69.6375 83.825 69.4375 83.935C69.2408 84.045 69.0108 84.1 68.7475 84.1C68.3875 84.1 68.0875 84.015 67.8475 83.845C67.6075 83.675 67.4658 83.4433 67.4225 83.15H67.8725C67.9225 83.3167 68.0258 83.45 68.1825 83.55C68.3392 83.6533 68.5275 83.705 68.7475 83.705C68.9975 83.705 69.2008 83.6267 69.3575 83.47C69.5175 83.3133 69.5975 83.0933 69.5975 82.81V82.235C69.5075 82.395 69.3742 82.5283 69.1975 82.635C69.0208 82.7417 68.8142 82.795 68.5775 82.795C68.3342 82.795 68.1125 82.735 67.9125 82.615C67.7158 82.495 67.5608 82.3267 67.4475 82.11C67.3342 81.8933 67.2775 81.6467 67.2775 81.37C67.2775 81.09 67.3342 80.845 67.4475 80.635C67.5608 80.4217 67.7158 80.2567 67.9125 80.14C68.1125 80.0233 68.3342 79.965 68.5775 79.965ZM69.5975 81.375C69.5975 81.1683 69.5558 80.9883 69.4725 80.835C69.3892 80.6817 69.2758 80.565 69.1325 80.485C68.9925 80.4017 68.8375 80.36 68.6675 80.36C68.4975 80.36 68.3425 80.4 68.2025 80.48C68.0625 80.56 67.9508 80.6767 67.8675 80.83C67.7842 80.9833 67.7425 81.1633 67.7425 81.37C67.7425 81.58 67.7842 81.7633 67.8675 81.92C67.9508 82.0733 68.0625 82.1917 68.2025 82.275C68.3425 82.355 68.4975 82.395 68.6675 82.395C68.8375 82.395 68.9925 82.355 69.1325 82.275C69.2758 82.1917 69.3892 82.0733 69.4725 81.92C69.5558 81.7633 69.5975 81.5817 69.5975 81.375ZM71.0614 79.565C70.9747 79.565 70.9014 79.535 70.8414 79.475C70.7814 79.415 70.7514 79.3417 70.7514 79.255C70.7514 79.1683 70.7814 79.095 70.8414 79.035C70.9014 78.975 70.9747 78.945 71.0614 78.945C71.1447 78.945 71.2147 78.975 71.2714 79.035C71.3314 79.095 71.3614 79.1683 71.3614 79.255C71.3614 79.3417 71.3314 79.415 71.2714 79.475C71.2147 79.535 71.1447 79.565 71.0614 79.565ZM71.2814 80.01V82.75H70.8264V80.01H71.2814ZM73.3919 79.96C73.7252 79.96 73.9952 80.0617 74.2019 80.265C74.4085 80.465 74.5119 80.755 74.5119 81.135V82.75H74.0619V81.2C74.0619 80.9267 73.9935 80.7183 73.8569 80.575C73.7202 80.4283 73.5335 80.355 73.2969 80.355C73.0569 80.355 72.8652 80.43 72.7219 80.58C72.5819 80.73 72.5119 80.9483 72.5119 81.235V82.75H72.0569V80.01H72.5119V80.4C72.6019 80.26 72.7235 80.1517 72.8769 80.075C73.0335 79.9983 73.2052 79.96 73.3919 79.96ZM76.3851 79.965C76.6218 79.965 76.8285 80.0167 77.0051 80.12C77.1851 80.2233 77.3185 80.3533 77.4051 80.51V80.01H77.8651V82.81C77.8651 83.06 77.8118 83.2817 77.7051 83.475C77.5985 83.6717 77.4451 83.825 77.2451 83.935C77.0485 84.045 76.8185 84.1 76.5551 84.1C76.1951 84.1 75.8951 84.015 75.6551 83.845C75.4151 83.675 75.2735 83.4433 75.2301 83.15H75.6801C75.7301 83.3167 75.8335 83.45 75.9901 83.55C76.1468 83.6533 76.3351 83.705 76.5551 83.705C76.8051 83.705 77.0085 83.6267 77.1651 83.47C77.3251 83.3133 77.4051 83.0933 77.4051 82.81V82.235C77.3151 82.395 77.1818 82.5283 77.0051 82.635C76.8285 82.7417 76.6218 82.795 76.3851 82.795C76.1418 82.795 75.9201 82.735 75.7201 82.615C75.5235 82.495 75.3685 82.3267 75.2551 82.11C75.1418 81.8933 75.0851 81.6467 75.0851 81.37C75.0851 81.09 75.1418 80.845 75.2551 80.635C75.3685 80.4217 75.5235 80.2567 75.7201 80.14C75.9201 80.0233 76.1418 79.965 76.3851 79.965ZM77.4051 81.375C77.4051 81.1683 77.3635 80.9883 77.2801 80.835C77.1968 80.6817 77.0835 80.565 76.9401 80.485C76.8001 80.4017 76.6451 80.36 76.4751 80.36C76.3051 80.36 76.1501 80.4 76.0101 80.48C75.8701 80.56 75.7585 80.6767 75.6751 80.83C75.5918 80.9833 75.5501 81.1633 75.5501 81.37C75.5501 81.58 75.5918 81.7633 75.6751 81.92C75.7585 82.0733 75.8701 82.1917 76.0101 82.275C76.1501 82.355 76.3051 82.395 76.4751 82.395C76.6451 82.395 76.8001 82.355 76.9401 82.275C77.0835 82.1917 77.1968 82.0733 77.2801 81.92C77.3635 81.7633 77.4051 81.5817 77.4051 81.375ZM13.94 85.385V87C13.94 87.1333 13.9683 87.2283 14.025 87.285C14.0817 87.3383 14.18 87.365 14.32 87.365H14.655V87.75H14.245C13.9917 87.75 13.8017 87.6917 13.675 87.575C13.5483 87.4583 13.485 87.2667 13.485 87V85.385H13.13V85.01H13.485V84.32H13.94V85.01H14.655V85.385H13.94ZM17.7063 86.275C17.7063 86.3617 17.7013 86.4533 17.6913 86.55H15.5013C15.518 86.82 15.6096 87.0317 15.7763 87.185C15.9463 87.335 16.1513 87.41 16.3913 87.41C16.588 87.41 16.7513 87.365 16.8813 87.275C17.0146 87.1817 17.108 87.0583 17.1613 86.905H17.6513C17.578 87.1683 17.4313 87.3833 17.2113 87.55C16.9913 87.7133 16.718 87.795 16.3913 87.795C16.1313 87.795 15.898 87.7367 15.6913 87.62C15.488 87.5033 15.328 87.3383 15.2113 87.125C15.0946 86.9083 15.0363 86.6583 15.0363 86.375C15.0363 86.0917 15.093 85.8433 15.2063 85.63C15.3196 85.4167 15.478 85.2533 15.6813 85.14C15.888 85.0233 16.1246 84.965 16.3913 84.965C16.6513 84.965 16.8813 85.0217 17.0813 85.135C17.2813 85.2483 17.4346 85.405 17.5413 85.605C17.6513 85.8017 17.7063 86.025 17.7063 86.275ZM17.2363 86.18C17.2363 86.0067 17.198 85.8583 17.1213 85.735C17.0446 85.6083 16.9396 85.5133 16.8063 85.45C16.6763 85.3833 16.5313 85.35 16.3713 85.35C16.1413 85.35 15.9446 85.4233 15.7813 85.57C15.6213 85.7167 15.5296 85.92 15.5063 86.18H17.2363ZM18.1369 86.37C18.1369 86.09 18.1935 85.845 18.3069 85.635C18.4202 85.4217 18.5752 85.2567 18.7719 85.14C18.9719 85.0233 19.1935 84.965 19.4369 84.965C19.6769 84.965 19.8852 85.0167 20.0619 85.12C20.2385 85.2233 20.3702 85.3533 20.4569 85.51V85.01H20.9169V87.75H20.4569V87.24C20.3669 87.4 20.2319 87.5333 20.0519 87.64C19.8752 87.7433 19.6685 87.795 19.4319 87.795C19.1885 87.795 18.9685 87.735 18.7719 87.615C18.5752 87.495 18.4202 87.3267 18.3069 87.11C18.1935 86.8933 18.1369 86.6467 18.1369 86.37ZM20.4569 86.375C20.4569 86.1683 20.4152 85.9883 20.3319 85.835C20.2485 85.6817 20.1352 85.565 19.9919 85.485C19.8519 85.4017 19.6969 85.36 19.5269 85.36C19.3569 85.36 19.2019 85.4 19.0619 85.48C18.9219 85.56 18.8102 85.6767 18.7269 85.83C18.6435 85.9833 18.6019 86.1633 18.6019 86.37C18.6019 86.58 18.6435 86.7633 18.7269 86.92C18.8102 87.0733 18.9219 87.1917 19.0619 87.275C19.2019 87.355 19.3569 87.395 19.5269 87.395C19.6969 87.395 19.8519 87.355 19.9919 87.275C20.1352 87.1917 20.2485 87.0733 20.3319 86.92C20.4152 86.7633 20.4569 86.5817 20.4569 86.375ZM24.9808 84.96C25.1941 84.96 25.3841 85.005 25.5508 85.095C25.7174 85.1817 25.8491 85.3133 25.9458 85.49C26.0424 85.6667 26.0908 85.8817 26.0908 86.135V87.75H25.6408V86.2C25.6408 85.9267 25.5724 85.7183 25.4358 85.575C25.3024 85.4283 25.1208 85.355 24.8908 85.355C24.6541 85.355 24.4658 85.4317 24.3258 85.585C24.1858 85.735 24.1158 85.9533 24.1158 86.24V87.75H23.6658V86.2C23.6658 85.9267 23.5974 85.7183 23.4608 85.575C23.3274 85.4283 23.1458 85.355 22.9158 85.355C22.6791 85.355 22.4908 85.4317 22.3508 85.585C22.2108 85.735 22.1408 85.9533 22.1408 86.24V87.75H21.6858V85.01H22.1408V85.405C22.2308 85.2617 22.3508 85.1517 22.5008 85.075C22.6541 84.9983 22.8224 84.96 23.0058 84.96C23.2358 84.96 23.4391 85.0117 23.6158 85.115C23.7924 85.2183 23.9241 85.37 24.0108 85.57C24.0874 85.3767 24.2141 85.2267 24.3908 85.12C24.5674 85.0133 24.7641 84.96 24.9808 84.96ZM29.3652 87.795C29.1085 87.795 28.8752 87.7367 28.6652 87.62C28.4585 87.5033 28.2952 87.3383 28.1752 87.125C28.0585 86.9083 28.0002 86.6583 28.0002 86.375C28.0002 86.095 28.0602 85.8483 28.1802 85.635C28.3035 85.4183 28.4702 85.2533 28.6802 85.14C28.8902 85.0233 29.1252 84.965 29.3852 84.965C29.6452 84.965 29.8802 85.0233 30.0902 85.14C30.3002 85.2533 30.4652 85.4167 30.5852 85.63C30.7085 85.8433 30.7702 86.0917 30.7702 86.375C30.7702 86.6583 30.7068 86.9083 30.5802 87.125C30.4568 87.3383 30.2885 87.5033 30.0752 87.62C29.8618 87.7367 29.6252 87.795 29.3652 87.795ZM29.3652 87.395C29.5285 87.395 29.6818 87.3567 29.8252 87.28C29.9685 87.2033 30.0835 87.0883 30.1702 86.935C30.2602 86.7817 30.3052 86.595 30.3052 86.375C30.3052 86.155 30.2618 85.9683 30.1752 85.815C30.0885 85.6617 29.9752 85.5483 29.8352 85.475C29.6952 85.3983 29.5435 85.36 29.3802 85.36C29.2135 85.36 29.0602 85.3983 28.9202 85.475C28.7835 85.5483 28.6735 85.6617 28.5902 85.815C28.5068 85.9683 28.4652 86.155 28.4652 86.375C28.4652 86.5983 28.5052 86.7867 28.5852 86.94C28.6685 87.0933 28.7785 87.2083 28.9152 87.285C29.0518 87.3583 29.2018 87.395 29.3652 87.395ZM32.7034 84.96C33.0367 84.96 33.3067 85.0617 33.5134 85.265C33.7201 85.465 33.8234 85.755 33.8234 86.135V87.75H33.3734V86.2C33.3734 85.9267 33.3051 85.7183 33.1684 85.575C33.0317 85.4283 32.8451 85.355 32.6084 85.355C32.3684 85.355 32.1767 85.43 32.0334 85.58C31.8934 85.73 31.8234 85.9483 31.8234 86.235V87.75H31.3684V85.01H31.8234V85.4C31.9134 85.26 32.0351 85.1517 32.1884 85.075C32.3451 84.9983 32.5167 84.96 32.7034 84.96ZM36.4546 85.385V87C36.4546 87.1333 36.483 87.2283 36.5396 87.285C36.5963 87.3383 36.6946 87.365 36.8346 87.365H37.1696V87.75H36.7596C36.5063 87.75 36.3163 87.6917 36.1896 87.575C36.063 87.4583 35.9996 87.2667 35.9996 87V85.385H35.6446V85.01H35.9996V84.32H36.4546V85.01H37.1696V85.385H36.4546ZM39.0809 84.96C39.2876 84.96 39.4743 85.005 39.6409 85.095C39.8076 85.1817 39.9376 85.3133 40.0309 85.49C40.1276 85.6667 40.1759 85.8817 40.1759 86.135V87.75H39.7259V86.2C39.7259 85.9267 39.6576 85.7183 39.5209 85.575C39.3843 85.4283 39.1976 85.355 38.9609 85.355C38.7209 85.355 38.5293 85.43 38.3859 85.58C38.2459 85.73 38.1759 85.9483 38.1759 86.235V87.75H37.7209V84.05H38.1759V85.4C38.2659 85.26 38.3893 85.1517 38.5459 85.075C38.7059 84.9983 38.8843 84.96 39.0809 84.96ZM43.4192 86.275C43.4192 86.3617 43.4142 86.4533 43.4042 86.55H41.2142C41.2308 86.82 41.3225 87.0317 41.4892 87.185C41.6592 87.335 41.8642 87.41 42.1042 87.41C42.3008 87.41 42.4642 87.365 42.5942 87.275C42.7275 87.1817 42.8208 87.0583 42.8742 86.905H43.3642C43.2908 87.1683 43.1442 87.3833 42.9242 87.55C42.7042 87.7133 42.4308 87.795 42.1042 87.795C41.8442 87.795 41.6108 87.7367 41.4042 87.62C41.2008 87.5033 41.0408 87.3383 40.9242 87.125C40.8075 86.9083 40.7492 86.6583 40.7492 86.375C40.7492 86.0917 40.8058 85.8433 40.9192 85.63C41.0325 85.4167 41.1908 85.2533 41.3942 85.14C41.6008 85.0233 41.8375 84.965 42.1042 84.965C42.3642 84.965 42.5942 85.0217 42.7942 85.135C42.9942 85.2483 43.1475 85.405 43.2542 85.605C43.3642 85.8017 43.4192 86.025 43.4192 86.275ZM42.9492 86.18C42.9492 86.0067 42.9108 85.8583 42.8342 85.735C42.7575 85.6083 42.6525 85.5133 42.5192 85.45C42.3892 85.3833 42.2442 85.35 42.0842 85.35C41.8542 85.35 41.6575 85.4233 41.4942 85.57C41.3342 85.7167 41.2425 85.92 41.2192 86.18H42.9492ZM44.2548 84.565C44.1681 84.565 44.0948 84.535 44.0348 84.475C43.9748 84.415 43.9448 84.3417 43.9448 84.255C43.9448 84.1683 43.9748 84.095 44.0348 84.035C44.0948 83.975 44.1681 83.945 44.2548 83.945C44.3381 83.945 44.4081 83.975 44.4648 84.035C44.5248 84.095 44.5548 84.1683 44.5548 84.255C44.5548 84.3417 44.5248 84.415 44.4648 84.475C44.4081 84.535 44.3381 84.565 44.2548 84.565ZM44.4748 85.01V87.75H44.0198V85.01H44.4748ZM45.7052 85.455C45.7852 85.2983 45.8986 85.1767 46.0452 85.09C46.1952 85.0033 46.3769 84.96 46.5902 84.96V85.43H46.4702C45.9602 85.43 45.7052 85.7067 45.7052 86.26V87.75H45.2502V85.01H45.7052V85.455ZM49.6435 87.795C49.3868 87.795 49.1535 87.7367 48.9435 87.62C48.7368 87.5033 48.5735 87.3383 48.4535 87.125C48.3368 86.9083 48.2785 86.6583 48.2785 86.375C48.2785 86.095 48.3385 85.8483 48.4585 85.635C48.5818 85.4183 48.7485 85.2533 48.9585 85.14C49.1685 85.0233 49.4035 84.965 49.6635 84.965C49.9235 84.965 50.1585 85.0233 50.3685 85.14C50.5785 85.2533 50.7435 85.4167 50.8635 85.63C50.9868 85.8433 51.0485 86.0917 51.0485 86.375C51.0485 86.6583 50.9851 86.9083 50.8585 87.125C50.7351 87.3383 50.5668 87.5033 50.3535 87.62C50.1401 87.7367 49.9035 87.795 49.6435 87.795ZM49.6435 87.395C49.8068 87.395 49.9601 87.3567 50.1035 87.28C50.2468 87.2033 50.3618 87.0883 50.4485 86.935C50.5385 86.7817 50.5835 86.595 50.5835 86.375C50.5835 86.155 50.5401 85.9683 50.4535 85.815C50.3668 85.6617 50.2535 85.5483 50.1135 85.475C49.9735 85.3983 49.8218 85.36 49.6585 85.36C49.4918 85.36 49.3385 85.3983 49.1985 85.475C49.0618 85.5483 48.9518 85.6617 48.8685 85.815C48.7851 85.9683 48.7435 86.155 48.7435 86.375C48.7435 86.5983 48.7835 86.7867 48.8635 86.94C48.9468 87.0933 49.0568 87.2083 49.1935 87.285C49.3301 87.3583 49.4801 87.395 49.6435 87.395ZM52.1017 85.455C52.1817 85.2983 52.2951 85.1767 52.4417 85.09C52.5917 85.0033 52.7734 84.96 52.9867 84.96V85.43H52.8667C52.3567 85.43 52.1017 85.7067 52.1017 86.26V87.75H51.6467V85.01H52.1017V85.455ZM54.642 84.965C54.8786 84.965 55.0853 85.0167 55.262 85.12C55.442 85.2233 55.5753 85.3533 55.662 85.51V85.01H56.122V87.81C56.122 88.06 56.0686 88.2817 55.962 88.475C55.8553 88.6717 55.702 88.825 55.502 88.935C55.3053 89.045 55.0753 89.1 54.812 89.1C54.452 89.1 54.152 89.015 53.912 88.845C53.672 88.675 53.5303 88.4433 53.487 88.15H53.937C53.987 88.3167 54.0903 88.45 54.247 88.55C54.4036 88.6533 54.592 88.705 54.812 88.705C55.062 88.705 55.2653 88.6267 55.422 88.47C55.582 88.3133 55.662 88.0933 55.662 87.81V87.235C55.572 87.395 55.4386 87.5283 55.262 87.635C55.0853 87.7417 54.8786 87.795 54.642 87.795C54.3986 87.795 54.177 87.735 53.977 87.615C53.7803 87.495 53.6253 87.3267 53.512 87.11C53.3986 86.8933 53.342 86.6467 53.342 86.37C53.342 86.09 53.3986 85.845 53.512 85.635C53.6253 85.4217 53.7803 85.2567 53.977 85.14C54.177 85.0233 54.3986 84.965 54.642 84.965ZM55.662 86.375C55.662 86.1683 55.6203 85.9883 55.537 85.835C55.4536 85.6817 55.3403 85.565 55.197 85.485C55.057 85.4017 54.902 85.36 54.732 85.36C54.562 85.36 54.407 85.4 54.267 85.48C54.127 85.56 54.0153 85.6767 53.932 85.83C53.8486 85.9833 53.807 86.1633 53.807 86.37C53.807 86.58 53.8486 86.7633 53.932 86.92C54.0153 87.0733 54.127 87.1917 54.267 87.275C54.407 87.355 54.562 87.395 54.732 87.395C54.902 87.395 55.057 87.355 55.197 87.275C55.3403 87.1917 55.4536 87.0733 55.537 86.92C55.6203 86.7633 55.662 86.5817 55.662 86.375ZM56.7209 86.37C56.7209 86.09 56.7775 85.845 56.8909 85.635C57.0042 85.4217 57.1592 85.2567 57.3559 85.14C57.5559 85.0233 57.7775 84.965 58.0209 84.965C58.2609 84.965 58.4692 85.0167 58.6459 85.12C58.8225 85.2233 58.9542 85.3533 59.0409 85.51V85.01H59.5009V87.75H59.0409V87.24C58.9509 87.4 58.8159 87.5333 58.6359 87.64C58.4592 87.7433 58.2525 87.795 58.0159 87.795C57.7725 87.795 57.5525 87.735 57.3559 87.615C57.1592 87.495 57.0042 87.3267 56.8909 87.11C56.7775 86.8933 56.7209 86.6467 56.7209 86.37ZM59.0409 86.375C59.0409 86.1683 58.9992 85.9883 58.9159 85.835C58.8325 85.6817 58.7192 85.565 58.5759 85.485C58.4359 85.4017 58.2809 85.36 58.1109 85.36C57.9409 85.36 57.7859 85.4 57.6459 85.48C57.5059 85.56 57.3942 85.6767 57.3109 85.83C57.2275 85.9833 57.1859 86.1633 57.1859 86.37C57.1859 86.58 57.2275 86.7633 57.3109 86.92C57.3942 87.0733 57.5059 87.1917 57.6459 87.275C57.7859 87.355 57.9409 87.395 58.1109 87.395C58.2809 87.395 58.4359 87.355 58.5759 87.275C58.7192 87.1917 58.8325 87.0733 58.9159 86.92C58.9992 86.7633 59.0409 86.5817 59.0409 86.375ZM61.6048 84.96C61.9381 84.96 62.2081 85.0617 62.4148 85.265C62.6214 85.465 62.7248 85.755 62.7248 86.135V87.75H62.2748V86.2C62.2748 85.9267 62.2064 85.7183 62.0698 85.575C61.9331 85.4283 61.7464 85.355 61.5098 85.355C61.2698 85.355 61.0781 85.43 60.9348 85.58C60.7948 85.73 60.7248 85.9483 60.7248 86.235V87.75H60.2698V85.01H60.7248V85.4C60.8148 85.26 60.9364 85.1517 61.0898 85.075C61.2464 84.9983 61.4181 84.96 61.6048 84.96ZM63.703 84.565C63.6163 84.565 63.543 84.535 63.483 84.475C63.423 84.415 63.393 84.3417 63.393 84.255C63.393 84.1683 63.423 84.095 63.483 84.035C63.543 83.975 63.6163 83.945 63.703 83.945C63.7863 83.945 63.8563 83.975 63.913 84.035C63.973 84.095 64.003 84.1683 64.003 84.255C64.003 84.3417 63.973 84.415 63.913 84.475C63.8563 84.535 63.7863 84.565 63.703 84.565ZM63.923 85.01V87.75H63.468V85.01H63.923ZM65.0385 87.375H66.3835V87.75H64.5185V87.375L65.8485 85.38H64.5285V85.01H66.3735V85.38L65.0385 87.375ZM66.8039 86.37C66.8039 86.09 66.8605 85.845 66.9739 85.635C67.0872 85.4217 67.2422 85.2567 67.4389 85.14C67.6389 85.0233 67.8605 84.965 68.1039 84.965C68.3439 84.965 68.5522 85.0167 68.7289 85.12C68.9055 85.2233 69.0372 85.3533 69.1239 85.51V85.01H69.5839V87.75H69.1239V87.24C69.0339 87.4 68.8989 87.5333 68.7189 87.64C68.5422 87.7433 68.3355 87.795 68.0989 87.795C67.8555 87.795 67.6355 87.735 67.4389 87.615C67.2422 87.495 67.0872 87.3267 66.9739 87.11C66.8605 86.8933 66.8039 86.6467 66.8039 86.37ZM69.1239 86.375C69.1239 86.1683 69.0822 85.9883 68.9989 85.835C68.9155 85.6817 68.8022 85.565 68.6589 85.485C68.5189 85.4017 68.3639 85.36 68.1939 85.36C68.0239 85.36 67.8689 85.4 67.7289 85.48C67.5889 85.56 67.4772 85.6767 67.3939 85.83C67.3105 85.9833 67.2689 86.1633 67.2689 86.37C67.2689 86.58 67.3105 86.7633 67.3939 86.92C67.4772 87.0733 67.5889 87.1917 67.7289 87.275C67.8689 87.355 68.0239 87.395 68.1939 87.395C68.3639 87.395 68.5189 87.355 68.6589 87.275C68.8022 87.1917 68.9155 87.0733 68.9989 86.92C69.0822 86.7633 69.1239 86.5817 69.1239 86.375ZM70.9078 85.385V87C70.9078 87.1333 70.9361 87.2283 70.9928 87.285C71.0494 87.3383 71.1478 87.365 71.2878 87.365H71.6228V87.75H71.2128C70.9594 87.75 70.7694 87.6917 70.6428 87.575C70.5161 87.4583 70.4528 87.2667 70.4528 87V85.385H70.0978V85.01H70.4528V84.32H70.9078V85.01H71.6228V85.385H70.9078ZM72.4091 84.565C72.3224 84.565 72.2491 84.535 72.1891 84.475C72.1291 84.415 72.0991 84.3417 72.0991 84.255C72.0991 84.1683 72.1291 84.095 72.1891 84.035C72.2491 83.975 72.3224 83.945 72.4091 83.945C72.4924 83.945 72.5624 83.975 72.6191 84.035C72.6791 84.095 72.7091 84.1683 72.7091 84.255C72.7091 84.3417 72.6791 84.415 72.6191 84.475C72.5624 84.535 72.4924 84.565 72.4091 84.565ZM72.6291 85.01V87.75H72.1741V85.01H72.6291ZM74.5995 87.795C74.3429 87.795 74.1095 87.7367 73.8995 87.62C73.6929 87.5033 73.5295 87.3383 73.4095 87.125C73.2929 86.9083 73.2345 86.6583 73.2345 86.375C73.2345 86.095 73.2945 85.8483 73.4145 85.635C73.5379 85.4183 73.7045 85.2533 73.9145 85.14C74.1245 85.0233 74.3595 84.965 74.6195 84.965C74.8795 84.965 75.1145 85.0233 75.3245 85.14C75.5345 85.2533 75.6995 85.4167 75.8195 85.63C75.9429 85.8433 76.0045 86.0917 76.0045 86.375C76.0045 86.6583 75.9412 86.9083 75.8145 87.125C75.6912 87.3383 75.5229 87.5033 75.3095 87.62C75.0962 87.7367 74.8595 87.795 74.5995 87.795ZM74.5995 87.395C74.7629 87.395 74.9162 87.3567 75.0595 87.28C75.2029 87.2033 75.3179 87.0883 75.4045 86.935C75.4945 86.7817 75.5395 86.595 75.5395 86.375C75.5395 86.155 75.4962 85.9683 75.4095 85.815C75.3229 85.6617 75.2095 85.5483 75.0695 85.475C74.9295 85.3983 74.7779 85.36 74.6145 85.36C74.4479 85.36 74.2945 85.3983 74.1545 85.475C74.0179 85.5483 73.9079 85.6617 73.8245 85.815C73.7412 85.9683 73.6995 86.155 73.6995 86.375C73.6995 86.5983 73.7395 86.7867 73.8195 86.94C73.9029 87.0933 74.0129 87.2083 74.1495 87.285C74.2862 87.3583 74.4362 87.395 74.5995 87.395ZM77.9378 84.96C78.2711 84.96 78.5411 85.0617 78.7478 85.265C78.9544 85.465 79.0578 85.755 79.0578 86.135V87.75H78.6078V86.2C78.6078 85.9267 78.5394 85.7183 78.4028 85.575C78.2661 85.4283 78.0794 85.355 77.8428 85.355C77.6028 85.355 77.4111 85.43 77.2678 85.58C77.1278 85.73 77.0578 85.9483 77.0578 86.235V87.75H76.6028V85.01H77.0578V85.4C77.1478 85.26 77.2694 85.1517 77.4228 85.075C77.5794 84.9983 77.7511 84.96 77.9378 84.96ZM79.946 87.78C79.8593 87.78 79.786 87.75 79.726 87.69C79.666 87.63 79.636 87.5567 79.636 87.47C79.636 87.3833 79.666 87.31 79.726 87.25C79.786 87.19 79.8593 87.16 79.946 87.16C80.0293 87.16 80.0993 87.19 80.156 87.25C80.216 87.31 80.246 87.3833 80.246 87.47C80.246 87.5567 80.216 87.63 80.156 87.69C80.0993 87.75 80.0293 87.78 79.946 87.78Z" fill="white"/>
<defs>
<linearGradient id="paint0_linear_77_753" x1="3.7742" y1="8.01891" x2="107.987" y2="43.8313" gradientUnits="userSpaceOnUse">
<stop stop-color="#660066"/>
<stop offset="1" stop-color="#3E023E"/>
</linearGradient>
<clipPath id="clip0_77_753">
<rect width="10" height="10" fill="white" transform="translate(13 27.77)"/>
</clipPath>
</defs>
</svg>
