<svg width="52" height="52" viewBox="0 0 52 52" fill="none" xmlns="http://www.w3.org/2000/svg">
<rect width="52" height="52" rx="26" fill="#1B1B1B"/>
<path d="M31.8369 20.0799H31.8476M20.5348 15.2361H31.2987C34.271 15.2361 36.6806 17.6457 36.6806 20.6181V31.3819C36.6806 34.3543 34.271 36.7639 31.2987 36.7639H20.5348C17.5624 36.7639 15.1528 34.3543 15.1528 31.3819V20.6181C15.1528 17.6457 17.5624 15.2361 20.5348 15.2361ZM30.2223 25.3219C30.3551 26.2177 30.2021 27.1326 29.785 27.9364C29.3679 28.7403 28.708 29.3921 27.899 29.7993C27.0901 30.2065 26.1734 30.3482 25.2793 30.2043C24.3852 30.0604 23.5592 29.6383 22.9188 28.9979C22.2784 28.3576 21.8563 27.5316 21.7124 26.6375C21.5685 25.7433 21.7103 24.8266 22.1174 24.0177C22.5246 23.2088 23.1764 22.5488 23.9803 22.1317C24.7841 21.7146 25.699 21.5616 26.5948 21.6944C27.5086 21.8299 28.3546 22.2557 29.0078 22.9089C29.661 23.5621 30.0868 24.4081 30.2223 25.3219Z" stroke="#EBFFEE" stroke-width="2.26042" stroke-linecap="round" stroke-linejoin="round"/>
</svg>
