<svg width="52" height="52" viewBox="0 0 52 52" fill="none" xmlns="http://www.w3.org/2000/svg">
<rect width="52" height="52" rx="26" fill="#1B1B1B"/>
<path d="M18.2405 20.1491C17.6696 20.1491 17.1912 19.9716 16.8054 19.6167C16.4351 19.2463 16.2499 18.7911 16.2499 18.251C16.2499 17.711 16.4351 17.2634 16.8054 16.9085C17.1912 16.5382 17.6696 16.353 18.2405 16.353C18.8115 16.353 19.2821 16.5382 19.6525 16.9085C20.0383 17.2634 20.2311 17.711 20.2311 18.251C20.2311 18.7911 20.0383 19.2463 19.6525 19.6167C19.2821 19.9716 18.8115 20.1491 18.2405 20.1491ZM19.8377 21.6767V34.5H16.5971V21.6767H19.8377ZM30.1453 21.4916C31.673 21.4916 32.9075 21.9777 33.8488 22.9498C34.7901 23.9065 35.2607 25.249 35.2607 26.9773V34.5H32.0202V27.4171C32.0202 26.3987 31.7656 25.6194 31.2564 25.0793C30.7471 24.5238 30.0527 24.246 29.1732 24.246C28.2782 24.246 27.5683 24.5238 27.0437 25.0793C26.5345 25.6194 26.2798 26.3987 26.2798 27.4171V34.5H23.0393V21.6767H26.2798V23.2739C26.7119 22.7183 27.2597 22.2863 27.9233 21.9777C28.6022 21.6536 29.3429 21.4916 30.1453 21.4916Z" fill="white"/>
</svg>
