<svg width="416" height="398" viewBox="0 0 416 398" fill="none" xmlns="http://www.w3.org/2000/svg">
<rect width="416" height="398" rx="30" fill="url(#paint0_linear_70_215)"/>
<path d="M72.5001 184.367C73.3894 183.597 74.1027 182.645 74.5915 181.575C75.0804 180.505 75.3334 179.343 75.3334 178.167C75.3334 175.956 74.4554 173.837 72.8926 172.274C71.3298 170.711 69.2102 169.833 67.0001 169.833C64.7899 169.833 62.6703 170.711 61.1075 172.274C59.5447 173.837 58.6667 175.956 58.6667 178.167C58.6667 179.343 58.9198 180.505 59.4086 181.575C59.8975 182.645 60.6108 183.597 61.5001 184.367C59.167 185.423 57.1875 187.129 55.7984 189.281C54.4092 191.433 53.6692 193.939 53.6667 196.5C53.6667 196.942 53.8423 197.366 54.1549 197.678C54.4675 197.991 54.8914 198.167 55.3334 198.167C55.7754 198.167 56.1994 197.991 56.5119 197.678C56.8245 197.366 57.0001 196.942 57.0001 196.5C57.0001 193.848 58.0536 191.304 59.929 189.429C61.8044 187.553 64.3479 186.5 67.0001 186.5C69.6522 186.5 72.1958 187.553 74.0711 189.429C75.9465 191.304 77.0001 193.848 77.0001 196.5C77.0001 196.942 77.1757 197.366 77.4882 197.678C77.8008 197.991 78.2247 198.167 78.6667 198.167C79.1088 198.167 79.5327 197.991 79.8453 197.678C80.1578 197.366 80.3334 196.942 80.3334 196.5C80.331 193.939 79.5909 191.433 78.2018 189.281C76.8126 187.129 74.8332 185.423 72.5001 184.367ZM67.0001 183.167C66.0112 183.167 65.0445 182.873 64.2222 182.324C63.4 181.775 62.7591 180.994 62.3807 180.08C62.0022 179.166 61.9032 178.161 62.0962 177.191C62.2891 176.221 62.7653 175.33 63.4645 174.631C64.1638 173.932 65.0547 173.456 66.0246 173.263C66.9945 173.07 67.9999 173.169 68.9135 173.547C69.8271 173.926 70.608 174.566 71.1574 175.389C71.7068 176.211 72.0001 177.178 72.0001 178.167C72.0001 179.493 71.4733 180.764 70.5356 181.702C69.5979 182.64 68.3262 183.167 67.0001 183.167ZM83.2334 183.7C84.3 182.499 84.9968 181.015 85.2397 179.427C85.4827 177.839 85.2616 176.215 84.603 174.75C83.9444 173.285 82.8764 172.041 81.5275 171.169C80.1787 170.297 78.6064 169.833 77.0001 169.833C76.5581 169.833 76.1341 170.009 75.8216 170.321C75.509 170.634 75.3334 171.058 75.3334 171.5C75.3334 171.942 75.509 172.366 75.8216 172.678C76.1341 172.991 76.5581 173.167 77.0001 173.167C78.3262 173.167 79.5979 173.693 80.5356 174.631C81.4733 175.569 82.0001 176.841 82.0001 178.167C81.9977 179.042 81.7656 179.901 81.3269 180.659C80.8881 181.416 80.2582 182.046 79.5001 182.483C79.253 182.626 79.0466 182.829 78.9007 183.074C78.7548 183.32 78.6742 183.598 78.6667 183.883C78.6598 184.166 78.725 184.446 78.8562 184.697C78.9874 184.948 79.1803 185.161 79.4167 185.317L80.0667 185.75L80.2834 185.867C82.2924 186.819 83.9873 188.327 85.1684 190.21C86.3495 192.094 86.9677 194.276 86.9501 196.5C86.9501 196.942 87.1257 197.366 87.4382 197.678C87.7508 197.991 88.1747 198.167 88.6167 198.167C89.0588 198.167 89.4827 197.991 89.7953 197.678C90.1078 197.366 90.2834 196.942 90.2834 196.5C90.297 193.942 89.6565 191.424 88.4225 189.183C87.1886 186.943 85.4023 185.055 83.2334 183.7Z" fill="#FEFEFE"/>
<path d="M69.1918 241.728H60.1653L58.7182 246H52.5512L61.3022 221.814H68.1238L76.8747 246H70.6388L69.1918 241.728ZM67.6759 237.18L64.6785 228.326L61.7156 237.18H67.6759ZM78.3667 236.388C78.3667 234.389 78.7686 232.644 79.5725 231.151C80.3994 229.658 81.5363 228.51 82.9833 227.706C84.4533 226.902 86.13 226.5 88.0134 226.5C90.4251 226.5 92.4348 227.131 94.0426 228.395C95.6734 229.658 96.7414 231.438 97.2467 233.735H90.9763C90.4481 232.265 89.426 231.53 87.9101 231.53C86.8305 231.53 85.9692 231.955 85.3261 232.805C84.683 233.632 84.3614 234.826 84.3614 236.388C84.3614 237.95 84.683 239.155 85.3261 240.005C85.9692 240.832 86.8305 241.246 87.9101 241.246C89.426 241.246 90.4481 240.511 90.9763 239.041H97.2467C96.7414 241.291 95.6734 243.06 94.0426 244.346C92.4119 245.633 90.4021 246.276 88.0134 246.276C86.13 246.276 84.4533 245.874 82.9833 245.07C81.5363 244.266 80.3994 243.117 79.5725 241.625C78.7686 240.132 78.3667 238.386 78.3667 236.388ZM111.113 241.004V246H108.115C105.979 246 104.314 245.483 103.12 244.45C101.925 243.393 101.328 241.682 101.328 239.316V231.668H98.9855V226.775H101.328V222.09H107.22V226.775H111.078V231.668H107.22V239.385C107.22 239.959 107.357 240.373 107.633 240.625C107.909 240.878 108.368 241.004 109.011 241.004H111.113ZM117.357 224.777C116.324 224.777 115.474 224.479 114.808 223.881C114.165 223.261 113.843 222.503 113.843 221.608C113.843 220.689 114.165 219.931 114.808 219.334C115.474 218.714 116.324 218.404 117.357 218.404C118.368 218.404 119.195 218.714 119.838 219.334C120.504 219.931 120.837 220.689 120.837 221.608C120.837 222.503 120.504 223.261 119.838 223.881C119.195 224.479 118.368 224.777 117.357 224.777ZM120.286 226.775V246H114.394V226.775H120.286ZM133.203 240.488L137.372 226.775H143.642L136.82 246H129.551L122.729 226.775H129.034L133.203 240.488ZM164.244 236.078C164.244 236.629 164.209 237.203 164.14 237.8H150.807C150.899 238.995 151.278 239.913 151.944 240.556C152.633 241.177 153.472 241.487 154.459 241.487C155.929 241.487 156.951 240.867 157.525 239.626H163.796C163.474 240.89 162.889 242.026 162.039 243.037C161.212 244.048 160.167 244.84 158.904 245.414C157.64 245.989 156.228 246.276 154.666 246.276C152.783 246.276 151.106 245.874 149.636 245.07C148.166 244.266 147.017 243.117 146.191 241.625C145.364 240.132 144.95 238.386 144.95 236.388C144.95 234.389 145.352 232.644 146.156 231.151C146.983 229.658 148.131 228.51 149.601 227.706C151.071 226.902 152.76 226.5 154.666 226.5C156.526 226.5 158.18 226.89 159.627 227.671C161.074 228.452 162.2 229.566 163.003 231.013C163.83 232.46 164.244 234.148 164.244 236.078ZM158.215 234.527C158.215 233.517 157.87 232.713 157.181 232.116C156.492 231.518 155.631 231.22 154.597 231.22C153.609 231.22 152.771 231.507 152.082 232.081C151.416 232.655 151.002 233.471 150.842 234.527H158.215ZM180.544 221.814V246H174.653V221.814H180.544ZM196.527 226.569C198.778 226.569 200.57 227.304 201.902 228.774C203.257 230.221 203.935 232.219 203.935 234.768V246H198.078V235.561C198.078 234.275 197.745 233.276 197.079 232.564C196.413 231.851 195.517 231.495 194.391 231.495C193.266 231.495 192.37 231.851 191.704 232.564C191.038 233.276 190.705 234.275 190.705 235.561V246H184.814V226.775H190.705V229.325C191.302 228.475 192.106 227.809 193.117 227.327C194.127 226.821 195.264 226.569 196.527 226.569ZM65.5743 286.241C63.3004 286.241 61.2103 285.713 59.3039 284.656C57.4205 283.6 55.9161 282.13 54.7907 280.246C53.6882 278.34 53.1369 276.204 53.1369 273.838C53.1369 271.473 53.6882 269.348 54.7907 267.465C55.9161 265.581 57.4205 264.111 59.3039 263.055C61.2103 261.998 63.3004 261.47 65.5743 261.47C67.8482 261.47 69.9268 261.998 71.8102 263.055C73.7166 264.111 75.2095 265.581 76.2891 267.465C77.3915 269.348 77.9428 271.473 77.9428 273.838C77.9428 276.204 77.3915 278.34 76.2891 280.246C75.1866 282.13 73.6936 283.6 71.8102 284.656C69.9268 285.713 67.8482 286.241 65.5743 286.241ZM65.5743 280.867C67.5036 280.867 69.0425 280.223 70.1909 278.937C71.3623 277.651 71.948 275.951 71.948 273.838C71.948 271.702 71.3623 270.003 70.1909 268.739C69.0425 267.453 67.5036 266.81 65.5743 266.81C63.622 266.81 62.0601 267.442 60.8888 268.705C59.7403 269.968 59.1661 271.679 59.1661 273.838C59.1661 275.974 59.7403 277.685 60.8888 278.972C62.0601 280.235 63.622 280.867 65.5743 280.867ZM87.1117 269.98C87.8008 268.923 88.6621 268.096 89.6957 267.499C90.7292 266.879 91.8777 266.569 93.1409 266.569V272.805H91.5217C90.0517 272.805 88.9492 273.126 88.2142 273.769C87.4792 274.389 87.1117 275.492 87.1117 277.077V286H81.2203V266.775H87.1117V269.98ZM103.261 266.5C104.616 266.5 105.799 266.775 106.809 267.327C107.843 267.878 108.635 268.601 109.187 269.497V266.775H115.078V285.966C115.078 287.734 114.722 289.33 114.01 290.754C113.321 292.201 112.253 293.35 110.806 294.2C109.382 295.05 107.602 295.474 105.466 295.474C102.618 295.474 100.309 294.797 98.5408 293.442C96.7723 292.11 95.7617 290.295 95.509 287.998H101.331C101.515 288.733 101.952 289.307 102.641 289.721C103.33 290.157 104.18 290.375 105.19 290.375C106.407 290.375 107.372 290.019 108.084 289.307C108.819 288.618 109.187 287.504 109.187 285.966V283.244C108.612 284.14 107.82 284.875 106.809 285.449C105.799 286 104.616 286.276 103.261 286.276C101.676 286.276 100.24 285.874 98.9543 285.07C97.668 284.243 96.6459 283.083 95.888 281.59C95.153 280.074 94.7855 278.329 94.7855 276.353C94.7855 274.378 95.153 272.644 95.888 271.151C96.6459 269.658 97.668 268.51 98.9543 267.706C100.24 266.902 101.676 266.5 103.261 266.5ZM109.187 276.388C109.187 274.918 108.773 273.758 107.946 272.908C107.142 272.058 106.155 271.633 104.983 271.633C103.812 271.633 102.813 272.058 101.986 272.908C101.182 273.735 100.78 274.883 100.78 276.353C100.78 277.823 101.182 278.995 101.986 279.867C102.813 280.717 103.812 281.142 104.983 281.142C106.155 281.142 107.142 280.717 107.946 279.867C108.773 279.018 109.187 277.858 109.187 276.388ZM118.169 276.353C118.169 274.378 118.536 272.644 119.271 271.151C120.029 269.658 121.051 268.51 122.338 267.706C123.624 266.902 125.059 266.5 126.644 266.5C127.999 266.5 129.182 266.775 130.193 267.327C131.226 267.878 132.019 268.601 132.57 269.497V266.775H138.461V286H132.57V283.278C131.996 284.174 131.192 284.898 130.158 285.449C129.148 286 127.965 286.276 126.61 286.276C125.048 286.276 123.624 285.874 122.338 285.07C121.051 284.243 120.029 283.083 119.271 281.59C118.536 280.074 118.169 278.329 118.169 276.353ZM132.57 276.388C132.57 274.918 132.157 273.758 131.33 272.908C130.526 272.058 129.538 271.633 128.367 271.633C127.195 271.633 126.196 272.058 125.369 272.908C124.566 273.735 124.164 274.883 124.164 276.353C124.164 277.823 124.566 278.995 125.369 279.867C126.196 280.717 127.195 281.142 128.367 281.142C129.538 281.142 130.526 280.717 131.33 279.867C132.157 279.018 132.57 277.858 132.57 276.388ZM154.437 266.569C156.688 266.569 158.48 267.304 159.812 268.774C161.167 270.221 161.845 272.219 161.845 274.768V286H155.988V275.561C155.988 274.275 155.655 273.276 154.989 272.564C154.323 271.851 153.427 271.495 152.301 271.495C151.176 271.495 150.28 271.851 149.614 272.564C148.948 273.276 148.615 274.275 148.615 275.561V286H142.724V266.775H148.615V269.325C149.212 268.475 150.016 267.809 151.027 267.327C152.037 266.821 153.174 266.569 154.437 266.569ZM168.902 264.777C167.868 264.777 167.018 264.479 166.352 263.881C165.709 263.261 165.387 262.503 165.387 261.608C165.387 260.689 165.709 259.931 166.352 259.334C167.018 258.714 167.868 258.404 168.902 258.404C169.912 258.404 170.739 258.714 171.382 259.334C172.048 259.931 172.381 260.689 172.381 261.608C172.381 262.503 172.048 263.261 171.382 263.881C170.739 264.479 169.912 264.777 168.902 264.777ZM171.83 266.775V286H165.939V266.775H171.83ZM181.612 281.142H189.949V286H175.031V281.314L183.024 271.633H175.1V266.775H189.777V271.461L181.612 281.142ZM192.02 276.353C192.02 274.378 192.387 272.644 193.122 271.151C193.88 269.658 194.902 268.51 196.189 267.706C197.475 266.902 198.91 266.5 200.495 266.5C201.85 266.5 203.033 266.775 204.044 267.327C205.077 267.878 205.87 268.601 206.421 269.497V266.775H212.312V286H206.421V283.278C205.847 284.174 205.043 284.898 204.009 285.449C202.999 286 201.816 286.276 200.461 286.276C198.899 286.276 197.475 285.874 196.189 285.07C194.902 284.243 193.88 283.083 193.122 281.59C192.387 280.074 192.02 278.329 192.02 276.353ZM206.421 276.388C206.421 274.918 206.007 273.758 205.181 272.908C204.377 272.058 203.389 271.633 202.218 271.633C201.046 271.633 200.047 272.058 199.22 272.908C198.416 273.735 198.015 274.883 198.015 276.353C198.015 277.823 198.416 278.995 199.22 279.867C200.047 280.717 201.046 281.142 202.218 281.142C203.389 281.142 204.377 280.717 205.181 279.867C206.007 279.018 206.421 277.858 206.421 276.388ZM227.289 281.004V286H224.292C222.156 286 220.491 285.483 219.296 284.45C218.102 283.393 217.505 281.682 217.505 279.316V271.668H215.162V266.775H217.505V262.09H223.396V266.775H227.255V271.668H223.396V279.385C223.396 279.959 223.534 280.373 223.809 280.625C224.085 280.878 224.544 281.004 225.188 281.004H227.289ZM233.534 264.777C232.5 264.777 231.65 264.479 230.984 263.881C230.341 263.261 230.02 262.503 230.02 261.608C230.02 260.689 230.341 259.931 230.984 259.334C231.65 258.714 232.5 258.404 233.534 258.404C234.544 258.404 235.371 258.714 236.014 259.334C236.68 259.931 237.013 260.689 237.013 261.608C237.013 262.503 236.68 263.261 236.014 263.881C235.371 264.479 234.544 264.777 233.534 264.777ZM236.462 266.775V286H230.571V266.775H236.462ZM249.483 286.276C247.599 286.276 245.9 285.874 244.384 285.07C242.891 284.266 241.708 283.117 240.835 281.625C239.985 280.132 239.56 278.386 239.56 276.388C239.56 274.412 239.997 272.678 240.869 271.185C241.742 269.669 242.937 268.51 244.452 267.706C245.968 266.902 247.668 266.5 249.551 266.5C251.435 266.5 253.135 266.902 254.65 267.706C256.166 268.51 257.361 269.669 258.234 271.185C259.106 272.678 259.543 274.412 259.543 276.388C259.543 278.363 259.095 280.109 258.199 281.625C257.326 283.117 256.12 284.266 254.582 285.07C253.066 285.874 251.366 286.276 249.483 286.276ZM249.483 281.177C250.608 281.177 251.561 280.763 252.342 279.936C253.146 279.109 253.548 277.927 253.548 276.388C253.548 274.849 253.158 273.666 252.377 272.839C251.619 272.012 250.677 271.599 249.551 271.599C248.403 271.599 247.45 272.012 246.692 272.839C245.934 273.643 245.555 274.826 245.555 276.388C245.555 277.927 245.922 279.109 246.657 279.936C247.415 280.763 248.357 281.177 249.483 281.177ZM274.382 266.569C276.633 266.569 278.425 267.304 279.757 268.774C281.112 270.221 281.789 272.219 281.789 274.768V286H275.932V275.561C275.932 274.275 275.599 273.276 274.933 272.564C274.267 271.851 273.371 271.495 272.246 271.495C271.121 271.495 270.225 271.851 269.559 272.564C268.893 273.276 268.56 274.275 268.56 275.561V286H262.668V266.775H268.56V269.325C269.157 268.475 269.961 267.809 270.971 267.327C271.982 266.821 273.119 266.569 274.382 266.569Z" fill="white"/>
<path d="M66.295 312.545L63.265 323H61.735L59.305 314.585L56.785 323L55.27 323.015L52.345 312.545H53.8L56.08 321.41L58.6 312.545H60.13L62.53 321.38L64.825 312.545H66.295ZM68.4938 313.445C68.2338 313.445 68.0138 313.355 67.8338 313.175C67.6538 312.995 67.5638 312.775 67.5638 312.515C67.5638 312.255 67.6538 312.035 67.8338 311.855C68.0138 311.675 68.2338 311.585 68.4938 311.585C68.7438 311.585 68.9538 311.675 69.1238 311.855C69.3038 312.035 69.3938 312.255 69.3938 312.515C69.3938 312.775 69.3038 312.995 69.1238 313.175C68.9538 313.355 68.7438 313.445 68.4938 313.445ZM69.1538 314.78V323H67.7888V314.78H69.1538ZM73.1452 315.905V320.75C73.1452 321.15 73.2302 321.435 73.4002 321.605C73.5702 321.765 73.8652 321.845 74.2852 321.845H75.2902V323H74.0602C73.3002 323 72.7302 322.825 72.3502 322.475C71.9702 322.125 71.7802 321.55 71.7802 320.75V315.905H70.7152V314.78H71.7802V312.71H73.1452V314.78H75.2902V315.905H73.1452ZM81.0241 314.63C81.6441 314.63 82.2041 314.765 82.7041 315.035C83.2041 315.295 83.5941 315.69 83.8741 316.22C84.1641 316.75 84.3091 317.395 84.3091 318.155V323H82.9591V318.35C82.9591 317.53 82.7541 316.905 82.3441 316.475C81.9341 316.035 81.3741 315.815 80.6641 315.815C79.9441 315.815 79.3691 316.04 78.9391 316.49C78.5191 316.94 78.3091 317.595 78.3091 318.455V323H76.9441V311.9H78.3091V315.95C78.5791 315.53 78.9491 315.205 79.4191 314.975C79.8991 314.745 80.4341 314.63 81.0241 314.63ZM100.423 314.63C101.063 314.63 101.633 314.765 102.133 315.035C102.633 315.295 103.028 315.69 103.318 316.22C103.608 316.75 103.753 317.395 103.753 318.155V323H102.403V318.35C102.403 317.53 102.198 316.905 101.788 316.475C101.388 316.035 100.843 315.815 100.153 315.815C99.4428 315.815 98.8778 316.045 98.4578 316.505C98.0378 316.955 97.8278 317.61 97.8278 318.47V323H96.4778V318.35C96.4778 317.53 96.2728 316.905 95.8628 316.475C95.4628 316.035 94.9178 315.815 94.2278 315.815C93.5178 315.815 92.9528 316.045 92.5328 316.505C92.1128 316.955 91.9028 317.61 91.9028 318.47V323H90.5378V314.78H91.9028V315.965C92.1728 315.535 92.5328 315.205 92.9828 314.975C93.4428 314.745 93.9478 314.63 94.4978 314.63C95.1878 314.63 95.7978 314.785 96.3278 315.095C96.8578 315.405 97.2528 315.86 97.5128 316.46C97.7428 315.88 98.1228 315.43 98.6528 315.11C99.1828 314.79 99.7728 314.63 100.423 314.63ZM113.072 314.78L108.122 326.87H106.712L108.332 322.91L105.017 314.78H106.532L109.112 321.44L111.662 314.78H113.072ZM118.698 314.075H120.423L124.053 317.51L120.423 320.96H118.698L122.328 317.51L118.698 314.075ZM126.139 321.905C127.409 320.885 128.404 320.05 129.124 319.4C129.844 318.74 130.449 318.055 130.939 317.345C131.439 316.625 131.689 315.92 131.689 315.23C131.689 314.58 131.529 314.07 131.209 313.7C130.899 313.32 130.394 313.13 129.694 313.13C129.014 313.13 128.484 313.345 128.104 313.775C127.734 314.195 127.534 314.76 127.504 315.47H126.184C126.224 314.35 126.564 313.485 127.204 312.875C127.844 312.265 128.669 311.96 129.679 311.96C130.709 311.96 131.524 312.245 132.124 312.815C132.734 313.385 133.039 314.17 133.039 315.17C133.039 316 132.789 316.81 132.289 317.6C131.799 318.38 131.239 319.07 130.609 319.67C129.979 320.26 129.174 320.95 128.194 321.74H133.354V322.88H126.139V321.905ZM134.902 314.885C134.972 313.965 135.327 313.245 135.967 312.725C136.607 312.205 137.437 311.945 138.457 311.945C139.137 311.945 139.722 312.07 140.212 312.32C140.712 312.56 141.087 312.89 141.337 313.31C141.597 313.73 141.727 314.205 141.727 314.735C141.727 315.355 141.547 315.89 141.187 316.34C140.837 316.79 140.377 317.08 139.807 317.21V317.285C140.457 317.445 140.972 317.76 141.352 318.23C141.732 318.7 141.922 319.315 141.922 320.075C141.922 320.645 141.792 321.16 141.532 321.62C141.272 322.07 140.882 322.425 140.362 322.685C139.842 322.945 139.217 323.075 138.487 323.075C137.427 323.075 136.557 322.8 135.877 322.25C135.197 321.69 134.817 320.9 134.737 319.88H136.057C136.127 320.48 136.372 320.97 136.792 321.35C137.212 321.73 137.772 321.92 138.472 321.92C139.172 321.92 139.702 321.74 140.062 321.38C140.432 321.01 140.617 320.535 140.617 319.955C140.617 319.205 140.367 318.665 139.867 318.335C139.367 318.005 138.612 317.84 137.602 317.84H137.257V316.7H137.617C138.537 316.69 139.232 316.54 139.702 316.25C140.172 315.95 140.407 315.49 140.407 314.87C140.407 314.34 140.232 313.915 139.882 313.595C139.542 313.275 139.052 313.115 138.412 313.115C137.792 313.115 137.292 313.275 136.912 313.595C136.532 313.915 136.307 314.345 136.237 314.885H134.902ZM155.309 312.545L151.904 319.055V323H150.539V319.055L147.119 312.545H148.634L151.214 317.84L153.794 312.545H155.309ZM164.249 318.575C164.249 318.835 164.234 319.11 164.204 319.4H157.634C157.684 320.21 157.959 320.845 158.459 321.305C158.969 321.755 159.584 321.98 160.304 321.98C160.894 321.98 161.384 321.845 161.774 321.575C162.174 321.295 162.454 320.925 162.614 320.465H164.084C163.864 321.255 163.424 321.9 162.764 322.4C162.104 322.89 161.284 323.135 160.304 323.135C159.524 323.135 158.824 322.96 158.204 322.61C157.594 322.26 157.114 321.765 156.764 321.125C156.414 320.475 156.239 319.725 156.239 318.875C156.239 318.025 156.409 317.28 156.749 316.64C157.089 316 157.564 315.51 158.174 315.17C158.794 314.82 159.504 314.645 160.304 314.645C161.084 314.645 161.774 314.815 162.374 315.155C162.974 315.495 163.434 315.965 163.754 316.565C164.084 317.155 164.249 317.825 164.249 318.575ZM162.839 318.29C162.839 317.77 162.724 317.325 162.494 316.955C162.264 316.575 161.949 316.29 161.549 316.1C161.159 315.9 160.724 315.8 160.244 315.8C159.554 315.8 158.964 316.02 158.474 316.46C157.994 316.9 157.719 317.51 157.649 318.29H162.839ZM165.541 318.86C165.541 318.02 165.711 317.285 166.051 316.655C166.391 316.015 166.856 315.52 167.446 315.17C168.046 314.82 168.711 314.645 169.441 314.645C170.161 314.645 170.786 314.8 171.316 315.11C171.846 315.42 172.241 315.81 172.501 316.28V314.78H173.881V323H172.501V321.47C172.231 321.95 171.826 322.35 171.286 322.67C170.756 322.98 170.136 323.135 169.426 323.135C168.696 323.135 168.036 322.955 167.446 322.595C166.856 322.235 166.391 321.73 166.051 321.08C165.711 320.43 165.541 319.69 165.541 318.86ZM172.501 318.875C172.501 318.255 172.376 317.715 172.126 317.255C171.876 316.795 171.536 316.445 171.106 316.205C170.686 315.955 170.221 315.83 169.711 315.83C169.201 315.83 168.736 315.95 168.316 316.19C167.896 316.43 167.561 316.78 167.311 317.24C167.061 317.7 166.936 318.24 166.936 318.86C166.936 319.49 167.061 320.04 167.311 320.51C167.561 320.97 167.896 321.325 168.316 321.575C168.736 321.815 169.201 321.935 169.711 321.935C170.221 321.935 170.686 321.815 171.106 321.575C171.536 321.325 171.876 320.97 172.126 320.51C172.376 320.04 172.501 319.495 172.501 318.875ZM177.552 316.115C177.792 315.645 178.132 315.28 178.572 315.02C179.022 314.76 179.567 314.63 180.207 314.63V316.04H179.847C178.317 316.04 177.552 316.87 177.552 318.53V323H176.187V314.78H177.552V316.115ZM184.693 323.135C184.063 323.135 183.498 323.03 182.998 322.82C182.498 322.6 182.103 322.3 181.813 321.92C181.523 321.53 181.363 321.085 181.333 320.585H182.743C182.783 320.995 182.973 321.33 183.313 321.59C183.663 321.85 184.118 321.98 184.678 321.98C185.198 321.98 185.608 321.865 185.908 321.635C186.208 321.405 186.358 321.115 186.358 320.765C186.358 320.405 186.198 320.14 185.878 319.97C185.558 319.79 185.063 319.615 184.393 319.445C183.783 319.285 183.283 319.125 182.893 318.965C182.513 318.795 182.183 318.55 181.903 318.23C181.633 317.9 181.498 317.47 181.498 316.94C181.498 316.52 181.623 316.135 181.873 315.785C182.123 315.435 182.478 315.16 182.938 314.96C183.398 314.75 183.923 314.645 184.513 314.645C185.423 314.645 186.158 314.875 186.718 315.335C187.278 315.795 187.578 316.425 187.618 317.225H186.253C186.223 316.795 186.048 316.45 185.728 316.19C185.418 315.93 184.998 315.8 184.468 315.8C183.978 315.8 183.588 315.905 183.298 316.115C183.008 316.325 182.863 316.6 182.863 316.94C182.863 317.21 182.948 317.435 183.118 317.615C183.298 317.785 183.518 317.925 183.778 318.035C184.048 318.135 184.418 318.25 184.888 318.38C185.478 318.54 185.958 318.7 186.328 318.86C186.698 319.01 187.013 319.24 187.273 319.55C187.543 319.86 187.683 320.265 187.693 320.765C187.693 321.215 187.568 321.62 187.318 321.98C187.068 322.34 186.713 322.625 186.253 322.835C185.803 323.035 185.283 323.135 184.693 323.135ZM201.119 318.575C201.119 318.835 201.104 319.11 201.074 319.4H194.504C194.554 320.21 194.829 320.845 195.329 321.305C195.839 321.755 196.454 321.98 197.174 321.98C197.764 321.98 198.254 321.845 198.644 321.575C199.044 321.295 199.324 320.925 199.484 320.465H200.954C200.734 321.255 200.294 321.9 199.634 322.4C198.974 322.89 198.154 323.135 197.174 323.135C196.394 323.135 195.694 322.96 195.074 322.61C194.464 322.26 193.984 321.765 193.634 321.125C193.284 320.475 193.109 319.725 193.109 318.875C193.109 318.025 193.279 317.28 193.619 316.64C193.959 316 194.434 315.51 195.044 315.17C195.664 314.82 196.374 314.645 197.174 314.645C197.954 314.645 198.644 314.815 199.244 315.155C199.844 315.495 200.304 315.965 200.624 316.565C200.954 317.155 201.119 317.825 201.119 318.575ZM199.709 318.29C199.709 317.77 199.594 317.325 199.364 316.955C199.134 316.575 198.819 316.29 198.419 316.1C198.029 315.9 197.594 315.8 197.114 315.8C196.424 315.8 195.834 316.02 195.344 316.46C194.864 316.9 194.589 317.51 194.519 318.29H199.709ZM207.211 323L205.261 319.94L203.386 323H201.961L204.616 318.92L201.961 314.78H203.506L205.456 317.825L207.316 314.78H208.741L206.101 318.845L208.756 323H207.211ZM211.463 316.295C211.733 315.825 212.133 315.435 212.663 315.125C213.203 314.805 213.828 314.645 214.538 314.645C215.268 314.645 215.928 314.82 216.518 315.17C217.118 315.52 217.588 316.015 217.928 316.655C218.268 317.285 218.438 318.02 218.438 318.86C218.438 319.69 218.268 320.43 217.928 321.08C217.588 321.73 217.118 322.235 216.518 322.595C215.928 322.955 215.268 323.135 214.538 323.135C213.838 323.135 213.218 322.98 212.678 322.67C212.148 322.35 211.743 321.955 211.463 321.485V326.9H210.098V314.78H211.463V316.295ZM217.043 318.86C217.043 318.24 216.918 317.7 216.668 317.24C216.418 316.78 216.078 316.43 215.648 316.19C215.228 315.95 214.763 315.83 214.253 315.83C213.753 315.83 213.288 315.955 212.858 316.205C212.438 316.445 212.098 316.8 211.838 317.27C211.588 317.73 211.463 318.265 211.463 318.875C211.463 319.495 211.588 320.04 211.838 320.51C212.098 320.97 212.438 321.325 212.858 321.575C213.288 321.815 213.753 321.935 214.253 321.935C214.763 321.935 215.228 321.815 215.648 321.575C216.078 321.325 216.418 320.97 216.668 320.51C216.918 320.04 217.043 319.49 217.043 318.86ZM227.735 318.575C227.735 318.835 227.72 319.11 227.69 319.4H221.12C221.17 320.21 221.445 320.845 221.945 321.305C222.455 321.755 223.07 321.98 223.79 321.98C224.38 321.98 224.87 321.845 225.26 321.575C225.66 321.295 225.94 320.925 226.1 320.465H227.57C227.35 321.255 226.91 321.9 226.25 322.4C225.59 322.89 224.77 323.135 223.79 323.135C223.01 323.135 222.31 322.96 221.69 322.61C221.08 322.26 220.6 321.765 220.25 321.125C219.9 320.475 219.725 319.725 219.725 318.875C219.725 318.025 219.895 317.28 220.235 316.64C220.575 316 221.05 315.51 221.66 315.17C222.28 314.82 222.99 314.645 223.79 314.645C224.57 314.645 225.26 314.815 225.86 315.155C226.46 315.495 226.92 315.965 227.24 316.565C227.57 317.155 227.735 317.825 227.735 318.575ZM226.325 318.29C226.325 317.77 226.21 317.325 225.98 316.955C225.75 316.575 225.435 316.29 225.035 316.1C224.645 315.9 224.21 315.8 223.73 315.8C223.04 315.8 222.45 316.02 221.96 316.46C221.48 316.9 221.205 317.51 221.135 318.29H226.325ZM230.902 316.115C231.142 315.645 231.482 315.28 231.922 315.02C232.372 314.76 232.917 314.63 233.557 314.63V316.04H233.197C231.667 316.04 230.902 316.87 230.902 318.53V323H229.537V314.78H230.902V316.115ZM235.838 313.445C235.578 313.445 235.358 313.355 235.178 313.175C234.998 312.995 234.908 312.775 234.908 312.515C234.908 312.255 234.998 312.035 235.178 311.855C235.358 311.675 235.578 311.585 235.838 311.585C236.088 311.585 236.298 311.675 236.468 311.855C236.648 312.035 236.738 312.255 236.738 312.515C236.738 312.775 236.648 312.995 236.468 313.175C236.298 313.355 236.088 313.445 235.838 313.445ZM236.498 314.78V323H235.133V314.78H236.498ZM246.324 318.575C246.324 318.835 246.309 319.11 246.279 319.4H239.709C239.759 320.21 240.034 320.845 240.534 321.305C241.044 321.755 241.659 321.98 242.379 321.98C242.969 321.98 243.459 321.845 243.849 321.575C244.249 321.295 244.529 320.925 244.689 320.465H246.159C245.939 321.255 245.499 321.9 244.839 322.4C244.179 322.89 243.359 323.135 242.379 323.135C241.599 323.135 240.899 322.96 240.279 322.61C239.669 322.26 239.189 321.765 238.839 321.125C238.489 320.475 238.314 319.725 238.314 318.875C238.314 318.025 238.484 317.28 238.824 316.64C239.164 316 239.639 315.51 240.249 315.17C240.869 314.82 241.579 314.645 242.379 314.645C243.159 314.645 243.849 314.815 244.449 315.155C245.049 315.495 245.509 315.965 245.829 316.565C246.159 317.155 246.324 317.825 246.324 318.575ZM244.914 318.29C244.914 317.77 244.799 317.325 244.569 316.955C244.339 316.575 244.024 316.29 243.624 316.1C243.234 315.9 242.799 315.8 242.319 315.8C241.629 315.8 241.039 316.02 240.549 316.46C240.069 316.9 239.794 317.51 239.724 318.29H244.914ZM252.131 314.63C253.131 314.63 253.941 314.935 254.561 315.545C255.181 316.145 255.491 317.015 255.491 318.155V323H254.141V318.35C254.141 317.53 253.936 316.905 253.526 316.475C253.116 316.035 252.556 315.815 251.846 315.815C251.126 315.815 250.551 316.04 250.121 316.49C249.701 316.94 249.491 317.595 249.491 318.455V323H248.126V314.78H249.491V315.95C249.761 315.53 250.126 315.205 250.586 314.975C251.056 314.745 251.571 314.63 252.131 314.63ZM257.21 318.875C257.21 318.025 257.38 317.285 257.72 316.655C258.06 316.015 258.53 315.52 259.13 315.17C259.74 314.82 260.435 314.645 261.215 314.645C262.225 314.645 263.055 314.89 263.705 315.38C264.365 315.87 264.8 316.55 265.01 317.42H263.54C263.4 316.92 263.125 316.525 262.715 316.235C262.315 315.945 261.815 315.8 261.215 315.8C260.435 315.8 259.805 316.07 259.325 316.61C258.845 317.14 258.605 317.895 258.605 318.875C258.605 319.865 258.845 320.63 259.325 321.17C259.805 321.71 260.435 321.98 261.215 321.98C261.815 321.98 262.315 321.84 262.715 321.56C263.115 321.28 263.39 320.88 263.54 320.36H265.01C264.79 321.2 264.35 321.875 263.69 322.385C263.03 322.885 262.205 323.135 261.215 323.135C260.435 323.135 259.74 322.96 259.13 322.61C258.53 322.26 258.06 321.765 257.72 321.125C257.38 320.485 257.21 319.735 257.21 318.875ZM274.332 318.575C274.332 318.835 274.317 319.11 274.287 319.4H267.717C267.767 320.21 268.042 320.845 268.542 321.305C269.052 321.755 269.667 321.98 270.387 321.98C270.977 321.98 271.467 321.845 271.857 321.575C272.257 321.295 272.537 320.925 272.697 320.465H274.167C273.947 321.255 273.507 321.9 272.847 322.4C272.187 322.89 271.367 323.135 270.387 323.135C269.607 323.135 268.907 322.96 268.287 322.61C267.677 322.26 267.197 321.765 266.847 321.125C266.497 320.475 266.322 319.725 266.322 318.875C266.322 318.025 266.492 317.28 266.832 316.64C267.172 316 267.647 315.51 268.257 315.17C268.877 314.82 269.587 314.645 270.387 314.645C271.167 314.645 271.857 314.815 272.457 315.155C273.057 315.495 273.517 315.965 273.837 316.565C274.167 317.155 274.332 317.825 274.332 318.575ZM272.922 318.29C272.922 317.77 272.807 317.325 272.577 316.955C272.347 316.575 272.032 316.29 271.632 316.1C271.242 315.9 270.807 315.8 270.327 315.8C269.637 315.8 269.047 316.02 268.557 316.46C268.077 316.9 267.802 317.51 267.732 318.29H272.922ZM277.544 321.11L275.864 325.145H274.949L276.044 321.11H277.544ZM284.471 312.545V323H283.106V312.545H284.471ZM301.747 314.78L299.182 323H297.772L295.792 316.475L293.812 323H292.402L289.822 314.78H291.217L293.107 321.68L295.147 314.78H296.542L298.537 321.695L300.397 314.78H301.747ZM302.591 318.86C302.591 318.02 302.761 317.285 303.101 316.655C303.441 316.015 303.906 315.52 304.496 315.17C305.096 314.82 305.761 314.645 306.491 314.645C307.211 314.645 307.836 314.8 308.366 315.11C308.896 315.42 309.291 315.81 309.551 316.28V314.78H310.931V323H309.551V321.47C309.281 321.95 308.876 322.35 308.336 322.67C307.806 322.98 307.186 323.135 306.476 323.135C305.746 323.135 305.086 322.955 304.496 322.595C303.906 322.235 303.441 321.73 303.101 321.08C302.761 320.43 302.591 319.69 302.591 318.86ZM309.551 318.875C309.551 318.255 309.426 317.715 309.176 317.255C308.926 316.795 308.586 316.445 308.156 316.205C307.736 315.955 307.271 315.83 306.761 315.83C306.251 315.83 305.786 315.95 305.366 316.19C304.946 316.43 304.611 316.78 304.361 317.24C304.111 317.7 303.986 318.24 303.986 318.86C303.986 319.49 304.111 320.04 304.361 320.51C304.611 320.97 304.946 321.325 305.366 321.575C305.786 321.815 306.251 321.935 306.761 321.935C307.271 321.935 307.736 321.815 308.156 321.575C308.586 321.325 308.926 320.97 309.176 320.51C309.426 320.04 309.551 319.495 309.551 318.875ZM316.148 323.135C315.518 323.135 314.953 323.03 314.453 322.82C313.953 322.6 313.558 322.3 313.268 321.92C312.978 321.53 312.818 321.085 312.788 320.585H314.198C314.238 320.995 314.428 321.33 314.768 321.59C315.118 321.85 315.573 321.98 316.133 321.98C316.653 321.98 317.063 321.865 317.363 321.635C317.663 321.405 317.813 321.115 317.813 320.765C317.813 320.405 317.653 320.14 317.333 319.97C317.013 319.79 316.518 319.615 315.848 319.445C315.238 319.285 314.738 319.125 314.348 318.965C313.968 318.795 313.638 318.55 313.358 318.23C313.088 317.9 312.953 317.47 312.953 316.94C312.953 316.52 313.078 316.135 313.328 315.785C313.578 315.435 313.933 315.16 314.393 314.96C314.853 314.75 315.378 314.645 315.968 314.645C316.878 314.645 317.613 314.875 318.173 315.335C318.733 315.795 319.033 316.425 319.073 317.225H317.708C317.678 316.795 317.503 316.45 317.183 316.19C316.873 315.93 316.453 315.8 315.923 315.8C315.433 315.8 315.043 315.905 314.753 316.115C314.463 316.325 314.318 316.6 314.318 316.94C314.318 317.21 314.403 317.435 314.573 317.615C314.753 317.785 314.973 317.925 315.233 318.035C315.503 318.135 315.873 318.25 316.343 318.38C316.933 318.54 317.413 318.7 317.783 318.86C318.153 319.01 318.468 319.24 318.728 319.55C318.998 319.86 319.138 320.265 319.148 320.765C319.148 321.215 319.023 321.62 318.773 321.98C318.523 322.34 318.168 322.625 317.708 322.835C317.258 323.035 316.738 323.135 316.148 323.135ZM54.82 330.905V335.75C54.82 336.15 54.905 336.435 55.075 336.605C55.245 336.765 55.54 336.845 55.96 336.845H56.965V338H55.735C54.975 338 54.405 337.825 54.025 337.475C53.645 337.125 53.455 336.55 53.455 335.75V330.905H52.39V329.78H53.455V327.71H54.82V329.78H56.965V330.905H54.82ZM59.9839 331.115C60.2239 330.645 60.5639 330.28 61.0039 330.02C61.4539 329.76 61.9989 329.63 62.6389 329.63V331.04H62.2789C60.7489 331.04 59.9839 331.87 59.9839 333.53V338H58.6189V329.78H59.9839V331.115ZM71.5046 329.78V338H70.1396V336.785C69.8796 337.205 69.5146 337.535 69.0446 337.775C68.5846 338.005 68.0746 338.12 67.5146 338.12C66.8746 338.12 66.2996 337.99 65.7896 337.73C65.2796 337.46 64.8746 337.06 64.5746 336.53C64.2846 336 64.1396 335.355 64.1396 334.595V329.78H65.4896V334.415C65.4896 335.225 65.6946 335.85 66.1046 336.29C66.5146 336.72 67.0746 336.935 67.7846 336.935C68.5146 336.935 69.0896 336.71 69.5096 336.26C69.9296 335.81 70.1396 335.155 70.1396 334.295V329.78H71.5046ZM76.7193 338.135C76.0893 338.135 75.5243 338.03 75.0243 337.82C74.5243 337.6 74.1293 337.3 73.8393 336.92C73.5493 336.53 73.3893 336.085 73.3593 335.585H74.7693C74.8093 335.995 74.9993 336.33 75.3393 336.59C75.6893 336.85 76.1443 336.98 76.7043 336.98C77.2243 336.98 77.6343 336.865 77.9343 336.635C78.2343 336.405 78.3843 336.115 78.3843 335.765C78.3843 335.405 78.2243 335.14 77.9043 334.97C77.5843 334.79 77.0893 334.615 76.4193 334.445C75.8093 334.285 75.3093 334.125 74.9193 333.965C74.5393 333.795 74.2093 333.55 73.9293 333.23C73.6593 332.9 73.5243 332.47 73.5243 331.94C73.5243 331.52 73.6493 331.135 73.8993 330.785C74.1493 330.435 74.5043 330.16 74.9643 329.96C75.4243 329.75 75.9493 329.645 76.5393 329.645C77.4493 329.645 78.1843 329.875 78.7443 330.335C79.3043 330.795 79.6043 331.425 79.6443 332.225H78.2793C78.2493 331.795 78.0743 331.45 77.7543 331.19C77.4443 330.93 77.0243 330.8 76.4943 330.8C76.0043 330.8 75.6143 330.905 75.3243 331.115C75.0343 331.325 74.8893 331.6 74.8893 331.94C74.8893 332.21 74.9743 332.435 75.1443 332.615C75.3243 332.785 75.5443 332.925 75.8043 333.035C76.0743 333.135 76.4443 333.25 76.9143 333.38C77.5043 333.54 77.9843 333.7 78.3543 333.86C78.7243 334.01 79.0393 334.24 79.2993 334.55C79.5693 334.86 79.7093 335.265 79.7193 335.765C79.7193 336.215 79.5943 336.62 79.3443 336.98C79.0943 337.34 78.7393 337.625 78.2793 337.835C77.8293 338.035 77.3093 338.135 76.7193 338.135ZM83.3112 330.905V335.75C83.3112 336.15 83.3962 336.435 83.5662 336.605C83.7362 336.765 84.0312 336.845 84.4512 336.845H85.4562V338H84.2262C83.4662 338 82.8962 337.825 82.5162 337.475C82.1362 337.125 81.9462 336.55 81.9462 335.75V330.905H80.8812V329.78H81.9462V327.71H83.3112V329.78H85.4562V330.905H83.3112ZM94.6101 333.575C94.6101 333.835 94.5951 334.11 94.5651 334.4H87.9951C88.0451 335.21 88.3201 335.845 88.8201 336.305C89.3301 336.755 89.9451 336.98 90.6651 336.98C91.2551 336.98 91.7451 336.845 92.1351 336.575C92.5351 336.295 92.8151 335.925 92.9751 335.465H94.4451C94.2251 336.255 93.7851 336.9 93.1251 337.4C92.4651 337.89 91.6451 338.135 90.6651 338.135C89.8851 338.135 89.1851 337.96 88.5651 337.61C87.9551 337.26 87.4751 336.765 87.1251 336.125C86.7751 335.475 86.6001 334.725 86.6001 333.875C86.6001 333.025 86.7701 332.28 87.1101 331.64C87.4501 331 87.9251 330.51 88.5351 330.17C89.1551 329.82 89.8651 329.645 90.6651 329.645C91.4451 329.645 92.1351 329.815 92.7351 330.155C93.3351 330.495 93.7951 330.965 94.1151 331.565C94.4451 332.155 94.6101 332.825 94.6101 333.575ZM93.2001 333.29C93.2001 332.77 93.0851 332.325 92.8551 331.955C92.6251 331.575 92.3101 331.29 91.9101 331.1C91.5201 330.9 91.0851 330.8 90.6051 330.8C89.9151 330.8 89.3251 331.02 88.8351 331.46C88.3551 331.9 88.0801 332.51 88.0101 333.29H93.2001ZM95.9018 333.86C95.9018 333.02 96.0718 332.285 96.4118 331.655C96.7518 331.015 97.2168 330.52 97.8068 330.17C98.4068 329.82 99.0768 329.645 99.8168 329.645C100.457 329.645 101.052 329.795 101.602 330.095C102.152 330.385 102.572 330.77 102.862 331.25V326.9H104.242V338H102.862V336.455C102.592 336.945 102.192 337.35 101.662 337.67C101.132 337.98 100.512 338.135 99.8018 338.135C99.0718 338.135 98.4068 337.955 97.8068 337.595C97.2168 337.235 96.7518 336.73 96.4118 336.08C96.0718 335.43 95.9018 334.69 95.9018 333.86ZM102.862 333.875C102.862 333.255 102.737 332.715 102.487 332.255C102.237 331.795 101.897 331.445 101.467 331.205C101.047 330.955 100.582 330.83 100.072 330.83C99.5618 330.83 99.0968 330.95 98.6768 331.19C98.2568 331.43 97.9218 331.78 97.6718 332.24C97.4218 332.7 97.2968 333.24 97.2968 333.86C97.2968 334.49 97.4218 335.04 97.6718 335.51C97.9218 335.97 98.2568 336.325 98.6768 336.575C99.0968 336.815 99.5618 336.935 100.072 336.935C100.582 336.935 101.047 336.815 101.467 336.575C101.897 336.325 102.237 335.97 102.487 335.51C102.737 335.04 102.862 334.495 102.862 333.875ZM112.213 330.905V335.75C112.213 336.15 112.298 336.435 112.468 336.605C112.638 336.765 112.933 336.845 113.353 336.845H114.358V338H113.128C112.368 338 111.798 337.825 111.418 337.475C111.038 337.125 110.848 336.55 110.848 335.75V330.905H109.783V329.78H110.848V327.71H112.213V329.78H114.358V330.905H112.213ZM119.596 338.135C118.826 338.135 118.126 337.96 117.496 337.61C116.876 337.26 116.386 336.765 116.026 336.125C115.676 335.475 115.501 334.725 115.501 333.875C115.501 333.035 115.681 332.295 116.041 331.655C116.411 331.005 116.911 330.51 117.541 330.17C118.171 329.82 118.876 329.645 119.656 329.645C120.436 329.645 121.141 329.82 121.771 330.17C122.401 330.51 122.896 331 123.256 331.64C123.626 332.28 123.811 333.025 123.811 333.875C123.811 334.725 123.621 335.475 123.241 336.125C122.871 336.765 122.366 337.26 121.726 337.61C121.086 337.96 120.376 338.135 119.596 338.135ZM119.596 336.935C120.086 336.935 120.546 336.82 120.976 336.59C121.406 336.36 121.751 336.015 122.011 335.555C122.281 335.095 122.416 334.535 122.416 333.875C122.416 333.215 122.286 332.655 122.026 332.195C121.766 331.735 121.426 331.395 121.006 331.175C120.586 330.945 120.131 330.83 119.641 330.83C119.141 330.83 118.681 330.945 118.261 331.175C117.851 331.395 117.521 331.735 117.271 332.195C117.021 332.655 116.896 333.215 116.896 333.875C116.896 334.545 117.016 335.11 117.256 335.57C117.506 336.03 117.836 336.375 118.246 336.605C118.656 336.825 119.106 336.935 119.596 336.935ZM133.685 329.63C134.305 329.63 134.865 329.765 135.365 330.035C135.865 330.295 136.255 330.69 136.535 331.22C136.825 331.75 136.97 332.395 136.97 333.155V338H135.62V333.35C135.62 332.53 135.415 331.905 135.005 331.475C134.595 331.035 134.035 330.815 133.325 330.815C132.605 330.815 132.03 331.04 131.6 331.49C131.18 331.94 130.97 332.595 130.97 333.455V338H129.605V326.9H130.97V330.95C131.24 330.53 131.61 330.205 132.08 329.975C132.56 329.745 133.095 329.63 133.685 329.63ZM146.7 333.575C146.7 333.835 146.685 334.11 146.655 334.4H140.085C140.135 335.21 140.41 335.845 140.91 336.305C141.42 336.755 142.035 336.98 142.755 336.98C143.345 336.98 143.835 336.845 144.225 336.575C144.625 336.295 144.905 335.925 145.065 335.465H146.535C146.315 336.255 145.875 336.9 145.215 337.4C144.555 337.89 143.735 338.135 142.755 338.135C141.975 338.135 141.275 337.96 140.655 337.61C140.045 337.26 139.565 336.765 139.215 336.125C138.865 335.475 138.69 334.725 138.69 333.875C138.69 333.025 138.86 332.28 139.2 331.64C139.54 331 140.015 330.51 140.625 330.17C141.245 329.82 141.955 329.645 142.755 329.645C143.535 329.645 144.225 329.815 144.825 330.155C145.425 330.495 145.885 330.965 146.205 331.565C146.535 332.155 146.7 332.825 146.7 333.575ZM145.29 333.29C145.29 332.77 145.175 332.325 144.945 331.955C144.715 331.575 144.4 331.29 144 331.1C143.61 330.9 143.175 330.8 142.695 330.8C142.005 330.8 141.415 331.02 140.925 331.46C140.445 331.9 140.17 332.51 140.1 333.29H145.29ZM149.867 326.9V338H148.502V326.9H149.867ZM153.558 331.295C153.828 330.825 154.228 330.435 154.758 330.125C155.298 329.805 155.923 329.645 156.633 329.645C157.363 329.645 158.023 329.82 158.613 330.17C159.213 330.52 159.683 331.015 160.023 331.655C160.363 332.285 160.533 333.02 160.533 333.86C160.533 334.69 160.363 335.43 160.023 336.08C159.683 336.73 159.213 337.235 158.613 337.595C158.023 337.955 157.363 338.135 156.633 338.135C155.933 338.135 155.313 337.98 154.773 337.67C154.243 337.35 153.838 336.955 153.558 336.485V341.9H152.193V329.78H153.558V331.295ZM159.138 333.86C159.138 333.24 159.013 332.7 158.763 332.24C158.513 331.78 158.173 331.43 157.743 331.19C157.323 330.95 156.858 330.83 156.348 330.83C155.848 330.83 155.383 330.955 154.953 331.205C154.533 331.445 154.193 331.8 153.933 332.27C153.683 332.73 153.558 333.265 153.558 333.875C153.558 334.495 153.683 335.04 153.933 335.51C154.193 335.97 154.533 336.325 154.953 336.575C155.383 336.815 155.848 336.935 156.348 336.935C156.858 336.935 157.323 336.815 157.743 336.575C158.173 336.325 158.513 335.97 158.763 335.51C159.013 335.04 159.138 334.49 159.138 333.86ZM167.994 330.905V335.75C167.994 336.15 168.079 336.435 168.249 336.605C168.419 336.765 168.714 336.845 169.134 336.845H170.139V338H168.909C168.149 338 167.579 337.825 167.199 337.475C166.819 337.125 166.629 336.55 166.629 335.75V330.905H165.564V329.78H166.629V327.71H167.994V329.78H170.139V330.905H167.994ZM175.873 329.63C176.493 329.63 177.053 329.765 177.553 330.035C178.053 330.295 178.443 330.69 178.723 331.22C179.013 331.75 179.158 332.395 179.158 333.155V338H177.808V333.35C177.808 332.53 177.603 331.905 177.193 331.475C176.783 331.035 176.223 330.815 175.513 330.815C174.793 330.815 174.218 331.04 173.788 331.49C173.368 331.94 173.158 332.595 173.158 333.455V338H171.793V326.9H173.158V330.95C173.428 330.53 173.798 330.205 174.268 329.975C174.748 329.745 175.283 329.63 175.873 329.63ZM188.887 333.575C188.887 333.835 188.872 334.11 188.842 334.4H182.272C182.322 335.21 182.597 335.845 183.097 336.305C183.607 336.755 184.222 336.98 184.942 336.98C185.532 336.98 186.022 336.845 186.412 336.575C186.812 336.295 187.092 335.925 187.252 335.465H188.722C188.502 336.255 188.062 336.9 187.402 337.4C186.742 337.89 185.922 338.135 184.942 338.135C184.162 338.135 183.462 337.96 182.842 337.61C182.232 337.26 181.752 336.765 181.402 336.125C181.052 335.475 180.877 334.725 180.877 333.875C180.877 333.025 181.047 332.28 181.387 331.64C181.727 331 182.202 330.51 182.812 330.17C183.432 329.82 184.142 329.645 184.942 329.645C185.722 329.645 186.412 329.815 187.012 330.155C187.612 330.495 188.072 330.965 188.392 331.565C188.722 332.155 188.887 332.825 188.887 333.575ZM187.477 333.29C187.477 332.77 187.362 332.325 187.132 331.955C186.902 331.575 186.587 331.29 186.187 331.1C185.797 330.9 185.362 330.8 184.882 330.8C184.192 330.8 183.602 331.02 183.112 331.46C182.632 331.9 182.357 332.51 182.287 333.29H187.477ZM200.574 329.63C201.214 329.63 201.784 329.765 202.284 330.035C202.784 330.295 203.179 330.69 203.469 331.22C203.759 331.75 203.904 332.395 203.904 333.155V338H202.554V333.35C202.554 332.53 202.349 331.905 201.939 331.475C201.539 331.035 200.994 330.815 200.304 330.815C199.594 330.815 199.029 331.045 198.609 331.505C198.189 331.955 197.979 332.61 197.979 333.47V338H196.629V333.35C196.629 332.53 196.424 331.905 196.014 331.475C195.614 331.035 195.069 330.815 194.379 330.815C193.669 330.815 193.104 331.045 192.684 331.505C192.264 331.955 192.054 332.61 192.054 333.47V338H190.689V329.78H192.054V330.965C192.324 330.535 192.684 330.205 193.134 329.975C193.594 329.745 194.099 329.63 194.649 329.63C195.339 329.63 195.949 329.785 196.479 330.095C197.009 330.405 197.404 330.86 197.664 331.46C197.894 330.88 198.274 330.43 198.804 330.11C199.334 329.79 199.924 329.63 200.574 329.63ZM213.727 338.135C212.957 338.135 212.257 337.96 211.627 337.61C211.007 337.26 210.517 336.765 210.157 336.125C209.807 335.475 209.632 334.725 209.632 333.875C209.632 333.035 209.812 332.295 210.172 331.655C210.542 331.005 211.042 330.51 211.672 330.17C212.302 329.82 213.007 329.645 213.787 329.645C214.567 329.645 215.272 329.82 215.902 330.17C216.532 330.51 217.027 331 217.387 331.64C217.757 332.28 217.942 333.025 217.942 333.875C217.942 334.725 217.752 335.475 217.372 336.125C217.002 336.765 216.497 337.26 215.857 337.61C215.217 337.96 214.507 338.135 213.727 338.135ZM213.727 336.935C214.217 336.935 214.677 336.82 215.107 336.59C215.537 336.36 215.882 336.015 216.142 335.555C216.412 335.095 216.547 334.535 216.547 333.875C216.547 333.215 216.417 332.655 216.157 332.195C215.897 331.735 215.557 331.395 215.137 331.175C214.717 330.945 214.262 330.83 213.772 330.83C213.272 330.83 212.812 330.945 212.392 331.175C211.982 331.395 211.652 331.735 211.402 332.195C211.152 332.655 211.027 333.215 211.027 333.875C211.027 334.545 211.147 335.11 211.387 335.57C211.637 336.03 211.967 336.375 212.377 336.605C212.787 336.825 213.237 336.935 213.727 336.935ZM221.102 331.115C221.342 330.645 221.682 330.28 222.122 330.02C222.572 329.76 223.117 329.63 223.757 329.63V331.04H223.397C221.867 331.04 221.102 331.87 221.102 333.53V338H219.737V329.78H221.102V331.115ZM228.723 329.645C229.433 329.645 230.053 329.8 230.583 330.11C231.123 330.42 231.523 330.81 231.783 331.28V329.78H233.163V338.18C233.163 338.93 233.003 339.595 232.683 340.175C232.363 340.765 231.903 341.225 231.303 341.555C230.713 341.885 230.023 342.05 229.233 342.05C228.153 342.05 227.253 341.795 226.533 341.285C225.813 340.775 225.388 340.08 225.258 339.2H226.608C226.758 339.7 227.068 340.1 227.538 340.4C228.008 340.71 228.573 340.865 229.233 340.865C229.983 340.865 230.593 340.63 231.063 340.16C231.543 339.69 231.783 339.03 231.783 338.18V336.455C231.513 336.935 231.113 337.335 230.583 337.655C230.053 337.975 229.433 338.135 228.723 338.135C227.993 338.135 227.328 337.955 226.728 337.595C226.138 337.235 225.673 336.73 225.333 336.08C224.993 335.43 224.823 334.69 224.823 333.86C224.823 333.02 224.993 332.285 225.333 331.655C225.673 331.015 226.138 330.52 226.728 330.17C227.328 329.82 227.993 329.645 228.723 329.645ZM231.783 333.875C231.783 333.255 231.658 332.715 231.408 332.255C231.158 331.795 230.818 331.445 230.388 331.205C229.968 330.955 229.503 330.83 228.993 330.83C228.483 330.83 228.018 330.95 227.598 331.19C227.178 331.43 226.843 331.78 226.593 332.24C226.343 332.7 226.218 333.24 226.218 333.86C226.218 334.49 226.343 335.04 226.593 335.51C226.843 335.97 227.178 336.325 227.598 336.575C228.018 336.815 228.483 336.935 228.993 336.935C229.503 336.935 229.968 336.815 230.388 336.575C230.818 336.325 231.158 335.97 231.408 335.51C231.658 335.04 231.783 334.495 231.783 333.875ZM234.959 333.86C234.959 333.02 235.129 332.285 235.469 331.655C235.809 331.015 236.274 330.52 236.864 330.17C237.464 329.82 238.129 329.645 238.859 329.645C239.579 329.645 240.204 329.8 240.734 330.11C241.264 330.42 241.659 330.81 241.919 331.28V329.78H243.299V338H241.919V336.47C241.649 336.95 241.244 337.35 240.704 337.67C240.174 337.98 239.554 338.135 238.844 338.135C238.114 338.135 237.454 337.955 236.864 337.595C236.274 337.235 235.809 336.73 235.469 336.08C235.129 335.43 234.959 334.69 234.959 333.86ZM241.919 333.875C241.919 333.255 241.794 332.715 241.544 332.255C241.294 331.795 240.954 331.445 240.524 331.205C240.104 330.955 239.639 330.83 239.129 330.83C238.619 330.83 238.154 330.95 237.734 331.19C237.314 331.43 236.979 331.78 236.729 332.24C236.479 332.7 236.354 333.24 236.354 333.86C236.354 334.49 236.479 335.04 236.729 335.51C236.979 335.97 237.314 336.325 237.734 336.575C238.154 336.815 238.619 336.935 239.129 336.935C239.639 336.935 240.104 336.815 240.524 336.575C240.954 336.325 241.294 335.97 241.544 335.51C241.794 335.04 241.919 334.495 241.919 333.875ZM249.611 329.63C250.611 329.63 251.421 329.935 252.041 330.545C252.661 331.145 252.971 332.015 252.971 333.155V338H251.621V333.35C251.621 332.53 251.416 331.905 251.006 331.475C250.596 331.035 250.036 330.815 249.326 330.815C248.606 330.815 248.031 331.04 247.601 331.49C247.181 331.94 246.971 332.595 246.971 333.455V338H245.606V329.78H246.971V330.95C247.241 330.53 247.606 330.205 248.066 329.975C248.536 329.745 249.051 329.63 249.611 329.63ZM255.906 328.445C255.646 328.445 255.426 328.355 255.246 328.175C255.066 327.995 254.976 327.775 254.976 327.515C254.976 327.255 255.066 327.035 255.246 326.855C255.426 326.675 255.646 326.585 255.906 326.585C256.156 326.585 256.366 326.675 256.536 326.855C256.716 327.035 256.806 327.255 256.806 327.515C256.806 327.775 256.716 327.995 256.536 328.175C256.366 328.355 256.156 328.445 255.906 328.445ZM256.566 329.78V338H255.201V329.78H256.566ZM259.912 336.875H263.947V338H258.352V336.875L262.342 330.89H258.382V329.78H263.917V330.89L259.912 336.875ZM266.423 328.445C266.163 328.445 265.943 328.355 265.763 328.175C265.583 327.995 265.493 327.775 265.493 327.515C265.493 327.255 265.583 327.035 265.763 326.855C265.943 326.675 266.163 326.585 266.423 326.585C266.673 326.585 266.883 326.675 267.053 326.855C267.233 327.035 267.323 327.255 267.323 327.515C267.323 327.775 267.233 327.995 267.053 328.175C266.883 328.355 266.673 328.445 266.423 328.445ZM267.083 329.78V338H265.718V329.78H267.083ZM273.415 329.63C274.415 329.63 275.225 329.935 275.845 330.545C276.465 331.145 276.775 332.015 276.775 333.155V338H275.425V333.35C275.425 332.53 275.22 331.905 274.81 331.475C274.4 331.035 273.84 330.815 273.13 330.815C272.41 330.815 271.835 331.04 271.405 331.49C270.985 331.94 270.775 332.595 270.775 333.455V338H269.41V329.78H270.775V330.95C271.045 330.53 271.41 330.205 271.87 329.975C272.34 329.745 272.855 329.63 273.415 329.63ZM282.395 329.645C283.105 329.645 283.725 329.8 284.255 330.11C284.795 330.42 285.195 330.81 285.455 331.28V329.78H286.835V338.18C286.835 338.93 286.675 339.595 286.355 340.175C286.035 340.765 285.575 341.225 284.975 341.555C284.385 341.885 283.695 342.05 282.905 342.05C281.825 342.05 280.925 341.795 280.205 341.285C279.485 340.775 279.06 340.08 278.93 339.2H280.28C280.43 339.7 280.74 340.1 281.21 340.4C281.68 340.71 282.245 340.865 282.905 340.865C283.655 340.865 284.265 340.63 284.735 340.16C285.215 339.69 285.455 339.03 285.455 338.18V336.455C285.185 336.935 284.785 337.335 284.255 337.655C283.725 337.975 283.105 338.135 282.395 338.135C281.665 338.135 281 337.955 280.4 337.595C279.81 337.235 279.345 336.73 279.005 336.08C278.665 335.43 278.495 334.69 278.495 333.86C278.495 333.02 278.665 332.285 279.005 331.655C279.345 331.015 279.81 330.52 280.4 330.17C281 329.82 281.665 329.645 282.395 329.645ZM285.455 333.875C285.455 333.255 285.33 332.715 285.08 332.255C284.83 331.795 284.49 331.445 284.06 331.205C283.64 330.955 283.175 330.83 282.665 330.83C282.155 330.83 281.69 330.95 281.27 331.19C280.85 331.43 280.515 331.78 280.265 332.24C280.015 332.7 279.89 333.24 279.89 333.86C279.89 334.49 280.015 335.04 280.265 335.51C280.515 335.97 280.85 336.325 281.27 336.575C281.69 336.815 282.155 336.935 282.665 336.935C283.175 336.935 283.64 336.815 284.06 336.575C284.49 336.325 284.83 335.97 285.08 335.51C285.33 335.04 285.455 334.495 285.455 333.875ZM292.63 333.86C292.63 333.02 292.8 332.285 293.14 331.655C293.48 331.015 293.945 330.52 294.535 330.17C295.135 329.82 295.8 329.645 296.53 329.645C297.25 329.645 297.875 329.8 298.405 330.11C298.935 330.42 299.33 330.81 299.59 331.28V329.78H300.97V338H299.59V336.47C299.32 336.95 298.915 337.35 298.375 337.67C297.845 337.98 297.225 338.135 296.515 338.135C295.785 338.135 295.125 337.955 294.535 337.595C293.945 337.235 293.48 336.73 293.14 336.08C292.8 335.43 292.63 334.69 292.63 333.86ZM299.59 333.875C299.59 333.255 299.465 332.715 299.215 332.255C298.965 331.795 298.625 331.445 298.195 331.205C297.775 330.955 297.31 330.83 296.8 330.83C296.29 330.83 295.825 330.95 295.405 331.19C294.985 331.43 294.65 331.78 294.4 332.24C294.15 332.7 294.025 333.24 294.025 333.86C294.025 334.49 294.15 335.04 294.4 335.51C294.65 335.97 294.985 336.325 295.405 336.575C295.825 336.815 296.29 336.935 296.8 336.935C297.31 336.935 297.775 336.815 298.195 336.575C298.625 336.325 298.965 335.97 299.215 335.51C299.465 335.04 299.59 334.495 299.59 333.875ZM307.282 329.63C308.282 329.63 309.092 329.935 309.712 330.545C310.332 331.145 310.642 332.015 310.642 333.155V338H309.292V333.35C309.292 332.53 309.087 331.905 308.677 331.475C308.267 331.035 307.707 330.815 306.997 330.815C306.277 330.815 305.702 331.04 305.272 331.49C304.852 331.94 304.642 332.595 304.642 333.455V338H303.277V329.78H304.642V330.95C304.912 330.53 305.277 330.205 305.737 329.975C306.207 329.745 306.722 329.63 307.282 329.63ZM312.362 333.86C312.362 333.02 312.532 332.285 312.872 331.655C313.212 331.015 313.677 330.52 314.267 330.17C314.867 329.82 315.537 329.645 316.277 329.645C316.917 329.645 317.512 329.795 318.062 330.095C318.612 330.385 319.032 330.77 319.322 331.25V326.9H320.702V338H319.322V336.455C319.052 336.945 318.652 337.35 318.122 337.67C317.592 337.98 316.972 338.135 316.262 338.135C315.532 338.135 314.867 337.955 314.267 337.595C313.677 337.235 313.212 336.73 312.872 336.08C312.532 335.43 312.362 334.69 312.362 333.86ZM319.322 333.875C319.322 333.255 319.197 332.715 318.947 332.255C318.697 331.795 318.357 331.445 317.927 331.205C317.507 330.955 317.042 330.83 316.532 330.83C316.022 330.83 315.557 330.95 315.137 331.19C314.717 331.43 314.382 331.78 314.132 332.24C313.882 332.7 313.757 333.24 313.757 333.86C313.757 334.49 313.882 335.04 314.132 335.51C314.382 335.97 314.717 336.325 315.137 336.575C315.557 336.815 316.022 336.935 316.532 336.935C317.042 336.935 317.507 336.815 317.927 336.575C318.357 336.325 318.697 335.97 318.947 335.51C319.197 335.04 319.322 334.495 319.322 333.875ZM63.04 344.63C63.68 344.63 64.25 344.765 64.75 345.035C65.25 345.295 65.645 345.69 65.935 346.22C66.225 346.75 66.37 347.395 66.37 348.155V353H65.02V348.35C65.02 347.53 64.815 346.905 64.405 346.475C64.005 346.035 63.46 345.815 62.77 345.815C62.06 345.815 61.495 346.045 61.075 346.505C60.655 346.955 60.445 347.61 60.445 348.47V353H59.095V348.35C59.095 347.53 58.89 346.905 58.48 346.475C58.08 346.035 57.535 345.815 56.845 345.815C56.135 345.815 55.57 346.045 55.15 346.505C54.73 346.955 54.52 347.61 54.52 348.47V353H53.155V344.78H54.52V345.965C54.79 345.535 55.15 345.205 55.6 344.975C56.06 344.745 56.565 344.63 57.115 344.63C57.805 344.63 58.415 344.785 58.945 345.095C59.475 345.405 59.87 345.86 60.13 346.46C60.36 345.88 60.74 345.43 61.27 345.11C61.8 344.79 62.39 344.63 63.04 344.63ZM68.0991 348.86C68.0991 348.02 68.2691 347.285 68.6091 346.655C68.9491 346.015 69.4141 345.52 70.0041 345.17C70.6041 344.82 71.2691 344.645 71.9991 344.645C72.7191 344.645 73.3441 344.8 73.8741 345.11C74.4041 345.42 74.7991 345.81 75.0591 346.28V344.78H76.4391V353H75.0591V351.47C74.7891 351.95 74.3841 352.35 73.8441 352.67C73.3141 352.98 72.6941 353.135 71.9841 353.135C71.2541 353.135 70.5941 352.955 70.0041 352.595C69.4141 352.235 68.9491 351.73 68.6091 351.08C68.2691 350.43 68.0991 349.69 68.0991 348.86ZM75.0591 348.875C75.0591 348.255 74.9341 347.715 74.6841 347.255C74.4341 346.795 74.0941 346.445 73.6641 346.205C73.2441 345.955 72.7791 345.83 72.2691 345.83C71.7591 345.83 71.2941 345.95 70.8741 346.19C70.4541 346.43 70.1191 346.78 69.8691 347.24C69.6191 347.7 69.4941 348.24 69.4941 348.86C69.4941 349.49 69.6191 350.04 69.8691 350.51C70.1191 350.97 70.4541 351.325 70.8741 351.575C71.2941 351.815 71.7591 351.935 72.2691 351.935C72.7791 351.935 73.2441 351.815 73.6641 351.575C74.0941 351.325 74.4341 350.97 74.6841 350.51C74.9341 350.04 75.0591 349.495 75.0591 348.875ZM82.7508 344.63C83.7508 344.63 84.5608 344.935 85.1808 345.545C85.8008 346.145 86.1108 347.015 86.1108 348.155V353H84.7608V348.35C84.7608 347.53 84.5558 346.905 84.1458 346.475C83.7358 346.035 83.1758 345.815 82.4658 345.815C81.7458 345.815 81.1708 346.04 80.7408 346.49C80.3208 346.94 80.1108 347.595 80.1108 348.455V353H78.7458V344.78H80.1108V345.95C80.3808 345.53 80.7458 345.205 81.2058 344.975C81.6758 344.745 82.1908 344.63 82.7508 344.63ZM87.8305 348.86C87.8305 348.02 88.0005 347.285 88.3405 346.655C88.6805 346.015 89.1455 345.52 89.7355 345.17C90.3355 344.82 91.0005 344.645 91.7305 344.645C92.4505 344.645 93.0755 344.8 93.6055 345.11C94.1355 345.42 94.5305 345.81 94.7905 346.28V344.78H96.1705V353H94.7905V351.47C94.5205 351.95 94.1155 352.35 93.5755 352.67C93.0455 352.98 92.4255 353.135 91.7155 353.135C90.9855 353.135 90.3255 352.955 89.7355 352.595C89.1455 352.235 88.6805 351.73 88.3405 351.08C88.0005 350.43 87.8305 349.69 87.8305 348.86ZM94.7905 348.875C94.7905 348.255 94.6655 347.715 94.4155 347.255C94.1655 346.795 93.8255 346.445 93.3955 346.205C92.9755 345.955 92.5105 345.83 92.0005 345.83C91.4905 345.83 91.0255 345.95 90.6055 346.19C90.1855 346.43 89.8505 346.78 89.6005 347.24C89.3505 347.7 89.2255 348.24 89.2255 348.86C89.2255 349.49 89.3505 350.04 89.6005 350.51C89.8505 350.97 90.1855 351.325 90.6055 351.575C91.0255 351.815 91.4905 351.935 92.0005 351.935C92.5105 351.935 92.9755 351.815 93.3955 351.575C93.8255 351.325 94.1655 350.97 94.4155 350.51C94.6655 350.04 94.7905 349.495 94.7905 348.875ZM101.867 344.645C102.577 344.645 103.197 344.8 103.727 345.11C104.267 345.42 104.667 345.81 104.927 346.28V344.78H106.307V353.18C106.307 353.93 106.147 354.595 105.827 355.175C105.507 355.765 105.047 356.225 104.447 356.555C103.857 356.885 103.167 357.05 102.377 357.05C101.297 357.05 100.397 356.795 99.6773 356.285C98.9573 355.775 98.5323 355.08 98.4023 354.2H99.7523C99.9023 354.7 100.212 355.1 100.682 355.4C101.152 355.71 101.717 355.865 102.377 355.865C103.127 355.865 103.737 355.63 104.207 355.16C104.687 354.69 104.927 354.03 104.927 353.18V351.455C104.657 351.935 104.257 352.335 103.727 352.655C103.197 352.975 102.577 353.135 101.867 353.135C101.137 353.135 100.472 352.955 99.8723 352.595C99.2823 352.235 98.8173 351.73 98.4773 351.08C98.1373 350.43 97.9673 349.69 97.9673 348.86C97.9673 348.02 98.1373 347.285 98.4773 346.655C98.8173 346.015 99.2823 345.52 99.8723 345.17C100.472 344.82 101.137 344.645 101.867 344.645ZM104.927 348.875C104.927 348.255 104.802 347.715 104.552 347.255C104.302 346.795 103.962 346.445 103.532 346.205C103.112 345.955 102.647 345.83 102.137 345.83C101.627 345.83 101.162 345.95 100.742 346.19C100.322 346.43 99.9873 346.78 99.7373 347.24C99.4873 347.7 99.3623 348.24 99.3623 348.86C99.3623 349.49 99.4873 350.04 99.7373 350.51C99.9873 350.97 100.322 351.325 100.742 351.575C101.162 351.815 101.627 351.935 102.137 351.935C102.647 351.935 103.112 351.815 103.532 351.575C103.962 351.325 104.302 350.97 104.552 350.51C104.802 350.04 104.927 349.495 104.927 348.875ZM109.319 343.445C109.059 343.445 108.839 343.355 108.659 343.175C108.479 342.995 108.389 342.775 108.389 342.515C108.389 342.255 108.479 342.035 108.659 341.855C108.839 341.675 109.059 341.585 109.319 341.585C109.569 341.585 109.779 341.675 109.949 341.855C110.129 342.035 110.219 342.255 110.219 342.515C110.219 342.775 110.129 342.995 109.949 343.175C109.779 343.355 109.569 343.445 109.319 343.445ZM109.979 344.78V353H108.614V344.78H109.979ZM116.31 344.63C117.31 344.63 118.12 344.935 118.74 345.545C119.36 346.145 119.67 347.015 119.67 348.155V353H118.32V348.35C118.32 347.53 118.115 346.905 117.705 346.475C117.295 346.035 116.735 345.815 116.025 345.815C115.305 345.815 114.73 346.04 114.3 346.49C113.88 346.94 113.67 347.595 113.67 348.455V353H112.305V344.78H113.67V345.95C113.94 345.53 114.305 345.205 114.765 344.975C115.235 344.745 115.75 344.63 116.31 344.63ZM125.29 344.645C126 344.645 126.62 344.8 127.15 345.11C127.69 345.42 128.09 345.81 128.35 346.28V344.78H129.73V353.18C129.73 353.93 129.57 354.595 129.25 355.175C128.93 355.765 128.47 356.225 127.87 356.555C127.28 356.885 126.59 357.05 125.8 357.05C124.72 357.05 123.82 356.795 123.1 356.285C122.38 355.775 121.955 355.08 121.825 354.2H123.175C123.325 354.7 123.635 355.1 124.105 355.4C124.575 355.71 125.14 355.865 125.8 355.865C126.55 355.865 127.16 355.63 127.63 355.16C128.11 354.69 128.35 354.03 128.35 353.18V351.455C128.08 351.935 127.68 352.335 127.15 352.655C126.62 352.975 126 353.135 125.29 353.135C124.56 353.135 123.895 352.955 123.295 352.595C122.705 352.235 122.24 351.73 121.9 351.08C121.56 350.43 121.39 349.69 121.39 348.86C121.39 348.02 121.56 347.285 121.9 346.655C122.24 346.015 122.705 345.52 123.295 345.17C123.895 344.82 124.56 344.645 125.29 344.645ZM128.35 348.875C128.35 348.255 128.225 347.715 127.975 347.255C127.725 346.795 127.385 346.445 126.955 346.205C126.535 345.955 126.07 345.83 125.56 345.83C125.05 345.83 124.585 345.95 124.165 346.19C123.745 346.43 123.41 346.78 123.16 347.24C122.91 347.7 122.785 348.24 122.785 348.86C122.785 349.49 122.91 350.04 123.16 350.51C123.41 350.97 123.745 351.325 124.165 351.575C124.585 351.815 125.05 351.935 125.56 351.935C126.07 351.935 126.535 351.815 126.955 351.575C127.385 351.325 127.725 350.97 127.975 350.51C128.225 350.04 128.35 349.495 128.35 348.875ZM137.701 345.905V350.75C137.701 351.15 137.786 351.435 137.956 351.605C138.126 351.765 138.421 351.845 138.841 351.845H139.846V353H138.616C137.856 353 137.286 352.825 136.906 352.475C136.526 352.125 136.336 351.55 136.336 350.75V345.905H135.271V344.78H136.336V342.71H137.701V344.78H139.846V345.905H137.701ZM149 348.575C149 348.835 148.985 349.11 148.955 349.4H142.385C142.435 350.21 142.71 350.845 143.21 351.305C143.72 351.755 144.335 351.98 145.055 351.98C145.645 351.98 146.135 351.845 146.525 351.575C146.925 351.295 147.205 350.925 147.365 350.465H148.835C148.615 351.255 148.175 351.9 147.515 352.4C146.855 352.89 146.035 353.135 145.055 353.135C144.275 353.135 143.575 352.96 142.955 352.61C142.345 352.26 141.865 351.765 141.515 351.125C141.165 350.475 140.99 349.725 140.99 348.875C140.99 348.025 141.16 347.28 141.5 346.64C141.84 346 142.315 345.51 142.925 345.17C143.545 344.82 144.255 344.645 145.055 344.645C145.835 344.645 146.525 344.815 147.125 345.155C147.725 345.495 148.185 345.965 148.505 346.565C148.835 347.155 149 347.825 149 348.575ZM147.59 348.29C147.59 347.77 147.475 347.325 147.245 346.955C147.015 346.575 146.7 346.29 146.3 346.1C145.91 345.9 145.475 345.8 144.995 345.8C144.305 345.8 143.715 346.02 143.225 346.46C142.745 346.9 142.47 347.51 142.4 348.29H147.59ZM150.291 348.86C150.291 348.02 150.461 347.285 150.801 346.655C151.141 346.015 151.606 345.52 152.196 345.17C152.796 344.82 153.461 344.645 154.191 344.645C154.911 344.645 155.536 344.8 156.066 345.11C156.596 345.42 156.991 345.81 157.251 346.28V344.78H158.631V353H157.251V351.47C156.981 351.95 156.576 352.35 156.036 352.67C155.506 352.98 154.886 353.135 154.176 353.135C153.446 353.135 152.786 352.955 152.196 352.595C151.606 352.235 151.141 351.73 150.801 351.08C150.461 350.43 150.291 349.69 150.291 348.86ZM157.251 348.875C157.251 348.255 157.126 347.715 156.876 347.255C156.626 346.795 156.286 346.445 155.856 346.205C155.436 345.955 154.971 345.83 154.461 345.83C153.951 345.83 153.486 345.95 153.066 346.19C152.646 346.43 152.311 346.78 152.061 347.24C151.811 347.7 151.686 348.24 151.686 348.86C151.686 349.49 151.811 350.04 152.061 350.51C152.311 350.97 152.646 351.325 153.066 351.575C153.486 351.815 153.951 351.935 154.461 351.935C154.971 351.935 155.436 351.815 155.856 351.575C156.286 351.325 156.626 350.97 156.876 350.51C157.126 350.04 157.251 349.495 157.251 348.875ZM170.823 344.63C171.463 344.63 172.033 344.765 172.533 345.035C173.033 345.295 173.428 345.69 173.718 346.22C174.008 346.75 174.153 347.395 174.153 348.155V353H172.803V348.35C172.803 347.53 172.598 346.905 172.188 346.475C171.788 346.035 171.243 345.815 170.553 345.815C169.843 345.815 169.278 346.045 168.858 346.505C168.438 346.955 168.228 347.61 168.228 348.47V353H166.878V348.35C166.878 347.53 166.673 346.905 166.263 346.475C165.863 346.035 165.318 345.815 164.628 345.815C163.918 345.815 163.353 346.045 162.933 346.505C162.513 346.955 162.303 347.61 162.303 348.47V353H160.938V344.78H162.303V345.965C162.573 345.535 162.933 345.205 163.383 344.975C163.843 344.745 164.348 344.63 164.898 344.63C165.588 344.63 166.198 344.785 166.728 345.095C167.258 345.405 167.653 345.86 167.913 346.46C168.143 345.88 168.523 345.43 169.053 345.11C169.583 344.79 170.173 344.63 170.823 344.63ZM183.976 353.135C183.206 353.135 182.506 352.96 181.876 352.61C181.256 352.26 180.766 351.765 180.406 351.125C180.056 350.475 179.881 349.725 179.881 348.875C179.881 348.035 180.061 347.295 180.421 346.655C180.791 346.005 181.291 345.51 181.921 345.17C182.551 344.82 183.256 344.645 184.036 344.645C184.816 344.645 185.521 344.82 186.151 345.17C186.781 345.51 187.276 346 187.636 346.64C188.006 347.28 188.191 348.025 188.191 348.875C188.191 349.725 188.001 350.475 187.621 351.125C187.251 351.765 186.746 352.26 186.106 352.61C185.466 352.96 184.756 353.135 183.976 353.135ZM183.976 351.935C184.466 351.935 184.926 351.82 185.356 351.59C185.786 351.36 186.131 351.015 186.391 350.555C186.661 350.095 186.796 349.535 186.796 348.875C186.796 348.215 186.666 347.655 186.406 347.195C186.146 346.735 185.806 346.395 185.386 346.175C184.966 345.945 184.511 345.83 184.021 345.83C183.521 345.83 183.061 345.945 182.641 346.175C182.231 346.395 181.901 346.735 181.651 347.195C181.401 347.655 181.276 348.215 181.276 348.875C181.276 349.545 181.396 350.11 181.636 350.57C181.886 351.03 182.216 351.375 182.626 351.605C183.036 351.825 183.486 351.935 183.976 351.935ZM193.991 344.63C194.991 344.63 195.801 344.935 196.421 345.545C197.041 346.145 197.351 347.015 197.351 348.155V353H196.001V348.35C196.001 347.53 195.796 346.905 195.386 346.475C194.976 346.035 194.416 345.815 193.706 345.815C192.986 345.815 192.411 346.04 191.981 346.49C191.561 346.94 191.351 347.595 191.351 348.455V353H189.986V344.78H191.351V345.95C191.621 345.53 191.986 345.205 192.446 344.975C192.916 344.745 193.431 344.63 193.991 344.63ZM205.245 345.905V350.75C205.245 351.15 205.33 351.435 205.5 351.605C205.67 351.765 205.965 351.845 206.385 351.845H207.39V353H206.16C205.4 353 204.83 352.825 204.45 352.475C204.07 352.125 203.88 351.55 203.88 350.75V345.905H202.815V344.78H203.88V342.71H205.245V344.78H207.39V345.905H205.245ZM213.124 344.63C213.744 344.63 214.304 344.765 214.804 345.035C215.304 345.295 215.694 345.69 215.974 346.22C216.264 346.75 216.409 347.395 216.409 348.155V353H215.059V348.35C215.059 347.53 214.854 346.905 214.444 346.475C214.034 346.035 213.474 345.815 212.764 345.815C212.044 345.815 211.469 346.04 211.039 346.49C210.619 346.94 210.409 347.595 210.409 348.455V353H209.044V341.9H210.409V345.95C210.679 345.53 211.049 345.205 211.519 344.975C211.999 344.745 212.534 344.63 213.124 344.63ZM226.138 348.575C226.138 348.835 226.123 349.11 226.093 349.4H219.523C219.573 350.21 219.848 350.845 220.348 351.305C220.858 351.755 221.473 351.98 222.193 351.98C222.783 351.98 223.273 351.845 223.663 351.575C224.063 351.295 224.343 350.925 224.503 350.465H225.973C225.753 351.255 225.313 351.9 224.653 352.4C223.993 352.89 223.173 353.135 222.193 353.135C221.413 353.135 220.713 352.96 220.093 352.61C219.483 352.26 219.003 351.765 218.653 351.125C218.303 350.475 218.128 349.725 218.128 348.875C218.128 348.025 218.298 347.28 218.638 346.64C218.978 346 219.453 345.51 220.063 345.17C220.683 344.82 221.393 344.645 222.193 344.645C222.973 344.645 223.663 344.815 224.263 345.155C224.863 345.495 225.323 345.965 225.643 346.565C225.973 347.155 226.138 347.825 226.138 348.575ZM224.728 348.29C224.728 347.77 224.613 347.325 224.383 346.955C224.153 346.575 223.838 346.29 223.438 346.1C223.048 345.9 222.613 345.8 222.133 345.8C221.443 345.8 220.853 346.02 220.363 346.46C219.883 346.9 219.608 347.51 219.538 348.29H224.728ZM228.645 343.445C228.385 343.445 228.165 343.355 227.985 343.175C227.805 342.995 227.715 342.775 227.715 342.515C227.715 342.255 227.805 342.035 227.985 341.855C228.165 341.675 228.385 341.585 228.645 341.585C228.895 341.585 229.105 341.675 229.275 341.855C229.455 342.035 229.545 342.255 229.545 342.515C229.545 342.775 229.455 342.995 229.275 343.175C229.105 343.355 228.895 343.445 228.645 343.445ZM229.305 344.78V353H227.94V344.78H229.305ZM232.997 346.115C233.237 345.645 233.577 345.28 234.017 345.02C234.467 344.76 235.012 344.63 235.652 344.63V346.04H235.292C233.762 346.04 232.997 346.87 232.997 348.53V353H231.632V344.78H232.997V346.115ZM244.811 353.135C244.041 353.135 243.341 352.96 242.711 352.61C242.091 352.26 241.601 351.765 241.241 351.125C240.891 350.475 240.716 349.725 240.716 348.875C240.716 348.035 240.896 347.295 241.256 346.655C241.626 346.005 242.126 345.51 242.756 345.17C243.386 344.82 244.091 344.645 244.871 344.645C245.651 344.645 246.356 344.82 246.986 345.17C247.616 345.51 248.111 346 248.471 346.64C248.841 347.28 249.026 348.025 249.026 348.875C249.026 349.725 248.836 350.475 248.456 351.125C248.086 351.765 247.581 352.26 246.941 352.61C246.301 352.96 245.591 353.135 244.811 353.135ZM244.811 351.935C245.301 351.935 245.761 351.82 246.191 351.59C246.621 351.36 246.966 351.015 247.226 350.555C247.496 350.095 247.631 349.535 247.631 348.875C247.631 348.215 247.501 347.655 247.241 347.195C246.981 346.735 246.641 346.395 246.221 346.175C245.801 345.945 245.346 345.83 244.856 345.83C244.356 345.83 243.896 345.945 243.476 346.175C243.066 346.395 242.736 346.735 242.486 347.195C242.236 347.655 242.111 348.215 242.111 348.875C242.111 349.545 242.231 350.11 242.471 350.57C242.721 351.03 243.051 351.375 243.461 351.605C243.871 351.825 244.321 351.935 244.811 351.935ZM252.186 346.115C252.426 345.645 252.766 345.28 253.206 345.02C253.656 344.76 254.201 344.63 254.841 344.63V346.04H254.481C252.951 346.04 252.186 346.87 252.186 348.53V353H250.821V344.78H252.186V346.115ZM259.807 344.645C260.517 344.645 261.137 344.8 261.667 345.11C262.207 345.42 262.607 345.81 262.867 346.28V344.78H264.247V353.18C264.247 353.93 264.087 354.595 263.767 355.175C263.447 355.765 262.987 356.225 262.387 356.555C261.797 356.885 261.107 357.05 260.317 357.05C259.237 357.05 258.337 356.795 257.617 356.285C256.897 355.775 256.472 355.08 256.342 354.2H257.692C257.842 354.7 258.152 355.1 258.622 355.4C259.092 355.71 259.657 355.865 260.317 355.865C261.067 355.865 261.677 355.63 262.147 355.16C262.627 354.69 262.867 354.03 262.867 353.18V351.455C262.597 351.935 262.197 352.335 261.667 352.655C261.137 352.975 260.517 353.135 259.807 353.135C259.077 353.135 258.412 352.955 257.812 352.595C257.222 352.235 256.757 351.73 256.417 351.08C256.077 350.43 255.907 349.69 255.907 348.86C255.907 348.02 256.077 347.285 256.417 346.655C256.757 346.015 257.222 345.52 257.812 345.17C258.412 344.82 259.077 344.645 259.807 344.645ZM262.867 348.875C262.867 348.255 262.742 347.715 262.492 347.255C262.242 346.795 261.902 346.445 261.472 346.205C261.052 345.955 260.587 345.83 260.077 345.83C259.567 345.83 259.102 345.95 258.682 346.19C258.262 346.43 257.927 346.78 257.677 347.24C257.427 347.7 257.302 348.24 257.302 348.86C257.302 349.49 257.427 350.04 257.677 350.51C257.927 350.97 258.262 351.325 258.682 351.575C259.102 351.815 259.567 351.935 260.077 351.935C260.587 351.935 261.052 351.815 261.472 351.575C261.902 351.325 262.242 350.97 262.492 350.51C262.742 350.04 262.867 349.495 262.867 348.875ZM266.043 348.86C266.043 348.02 266.213 347.285 266.553 346.655C266.893 346.015 267.358 345.52 267.948 345.17C268.548 344.82 269.213 344.645 269.943 344.645C270.663 344.645 271.288 344.8 271.818 345.11C272.348 345.42 272.743 345.81 273.003 346.28V344.78H274.383V353H273.003V351.47C272.733 351.95 272.328 352.35 271.788 352.67C271.258 352.98 270.638 353.135 269.928 353.135C269.198 353.135 268.538 352.955 267.948 352.595C267.358 352.235 266.893 351.73 266.553 351.08C266.213 350.43 266.043 349.69 266.043 348.86ZM273.003 348.875C273.003 348.255 272.878 347.715 272.628 347.255C272.378 346.795 272.038 346.445 271.608 346.205C271.188 345.955 270.723 345.83 270.213 345.83C269.703 345.83 269.238 345.95 268.818 346.19C268.398 346.43 268.063 346.78 267.813 347.24C267.563 347.7 267.438 348.24 267.438 348.86C267.438 349.49 267.563 350.04 267.813 350.51C268.063 350.97 268.398 351.325 268.818 351.575C269.238 351.815 269.703 351.935 270.213 351.935C270.723 351.935 271.188 351.815 271.608 351.575C272.038 351.325 272.378 350.97 272.628 350.51C272.878 350.04 273.003 349.495 273.003 348.875ZM280.695 344.63C281.695 344.63 282.505 344.935 283.125 345.545C283.745 346.145 284.055 347.015 284.055 348.155V353H282.705V348.35C282.705 347.53 282.5 346.905 282.09 346.475C281.68 346.035 281.12 345.815 280.41 345.815C279.69 345.815 279.115 346.04 278.685 346.49C278.265 346.94 278.055 347.595 278.055 348.455V353H276.69V344.78H278.055V345.95C278.325 345.53 278.69 345.205 279.15 344.975C279.62 344.745 280.135 344.63 280.695 344.63ZM286.99 343.445C286.73 343.445 286.51 343.355 286.33 343.175C286.15 342.995 286.06 342.775 286.06 342.515C286.06 342.255 286.15 342.035 286.33 341.855C286.51 341.675 286.73 341.585 286.99 341.585C287.24 341.585 287.45 341.675 287.62 341.855C287.8 342.035 287.89 342.255 287.89 342.515C287.89 342.775 287.8 342.995 287.62 343.175C287.45 343.355 287.24 343.445 286.99 343.445ZM287.65 344.78V353H286.285V344.78H287.65ZM290.996 351.875H295.031V353H289.436V351.875L293.426 345.89H289.466V344.78H295.001V345.89L290.996 351.875ZM296.292 348.86C296.292 348.02 296.462 347.285 296.802 346.655C297.142 346.015 297.607 345.52 298.197 345.17C298.797 344.82 299.462 344.645 300.192 344.645C300.912 344.645 301.537 344.8 302.067 345.11C302.597 345.42 302.992 345.81 303.252 346.28V344.78H304.632V353H303.252V351.47C302.982 351.95 302.577 352.35 302.037 352.67C301.507 352.98 300.887 353.135 300.177 353.135C299.447 353.135 298.787 352.955 298.197 352.595C297.607 352.235 297.142 351.73 296.802 351.08C296.462 350.43 296.292 349.69 296.292 348.86ZM303.252 348.875C303.252 348.255 303.127 347.715 302.877 347.255C302.627 346.795 302.287 346.445 301.857 346.205C301.437 345.955 300.972 345.83 300.462 345.83C299.952 345.83 299.487 345.95 299.067 346.19C298.647 346.43 298.312 346.78 298.062 347.24C297.812 347.7 297.687 348.24 297.687 348.86C297.687 349.49 297.812 350.04 298.062 350.51C298.312 350.97 298.647 351.325 299.067 351.575C299.487 351.815 299.952 351.935 300.462 351.935C300.972 351.935 301.437 351.815 301.857 351.575C302.287 351.325 302.627 350.97 302.877 350.51C303.127 350.04 303.252 349.495 303.252 348.875ZM308.604 345.905V350.75C308.604 351.15 308.689 351.435 308.859 351.605C309.029 351.765 309.324 351.845 309.744 351.845H310.749V353H309.519C308.759 353 308.189 352.825 307.809 352.475C307.429 352.125 307.239 351.55 307.239 350.75V345.905H306.174V344.78H307.239V342.71H308.604V344.78H310.749V345.905H308.604ZM313.108 343.445C312.848 343.445 312.628 343.355 312.448 343.175C312.268 342.995 312.178 342.775 312.178 342.515C312.178 342.255 312.268 342.035 312.448 341.855C312.628 341.675 312.848 341.585 313.108 341.585C313.358 341.585 313.568 341.675 313.738 341.855C313.918 342.035 314.008 342.255 314.008 342.515C314.008 342.775 313.918 342.995 313.738 343.175C313.568 343.355 313.358 343.445 313.108 343.445ZM313.768 344.78V353H312.403V344.78H313.768ZM319.679 353.135C318.909 353.135 318.209 352.96 317.579 352.61C316.959 352.26 316.469 351.765 316.109 351.125C315.759 350.475 315.584 349.725 315.584 348.875C315.584 348.035 315.764 347.295 316.124 346.655C316.494 346.005 316.994 345.51 317.624 345.17C318.254 344.82 318.959 344.645 319.739 344.645C320.519 344.645 321.224 344.82 321.854 345.17C322.484 345.51 322.979 346 323.339 346.64C323.709 347.28 323.894 348.025 323.894 348.875C323.894 349.725 323.704 350.475 323.324 351.125C322.954 351.765 322.449 352.26 321.809 352.61C321.169 352.96 320.459 353.135 319.679 353.135ZM319.679 351.935C320.169 351.935 320.629 351.82 321.059 351.59C321.489 351.36 321.834 351.015 322.094 350.555C322.364 350.095 322.499 349.535 322.499 348.875C322.499 348.215 322.369 347.655 322.109 347.195C321.849 346.735 321.509 346.395 321.089 346.175C320.669 345.945 320.214 345.83 319.724 345.83C319.224 345.83 318.764 345.945 318.344 346.175C317.934 346.395 317.604 346.735 317.354 347.195C317.104 347.655 316.979 348.215 316.979 348.875C316.979 349.545 317.099 350.11 317.339 350.57C317.589 351.03 317.919 351.375 318.329 351.605C318.739 351.825 319.189 351.935 319.679 351.935ZM329.694 344.63C330.694 344.63 331.504 344.935 332.124 345.545C332.744 346.145 333.054 347.015 333.054 348.155V353H331.704V348.35C331.704 347.53 331.499 346.905 331.089 346.475C330.679 346.035 330.119 345.815 329.409 345.815C328.689 345.815 328.114 346.04 327.684 346.49C327.264 346.94 327.054 347.595 327.054 348.455V353H325.689V344.78H327.054V345.95C327.324 345.53 327.689 345.205 328.149 344.975C328.619 344.745 329.134 344.63 329.694 344.63ZM335.719 353.09C335.459 353.09 335.239 353 335.059 352.82C334.879 352.64 334.789 352.42 334.789 352.16C334.789 351.9 334.879 351.68 335.059 351.5C335.239 351.32 335.459 351.23 335.719 351.23C335.969 351.23 336.179 351.32 336.349 351.5C336.529 351.68 336.619 351.9 336.619 352.16C336.619 352.42 336.529 352.64 336.349 352.82C336.179 353 335.969 353.09 335.719 353.09Z" fill="white"/>
<defs>
<linearGradient id="paint0_linear_70_215" x1="15.0968" y1="32.0756" x2="431.949" y2="175.325" gradientUnits="userSpaceOnUse">
<stop stop-color="#660066"/>
<stop offset="1" stop-color="#3E023E"/>
</linearGradient>
</defs>
</svg>
